# 3ds Max Wavefront OBJ Exporter v0.97b - (c)2007 guruware
# File Created: 23.04.2018 17:50:26

mtllib arbusto1.mtl

#
# object Rock1_Arbusto1
#

v  -24.4920 3.6500 -7.1060
v  -23.8006 3.9318 -7.2367
v  -24.8004 3.6275 -8.0977
v  -24.2632 3.4755 -8.5071
v  -25.2970 3.1649 -7.7880
v  -25.5905 2.4113 -8.1247
v  -25.4875 3.2213 -6.9400
v  -26.0193 2.7592 -6.5841
v  -24.8092 3.4245 -6.7137
v  -24.6792 3.0313 -5.9810
v  -23.3285 3.2904 -6.5994
v  -23.8277 3.0401 -5.9156
v  -22.6047 2.8467 -6.6888
v  -22.8659 1.8997 -6.1094
v  -22.5160 2.8638 -7.5368
v  -22.4809 1.7541 -7.6499
v  -23.3197 3.8766 -7.9835
v  -23.4579 3.3729 -8.4417
v  -24.7699 2.4933 -8.7916
v  -25.4515 1.8428 -8.7514
v  -24.1215 1.2635 -9.0350
v  -24.0445 0.7513 -9.2045
v  -23.4205 2.4080 -8.8034
v  -23.0588 1.3980 -8.5316
v  -22.4564 0.5049 -7.2396
v  -22.3466 0.6255 -6.5126
v  -22.7521 0.2187 -7.8030
v  -22.9116 0.0461 -7.4489
v  -23.0384 0.5648 -8.5541
v  -23.4926 0.3759 -8.8287
v  -24.7870 0.4792 -9.0312
v  -25.4370 0.7783 -8.7077
v  -24.6355 0.1358 -8.4403
v  -25.0583 0.2158 -7.9133
v  -23.8313 0.0847 -8.3612
v  -23.5848 -0.1068 -7.7177
v  -22.9489 0.0552 -6.5963
v  -22.7181 0.2983 -6.2269
v  -23.6391 -0.0233 -6.3377
v  -24.0387 0.0637 -5.8345
v  -24.1822 -0.2019 -7.0923
v  -24.8513 0.1521 -7.2123
v  -25.6882 0.5896 -7.7492
v  -25.9422 0.8990 -8.1778
v  -25.7255 0.6565 -6.8967
v  -25.9081 0.8228 -6.6018
v  -25.1126 0.1082 -6.5333
v  -24.8428 0.1119 -5.9136
v  -23.7523 0.3300 -5.4508
v  -23.3121 0.6321 -5.6207
v  -24.5510 0.5468 -5.3196
v  -24.5196 1.2651 -5.1404
v  -25.0468 0.2309 -5.6533
v  -25.7107 0.8618 -5.7743
v  -26.0335 1.3438 -6.9378
v  -26.1433 1.2626 -7.6648
v  -25.6058 1.8514 -5.8073
v  -25.0257 2.0058 -5.4103
v  -23.7089 2.4081 -5.4221
v  -23.2131 1.6105 -5.5875
# 60 vertices

vn -0.1876 0.9379 -0.2918
vn -0.1876 0.9379 -0.2918
vn -0.1876 0.9379 -0.2918
vn -0.1876 0.9379 -0.2918
vn -0.1876 0.9379 -0.2918
vn -0.1876 0.9379 -0.2918
vn -0.5766 0.4569 -0.6774
vn -0.5766 0.4569 -0.6774
vn -0.5766 0.4569 -0.6774
vn -0.5766 0.4569 -0.6774
vn -0.5766 0.4569 -0.6774
vn -0.5766 0.4569 -0.6774
vn -0.9187 0.3488 -0.1853
vn -0.9187 0.3488 -0.1853
vn -0.9187 0.3488 -0.1853
vn -0.9187 0.3488 -0.1853
vn -0.9187 0.3488 -0.1853
vn -0.9187 0.3488 -0.1853
vn -0.4801 0.6077 0.6326
vn -0.4801 0.6077 0.6326
vn -0.4801 0.6077 0.6326
vn -0.4801 0.6077 0.6326
vn -0.4801 0.6077 0.6326
vn -0.4801 0.6077 0.6326
vn 0.0109 0.8511 0.5248
vn 0.0109 0.8511 0.5248
vn 0.0109 0.8511 0.5248
vn 0.0109 0.8511 0.5248
vn 0.0109 0.8511 0.5248
vn 0.0109 0.8511 0.5248
vn 0.6055 0.4556 0.6526
vn 0.6055 0.4556 0.6526
vn 0.6055 0.4556 0.6526
vn 0.6055 0.4556 0.6526
vn 0.6055 0.4556 0.6526
vn 0.6055 0.4556 0.6526
vn 0.9883 0.0854 0.1266
vn 0.9883 0.0854 0.1266
vn 0.9883 0.0854 0.1266
vn 0.9883 0.0854 0.1266
vn 0.9883 0.0854 0.1266
vn 0.9883 0.0854 0.1266
vn 0.7755 0.1659 -0.6092
vn 0.7755 0.1659 -0.6092
vn 0.7755 0.1659 -0.6092
vn 0.7755 0.1659 -0.6092
vn 0.7755 0.1659 -0.6092
vn 0.7755 0.1659 -0.6092
vn -0.2016 0.1067 -0.9736
vn -0.2016 0.1067 -0.9736
vn -0.2016 0.1067 -0.9736
vn -0.2016 0.1067 -0.9736
vn -0.2016 0.1067 -0.9736
vn -0.2016 0.1067 -0.9736
vn 0.4448 0.0527 -0.8941
vn 0.4448 0.0527 -0.8941
vn 0.4448 0.0527 -0.8941
vn 0.4448 0.0527 -0.8941
vn 0.4448 0.0527 -0.8941
vn 0.4448 0.0527 -0.8941
vn 0.6978 -0.7159 0.0251
vn 0.6978 -0.7159 0.0251
vn 0.6978 -0.7159 0.0251
vn 0.6978 -0.7159 0.0251
vn 0.6978 -0.7159 0.0251
vn 0.6978 -0.7159 0.0251
vn 0.3659 -0.8518 -0.3748
vn 0.3659 -0.8518 -0.3748
vn 0.3659 -0.8518 -0.3748
vn 0.3659 -0.8518 -0.3748
vn 0.3659 -0.8518 -0.3748
vn 0.3659 -0.8518 -0.3748
vn -0.5284 -0.7927 -0.3040
vn -0.5284 -0.7927 -0.3040
vn -0.5284 -0.7927 -0.3040
vn -0.5284 -0.7927 -0.3040
vn -0.5284 -0.7927 -0.3040
vn -0.5284 -0.7927 -0.3040
vn -0.2204 -0.9611 -0.1666
vn -0.2204 -0.9611 -0.1666
vn -0.2204 -0.9611 -0.1666
vn -0.2204 -0.9611 -0.1666
vn -0.2204 -0.9611 -0.1666
vn -0.2204 -0.9611 -0.1666
vn 0.3431 -0.8073 0.4801
vn 0.3431 -0.8073 0.4801
vn 0.3431 -0.8073 0.4801
vn 0.3431 -0.8073 0.4801
vn 0.3431 -0.8073 0.4801
vn 0.3431 -0.8073 0.4801
vn -0.1875 -0.9738 0.1286
vn -0.1875 -0.9738 0.1286
vn -0.1875 -0.9738 0.1286
vn -0.1875 -0.9738 0.1286
vn -0.1875 -0.9738 0.1286
vn -0.1875 -0.9738 0.1286
vn -0.8544 -0.5172 0.0496
vn -0.8544 -0.5172 0.0496
vn -0.8544 -0.5172 0.0496
vn -0.8544 -0.5172 0.0496
vn -0.8544 -0.5172 0.0496
vn -0.8544 -0.5172 0.0496
vn -0.6558 -0.7408 0.1454
vn -0.6558 -0.7408 0.1454
vn -0.6558 -0.7408 0.1454
vn -0.6558 -0.7408 0.1454
vn -0.6558 -0.7408 0.1454
vn -0.6558 -0.7408 0.1454
vn 0.3271 -0.0730 0.9422
vn 0.3271 -0.0730 0.9422
vn 0.3271 -0.0730 0.9422
vn 0.3271 -0.0730 0.9422
vn 0.3271 -0.0730 0.9422
vn 0.3271 -0.0730 0.9422
vn -0.4617 -0.0787 0.8835
vn -0.4617 -0.0787 0.8835
vn -0.4617 -0.0787 0.8835
vn -0.4617 -0.0787 0.8835
vn -0.4617 -0.0787 0.8835
vn -0.4617 -0.0787 0.8835
vn -0.5124 0.8581 0.0327
vn -0.5124 0.8581 0.0327
vn -0.5124 0.8581 0.0327
vn -0.5124 0.8581 0.0327
vn -0.5124 0.8581 0.0327
vn 0.6339 0.7314 0.2513
vn 0.6339 0.7314 0.2513
vn 0.6339 0.7314 0.2513
vn 0.6339 0.7314 0.2513
vn 0.6339 0.7314 0.2513
vn 0.0223 0.2565 -0.9663
vn 0.0223 0.2565 -0.9663
vn 0.0223 0.2565 -0.9663
vn 0.0223 0.2565 -0.9663
vn 0.0223 0.2565 -0.9663
vn 0.8832 -0.0762 -0.4628
vn 0.8832 -0.0762 -0.4628
vn 0.8832 -0.0762 -0.4628
vn 0.8832 -0.0762 -0.4628
vn 0.8832 -0.0762 -0.4628
vn 0.0264 -0.8062 -0.5911
vn 0.0264 -0.8062 -0.5911
vn 0.0264 -0.8062 -0.5911
vn 0.0264 -0.8062 -0.5911
vn 0.0264 -0.8062 -0.5911
vn 0.1863 -0.9809 0.0565
vn 0.1863 -0.9809 0.0565
vn 0.1863 -0.9809 0.0565
vn 0.1863 -0.9809 0.0565
vn 0.1863 -0.9809 0.0565
vn -0.5179 -0.8546 -0.0395
vn -0.5179 -0.8546 -0.0395
vn -0.5179 -0.8546 -0.0395
vn -0.5179 -0.8546 -0.0395
vn -0.5179 -0.8546 -0.0395
vn -0.0560 -0.7894 0.6113
vn -0.0560 -0.7894 0.6113
vn -0.0560 -0.7894 0.6113
vn -0.0560 -0.7894 0.6113
vn -0.0560 -0.7894 0.6113
vn -0.9321 -0.0054 0.3621
vn -0.9321 -0.0054 0.3621
vn -0.9321 -0.0054 0.3621
vn -0.9321 -0.0054 0.3621
vn -0.9321 -0.0054 0.3621
vn -0.1005 0.4611 0.8816
vn -0.1005 0.4611 0.8816
vn -0.1005 0.4611 0.8816
vn -0.1005 0.4611 0.8816
vn -0.1005 0.4611 0.8816
vn 0.7331 -0.0188 0.6799
vn 0.7331 -0.0188 0.6799
vn 0.7331 -0.0188 0.6799
vn 0.7331 -0.0188 0.6799
vn 0.7331 -0.0188 0.6799
vn -0.8626 0.1602 -0.4798
vn -0.8626 0.1602 -0.4798
vn -0.8626 0.1602 -0.4798
vn -0.8626 0.1602 -0.4798
vn -0.8626 0.1602 -0.4798
# 180 vertex normals

vt 0.5374 0.8516 0.0000
vt 0.5531 0.8383 0.0000
vt 0.5666 0.8331 0.0000
vt 0.5704 0.8469 0.0000
vt 0.5678 0.8579 0.0000
vt 0.5498 0.8665 0.0000
vt 0.5972 0.8487 0.0000
vt 0.6151 0.8597 0.0000
vt 0.5994 0.8707 0.0000
vt 0.5776 0.8687 0.0000
vt 0.6242 0.8927 0.0000
vt 0.6119 0.9104 0.0000
vt 0.5800 0.8944 0.0000
vt 0.5700 0.8818 0.0000
vt 0.5794 0.9201 0.0000
vt 0.5625 0.9214 0.0000
vt 0.5503 0.8956 0.0000
vt 0.5546 0.8784 0.0000
vt 0.5325 0.8945 0.0000
vt 0.5210 0.8782 0.0000
vt 0.5316 0.9145 0.0000
vt 0.5218 0.9342 0.0000
vt 0.5079 0.9239 0.0000
vt 0.5013 0.8898 0.0000
vt 0.5463 0.7709 0.0000
vt 0.5815 0.7502 0.0000
vt 0.5964 0.7598 0.0000
vt 0.5770 0.7880 0.0000
vt 0.5545 0.8081 0.0000
vt 0.5394 0.8011 0.0000
vt 0.6021 0.7998 0.0000
vt 0.5881 0.8211 0.0000
vt 0.6218 0.8233 0.0000
vt 0.6337 0.8165 0.0000
vt 0.6458 0.8354 0.0000
vt 0.6413 0.8567 0.0000
vt 0.6197 0.7867 0.0000
vt 0.6319 0.7956 0.0000
vt 0.5289 0.7235 0.0000
vt 0.5303 0.7121 0.0000
vt 0.5395 0.7109 0.0000
vt 0.5521 0.7190 0.0000
vt 0.5559 0.7260 0.0000
vt 0.5419 0.7283 0.0000
vt 0.5622 0.7105 0.0000
vt 0.5748 0.7126 0.0000
vt 0.5804 0.7231 0.0000
vt 0.5723 0.7309 0.0000
vt 0.5962 0.7024 0.0000
vt 0.5834 0.7003 0.0000
vt 0.5803 0.6886 0.0000
vt 0.5856 0.6753 0.0000
vt 0.5965 0.6733 0.0000
vt 0.5998 0.6871 0.0000
vt 0.5585 0.6959 0.0000
vt 0.5680 0.6852 0.0000
vt 0.5221 0.6965 0.0000
vt 0.5280 0.6869 0.0000
vt 0.5384 0.6865 0.0000
vt 0.5419 0.6975 0.0000
vt 0.5474 0.6741 0.0000
vt 0.5594 0.6763 0.0000
vt 0.5736 0.6654 0.0000
vt 0.5715 0.6586 0.0000
vt 0.5833 0.6525 0.0000
vt 0.5939 0.6606 0.0000
vt 0.5457 0.6679 0.0000
vt 0.5572 0.6528 0.0000
vt 0.5266 0.9611 0.0000
vt 0.5554 0.9423 0.0000
vt 0.5605 0.9600 0.0000
vt 0.5402 0.9681 0.0000
vt 0.5914 0.9423 0.0000
vt 0.5776 0.9644 0.0000
vt 0.5290 0.8239 0.0000
vt 0.6130 0.7659 0.0000
vt 0.5953 0.7185 0.0000
vt 0.5323 0.6708 0.0000
vt 0.6108 0.9292 0.0000
vt 0.5070 0.9702 0.0000
vt 0.4960 0.9613 0.0000
vt 0.6370 0.8776 0.0000
# 82 texture coords

o Rock1_Arbusto1
g Rock1_Arbusto1
usemtl Props_gamev2_lambert13SG
s 224
f 2/1/1 17/2/2 18/3/3 4/4/4 3/5/5 1/6/6 
s 225
f 4/4/7 19/7/8 20/8/9 6/9/10 5/10/11 3/5/12 
s 226
f 6/9/13 56/11/14 55/12/15 8/13/16 7/14/17 5/10/18 
s 227
f 8/13/19 57/15/20 58/16/21 10/17/22 9/18/23 7/14/24 
s 228
f 10/17/25 12/19/26 11/20/27 2/1/28 1/6/29 9/18/30 
s 229
f 12/19/31 59/21/32 60/22/33 14/23/34 13/24/35 11/20/36 
s 230
f 14/25/37 26/26/38 25/27/39 16/28/40 15/29/41 13/30/42 
s 231
f 16/28/43 24/31/44 23/32/45 18/3/46 17/2/47 15/29/48 
s 232
f 19/7/49 21/33/50 22/34/51 31/35/52 32/36/53 20/8/54 
s 233
f 21/33/55 23/32/56 24/31/57 29/37/58 30/38/59 22/34/60 
s 234
f 26/39/61 38/40/62 37/41/63 28/42/64 27/43/65 25/44/66 
s 235
f 28/42/67 36/45/68 35/46/69 30/47/70 29/48/71 27/43/72 
s 236
f 31/49/73 33/50/74 34/51/75 43/52/76 44/53/77 32/54/78 
s 237
f 33/50/79 35/46/80 36/45/81 41/55/82 42/56/83 34/51/84 
s 238
f 38/40/85 50/57/86 49/58/87 40/59/88 39/60/89 37/41/90 
s 239
f 40/59/91 48/61/92 47/62/93 42/56/94 41/55/95 39/60/96 
s 240
f 43/52/97 45/63/98 46/64/99 55/65/100 56/66/101 44/53/102 
s 241
f 45/63/103 47/62/104 48/61/105 53/67/106 54/68/107 46/64/108 
s 242
f 50/69/109 60/22/110 59/21/111 52/70/112 51/71/113 49/72/114 
s 243
f 52/70/115 58/16/116 57/15/117 54/73/118 53/74/119 51/71/120 
s 244
f 3/5/121 5/10/122 7/14/123 9/18/124 1/6/125 
s 245
f 11/75/126 13/30/127 15/29/128 17/2/129 2/1/130 
s 246
f 18/3/131 23/32/132 21/33/133 19/7/134 4/4/135 
s 247
f 16/28/136 25/27/137 27/76/138 29/37/139 24/31/140 
s 248
f 30/47/141 35/46/142 33/50/143 31/49/144 22/77/145 
s 249
f 28/42/146 37/41/147 39/60/148 41/55/149 36/45/150 
s 250
f 42/56/151 47/62/152 45/63/153 43/52/154 34/51/155 
s 251
f 40/59/156 49/58/157 51/78/158 53/67/159 48/61/160 
s 252
f 54/73/161 57/15/162 8/13/163 55/12/164 46/79/165 
s 253
f 52/70/166 59/21/167 12/19/168 10/17/169 58/16/170 
s 254
f 60/22/171 50/69/172 38/80/173 26/81/174 14/23/175 
s 255
f 6/9/176 20/8/177 32/36/178 44/82/179 56/11/180 
# 32 polygons

