# 3ds Max Wavefront OBJ Exporter v0.97b - (c)2007 guruware
# File Created: 23.04.2018 17:47:34

mtllib cartel.mtl

#
# object pCube001
#

v  0.2080 3.5091 -51.5442
v  6.0926 3.5091 -51.5442
v  0.2080 6.3094 -51.5442
v  6.0926 6.3094 -51.5442
v  0.2080 6.3094 -52.3749
v  6.0926 6.3094 -52.3749
v  0.2080 3.5091 -52.3749
v  6.0926 3.5091 -52.3749
v  2.7538 0.0164 -51.7019
v  3.4428 0.0164 -51.7019
v  2.7538 4.8306 -51.7019
v  3.4428 4.8306 -51.7019
v  2.7538 4.8306 -52.2034
v  3.4428 4.8306 -52.2034
v  2.7538 0.0164 -52.2034
v  3.4428 0.0164 -52.2034
# 16 vertices

vn 0.0000 0.0000 1.0000
vn 0.0000 0.0000 1.0000
vn 0.0000 0.0000 1.0000
vn 0.0000 0.0000 1.0000
vn 0.0000 1.0000 0.0000
vn 0.0000 1.0000 0.0000
vn 0.0000 1.0000 0.0000
vn 0.0000 1.0000 0.0000
vn 0.0000 0.0000 -1.0000
vn 0.0000 0.0000 -1.0000
vn 0.0000 0.0000 -1.0000
vn 0.0000 0.0000 -1.0000
vn 0.0000 -1.0000 0.0000
vn 0.0000 -1.0000 0.0000
vn 0.0000 -1.0000 0.0000
vn 0.0000 -1.0000 0.0000
vn 1.0000 0.0000 0.0000
vn 1.0000 0.0000 0.0000
vn 1.0000 0.0000 0.0000
vn 1.0000 0.0000 0.0000
vn -1.0000 0.0000 0.0000
vn -1.0000 0.0000 0.0000
vn -1.0000 0.0000 0.0000
vn -1.0000 0.0000 0.0000
vn 0.0000 0.0000 1.0000
vn 0.0000 0.0000 1.0000
vn 0.0000 0.0000 1.0000
vn 0.0000 0.0000 1.0000
vn 0.0000 1.0000 0.0000
vn 0.0000 1.0000 0.0000
vn 0.0000 1.0000 0.0000
vn 0.0000 1.0000 0.0000
vn 0.0000 0.0000 -1.0000
vn 0.0000 0.0000 -1.0000
vn 0.0000 0.0000 -1.0000
vn 0.0000 0.0000 -1.0000
vn 0.0000 -1.0000 0.0000
vn 0.0000 -1.0000 0.0000
vn 0.0000 -1.0000 0.0000
vn 0.0000 -1.0000 0.0000
vn 1.0000 0.0000 0.0000
vn 1.0000 0.0000 0.0000
vn 1.0000 0.0000 0.0000
vn 1.0000 0.0000 0.0000
vn -1.0000 0.0000 0.0000
vn -1.0000 0.0000 0.0000
vn -1.0000 0.0000 0.0000
vn -1.0000 0.0000 0.0000
# 48 vertex normals

vt 0.1407 0.3234 0.0000
vt 0.0146 0.1407 0.0000
vt 0.1974 0.0146 0.0000
vt 0.3234 0.1974 0.0000
vt 0.8151 0.2525 0.0000
vt 0.8239 0.3318 0.0000
vt 0.7447 0.3406 0.0000
vt 0.7358 0.2614 0.0000
vt 0.4740 0.5042 0.0000
vt 0.2445 0.5059 0.0000
vt 0.2428 0.2763 0.0000
vt 0.4723 0.2746 0.0000
vt 0.7269 0.1821 0.0000
vt 0.7181 0.1028 0.0000
vt 0.7973 0.0939 0.0000
vt 0.8062 0.1732 0.0000
vt 0.7092 0.0235 0.0000
vt 0.7885 0.0146 0.0000
vt 0.8386 0.1830 0.0000
vt 0.8386 0.0988 0.0000
vt 0.9227 0.0988 0.0000
vt 0.9227 0.1830 0.0000
vt 0.9358 0.6782 0.0000
vt 0.8386 0.6782 0.0000
vt 0.8386 0.5810 0.0000
vt 0.9358 0.5810 0.0000
vt 0.9227 0.2672 0.0000
vt 0.9227 0.3514 0.0000
vt 0.8386 0.3514 0.0000
vt 0.8386 0.2672 0.0000
vt 0.5340 0.8585 0.0000
vt 0.5340 0.9557 0.0000
vt 0.4368 0.9557 0.0000
vt 0.4368 0.8585 0.0000
vt 0.8386 0.0146 0.0000
vt 0.9227 0.0146 0.0000
# 36 texture coords

o pCube001
g pCube001
usemtl prop_3_lambert3SG
s 159
f 1/1/1 2/2/2 4/3/3 3/4/4 
s 160
f 3/5/5 4/6/6 6/7/7 5/8/8 
s 161
f 5/9/9 6/10/10 8/11/11 7/12/12 
s 162
f 7/13/13 8/14/14 2/15/15 1/16/16 
s 163
f 2/15/17 8/14/18 6/17/19 4/18/20 
s 164
f 7/13/21 1/16/22 3/5/23 5/8/24 
s 153
f 9/19/25 10/20/26 12/21/27 11/22/28 
s 154
f 11/23/29 12/24/30 14/25/31 13/26/32 
s 155
f 13/27/33 14/28/34 16/29/35 15/30/36 
s 156
f 15/31/37 16/32/38 10/33/39 9/34/40 
s 157
f 10/20/41 16/35/42 14/36/43 12/21/44 
s 158
f 15/30/45 9/19/46 11/22/47 13/27/48 
# 12 polygons

