# 3ds Max Wavefront OBJ Exporter v0.97b - (c)2007 guruware
# File Created: 23.04.2018 17:53:10

mtllib copaArbol1.mtl

#
# object Rock1_Copa1
#

v  -16.5869 16.9395 -16.2901
v  -14.0715 18.5520 -16.6563
v  -18.2352 14.6031 -19.1882
v  -15.8369 13.9308 -20.3927
v  -20.2522 13.7858 -18.3554
v  -19.9486 12.3510 -19.4110
v  -19.9971 13.8519 -16.0719
v  -20.3832 12.4667 -15.1284
v  -17.7488 15.7602 -15.1998
v  -16.5648 14.5311 -12.7912
v  -12.5688 16.2394 -14.8134
v  -14.4392 14.8735 -12.0697
v  -10.0288 13.8975 -15.0247
v  -11.1254 12.0896 -12.5400
v  -9.0770 14.0007 -17.5177
v  -8.9573 11.8118 -17.8429
v  -11.6615 17.3810 -18.8027
v  -12.3804 14.5139 -20.1461
v  -16.5522 12.0079 -21.4144
v  -18.5708 12.0385 -21.4376
v  -14.4424 11.0760 -21.9467
v  -14.2300 9.7227 -22.4238
v  -12.4228 12.1405 -21.1630
v  -11.1901 11.3227 -20.3757
v  -9.6238 9.8438 -16.6641
v  -9.3402 9.7733 -14.5756
v  -10.5012 9.3844 -18.2824
v  -10.9521 9.4625 -17.2652
v  -11.3276 9.5359 -20.4405
v  -12.6329 9.3954 -21.2356
v  -16.3959 10.0202 -22.2381
v  -18.2801 10.4541 -21.4682
v  -15.9556 10.1063 -20.4933
v  -17.2465 10.5524 -18.9616
v  -13.6122 9.7430 -19.9498
v  -12.8934 9.7010 -18.0374
v  -11.0964 9.4794 -14.7500
v  -10.4490 9.3943 -13.6483
v  -13.2375 9.9397 -13.6034
v  -14.4605 9.7508 -11.9663
v  -14.6181 10.1430 -16.2294
v  -16.6079 10.5901 -16.6730
v  -18.9996 9.8809 -18.4568
v  -19.7291 10.1264 -19.7836
v  -19.0451 9.2843 -15.7671
v  -19.5662 9.2567 -14.9182
v  -17.2839 9.7614 -14.6730
v  -16.5798 9.6464 -12.6811
v  -13.6584 9.5463 -10.8116
v  -12.3758 9.6732 -11.3453
v  -15.8333 9.5854 -10.7392
v  -15.9158 10.9323 -9.7843
v  -17.1246 9.3675 -12.0375
v  -19.0021 9.4668 -12.4939
v  -19.9589 9.8676 -15.9519
v  -20.3080 9.9665 -18.1208
v  -18.6963 11.2991 -12.6952
v  -17.2633 12.0762 -10.8550
v  -14.0534 13.0698 -9.4276
v  -12.3946 11.6916 -10.4771
# 60 vertices

vn -0.2868 0.6550 -0.6991
vn -0.2868 0.6550 -0.6991
vn -0.2868 0.6550 -0.6991
vn -0.2868 0.6550 -0.6991
vn -0.2868 0.6550 -0.6991
vn -0.2868 0.6550 -0.6991
vn -0.3300 0.5437 -0.7717
vn -0.3300 0.5437 -0.7717
vn -0.3300 0.5437 -0.7717
vn -0.3300 0.5437 -0.7717
vn -0.3300 0.5437 -0.7717
vn -0.3300 0.5437 -0.7717
vn -0.9999 0.0035 -0.0153
vn -0.9999 0.0035 -0.0153
vn -0.9999 0.0035 -0.0153
vn -0.9999 0.0035 -0.0153
vn -0.9999 0.0035 -0.0153
vn -0.9999 0.0035 -0.0153
vn -0.6767 0.4905 0.5491
vn -0.6767 0.4905 0.5491
vn -0.6767 0.4905 0.5491
vn -0.6767 0.4905 0.5491
vn -0.6767 0.4905 0.5491
vn -0.6767 0.4905 0.5491
vn -0.1218 0.7834 0.6095
vn -0.1218 0.7834 0.6095
vn -0.1218 0.7834 0.6095
vn -0.1218 0.7834 0.6095
vn -0.1218 0.7834 0.6095
vn -0.1218 0.7834 0.6095
vn 0.5738 0.5878 0.5704
vn 0.5738 0.5878 0.5704
vn 0.5738 0.5878 0.5704
vn 0.5738 0.5878 0.5704
vn 0.5738 0.5878 0.5704
vn 0.5738 0.5878 0.5704
vn 0.9445 0.1301 0.3016
vn 0.9445 0.1301 0.3016
vn 0.9445 0.1301 0.3016
vn 0.9445 0.1301 0.3016
vn 0.9445 0.1301 0.3016
vn 0.9445 0.1301 0.3016
vn 0.6323 0.2157 -0.7441
vn 0.6323 0.2157 -0.7441
vn 0.6323 0.2157 -0.7441
vn 0.6323 0.2157 -0.7441
vn 0.6323 0.2157 -0.7441
vn 0.6323 0.2157 -0.7441
vn -0.0945 0.2924 -0.9516
vn -0.0945 0.2924 -0.9516
vn -0.0945 0.2924 -0.9516
vn -0.0945 0.2924 -0.9516
vn -0.0945 0.2924 -0.9516
vn -0.0945 0.2924 -0.9516
vn 0.4693 0.0785 -0.8795
vn 0.4693 0.0785 -0.8795
vn 0.4693 0.0785 -0.8795
vn 0.4693 0.0785 -0.8795
vn 0.4693 0.0785 -0.8795
vn 0.4693 0.0785 -0.8795
vn 0.1990 -0.9791 -0.0430
vn 0.1990 -0.9791 -0.0430
vn 0.1990 -0.9791 -0.0430
vn 0.1990 -0.9791 -0.0430
vn 0.1990 -0.9791 -0.0430
vn 0.1990 -0.9791 -0.0430
vn -0.0973 -0.9944 0.0417
vn -0.0973 -0.9944 0.0417
vn -0.0973 -0.9944 0.0417
vn -0.0973 -0.9944 0.0417
vn -0.0973 -0.9944 0.0417
vn -0.0973 -0.9944 0.0417
vn -0.0169 -0.9995 -0.0274
vn -0.0169 -0.9995 -0.0274
vn -0.0169 -0.9995 -0.0274
vn -0.0169 -0.9995 -0.0274
vn -0.0169 -0.9995 -0.0274
vn -0.0169 -0.9995 -0.0274
vn -0.2063 -0.9761 0.0683
vn -0.2063 -0.9761 0.0683
vn -0.2063 -0.9761 0.0683
vn -0.2063 -0.9761 0.0683
vn -0.2063 -0.9761 0.0683
vn -0.2063 -0.9761 0.0683
vn -0.1107 -0.9918 -0.0644
vn -0.1107 -0.9918 -0.0644
vn -0.1107 -0.9918 -0.0644
vn -0.1107 -0.9918 -0.0644
vn -0.1107 -0.9918 -0.0644
vn -0.1107 -0.9918 -0.0644
vn 0.0224 -0.9902 -0.1376
vn 0.0224 -0.9902 -0.1376
vn 0.0224 -0.9902 -0.1376
vn 0.0224 -0.9902 -0.1376
vn 0.0224 -0.9902 -0.1376
vn 0.0224 -0.9902 -0.1376
vn -0.2279 -0.9629 -0.1442
vn -0.2279 -0.9629 -0.1442
vn -0.2279 -0.9629 -0.1442
vn -0.2279 -0.9629 -0.1442
vn -0.2279 -0.9629 -0.1442
vn -0.2279 -0.9629 -0.1442
vn 0.1405 -0.9891 -0.0451
vn 0.1405 -0.9891 -0.0451
vn 0.1405 -0.9891 -0.0451
vn 0.1405 -0.9891 -0.0451
vn 0.1405 -0.9891 -0.0451
vn 0.1405 -0.9891 -0.0451
vn 0.2705 -0.3868 0.8816
vn 0.2705 -0.3868 0.8816
vn 0.2705 -0.3868 0.8816
vn 0.2705 -0.3868 0.8816
vn 0.2705 -0.3868 0.8816
vn 0.2705 -0.3868 0.8816
vn -0.6589 -0.2355 0.7144
vn -0.6589 -0.2355 0.7144
vn -0.6589 -0.2355 0.7144
vn -0.6589 -0.2355 0.7144
vn -0.6589 -0.2355 0.7144
vn -0.6589 -0.2355 0.7144
vn -0.6053 0.7895 -0.1015
vn -0.6053 0.7895 -0.1015
vn -0.6053 0.7895 -0.1015
vn -0.6053 0.7895 -0.1015
vn -0.6053 0.7895 -0.1015
vn 0.6651 0.6701 0.3295
vn 0.6651 0.6701 0.3295
vn 0.6651 0.6701 0.3295
vn 0.6651 0.6701 0.3295
vn 0.6651 0.6701 0.3295
vn 0.0236 0.4507 -0.8924
vn 0.0236 0.4507 -0.8924
vn 0.0236 0.4507 -0.8924
vn 0.0236 0.4507 -0.8924
vn 0.0236 0.4507 -0.8924
vn 0.8109 -0.3193 -0.4904
vn 0.8109 -0.3193 -0.4904
vn 0.8109 -0.3193 -0.4904
vn 0.8109 -0.3193 -0.4904
vn 0.8109 -0.3193 -0.4904
vn -0.1749 -0.9825 0.0645
vn -0.1749 -0.9825 0.0645
vn -0.1749 -0.9825 0.0645
vn -0.1749 -0.9825 0.0645
vn -0.1749 -0.9825 0.0645
vn -0.1843 -0.9824 0.0293
vn -0.1843 -0.9824 0.0293
vn -0.1843 -0.9824 0.0293
vn -0.1843 -0.9824 0.0293
vn -0.1843 -0.9824 0.0293
vn 0.3831 -0.9069 -0.1756
vn 0.3831 -0.9069 -0.1756
vn 0.3831 -0.9069 -0.1756
vn 0.3831 -0.9069 -0.1756
vn 0.3831 -0.9069 -0.1756
vn 0.0874 -0.9901 -0.1098
vn 0.0874 -0.9901 -0.1098
vn 0.0874 -0.9901 -0.1098
vn 0.0874 -0.9901 -0.1098
vn 0.0874 -0.9901 -0.1098
vn -0.9081 -0.0702 0.4129
vn -0.9081 -0.0702 0.4129
vn -0.9081 -0.0702 0.4129
vn -0.9081 -0.0702 0.4129
vn -0.9081 -0.0702 0.4129
vn -0.4279 0.5977 0.6780
vn -0.4279 0.5977 0.6780
vn -0.4279 0.5977 0.6780
vn -0.4279 0.5977 0.6780
vn -0.4279 0.5977 0.6780
vn 0.7840 -0.1252 0.6080
vn 0.7840 -0.1252 0.6080
vn 0.7840 -0.1252 0.6080
vn 0.7840 -0.1252 0.6080
vn 0.7840 -0.1252 0.6080
vn -0.8549 -0.0427 -0.5170
vn -0.8549 -0.0427 -0.5170
vn -0.8549 -0.0427 -0.5170
vn -0.8549 -0.0427 -0.5170
vn -0.8549 -0.0427 -0.5170
# 180 vertex normals

vt 0.5180 0.5254 0.0000
vt 0.4981 0.5146 0.0000
vt 0.4834 0.4889 0.0000
vt 0.5102 0.4670 0.0000
vt 0.5431 0.4740 0.0000
vt 0.5465 0.5155 0.0000
vt 0.5023 0.4421 0.0000
vt 0.5260 0.4350 0.0000
vt 0.5545 0.4421 0.0000
vt 0.5623 0.4640 0.0000
vt 0.5747 0.4152 0.0000
vt 0.5997 0.4232 0.0000
vt 0.5994 0.4636 0.0000
vt 0.5815 0.4808 0.0000
vt 0.6059 0.5750 0.0000
vt 0.5793 0.6070 0.0000
vt 0.5526 0.6047 0.0000
vt 0.5530 0.5641 0.0000
vt 0.5638 0.5261 0.0000
vt 0.5994 0.5489 0.0000
vt 0.5268 0.5705 0.0000
vt 0.5084 0.5482 0.0000
vt 0.5182 0.5969 0.0000
vt 0.4924 0.6036 0.0000
vt 0.4720 0.5863 0.0000
vt 0.4701 0.5543 0.0000
vt 0.4259 0.5748 0.0000
vt 0.4165 0.5435 0.0000
vt 0.4419 0.5275 0.0000
vt 0.4624 0.5287 0.0000
vt 0.4424 0.4857 0.0000
vt 0.4598 0.4719 0.0000
vt 0.4691 0.4449 0.0000
vt 0.4541 0.4337 0.0000
vt 0.4853 0.4191 0.0000
vt 0.5182 0.4160 0.0000
vt 0.4226 0.4782 0.0000
vt 0.4309 0.4552 0.0000
vt 0.2868 0.5018 0.0000
vt 0.2981 0.4928 0.0000
vt 0.3046 0.5032 0.0000
vt 0.3036 0.5269 0.0000
vt 0.2994 0.5365 0.0000
vt 0.2898 0.5212 0.0000
vt 0.3232 0.5339 0.0000
vt 0.3307 0.5519 0.0000
vt 0.3208 0.5644 0.0000
vt 0.3080 0.5566 0.0000
vt 0.3589 0.5732 0.0000
vt 0.3544 0.5568 0.0000
vt 0.3676 0.5421 0.0000
vt 0.3864 0.5361 0.0000
vt 0.3928 0.5494 0.0000
vt 0.3781 0.5655 0.0000
vt 0.3407 0.5166 0.0000
vt 0.3607 0.5212 0.0000
vt 0.3170 0.4711 0.0000
vt 0.3295 0.4655 0.0000
vt 0.3379 0.4763 0.0000
vt 0.3264 0.4922 0.0000
vt 0.3593 0.4821 0.0000
vt 0.3673 0.5006 0.0000
vt 0.3867 0.5096 0.0000
vt 0.3913 0.5015 0.0000
vt 0.3976 0.5130 0.0000
vt 0.3996 0.5340 0.0000
vt 0.3649 0.4754 0.0000
vt 0.3836 0.4792 0.0000
vt 0.4748 0.6254 0.0000
vt 0.5311 0.6208 0.0000
vt 0.5309 0.6373 0.0000
vt 0.4953 0.6316 0.0000
vt 0.5836 0.6328 0.0000
vt 0.5575 0.6406 0.0000
vt 0.4133 0.5136 0.0000
vt 0.3373 0.5751 0.0000
vt 0.3509 0.4642 0.0000
vt 0.6219 0.6121 0.0000
vt 0.6122 0.6248 0.0000
vt 0.4361 0.5963 0.0000
vt 0.5512 0.4119 0.0000
# 81 texture coords

o Rock1_Copa1
g Rock1_Copa1
usemtl PropsGames_lambert7SG
s 435
f 2/1/1 17/2/2 18/3/3 4/4/4 3/5/5 1/6/6 
s 436
f 4/4/7 19/7/8 20/8/9 6/9/10 5/10/11 3/5/12 
s 437
f 6/9/13 56/11/14 55/12/15 8/13/16 7/14/17 5/10/18 
s 438
f 8/15/19 57/16/20 58/17/21 10/18/22 9/19/23 7/20/24 
s 439
f 10/18/25 12/21/26 11/22/27 2/1/28 1/6/29 9/19/30 
s 440
f 12/21/31 59/23/32 60/24/33 14/25/34 13/26/35 11/22/36 
s 441
f 14/25/37 26/27/38 25/28/39 16/29/40 15/30/41 13/26/42 
s 442
f 16/29/43 24/31/44 23/32/45 18/3/46 17/2/47 15/30/48 
s 443
f 19/7/49 21/33/50 22/34/51 31/35/52 32/36/53 20/8/54 
s 444
f 21/33/55 23/32/56 24/31/57 29/37/58 30/38/59 22/34/60 
s 445
f 26/39/61 38/40/62 37/41/63 28/42/64 27/43/65 25/44/66 
s 446
f 28/42/67 36/45/68 35/46/69 30/47/70 29/48/71 27/43/72 
s 447
f 31/49/73 33/50/74 34/51/75 43/52/76 44/53/77 32/54/78 
s 448
f 33/50/79 35/46/80 36/45/81 41/55/82 42/56/83 34/51/84 
s 449
f 38/40/85 50/57/86 49/58/87 40/59/88 39/60/89 37/41/90 
s 450
f 40/59/91 48/61/92 47/62/93 42/56/94 41/55/95 39/60/96 
s 451
f 43/52/97 45/63/98 46/64/99 55/65/100 56/66/101 44/53/102 
s 452
f 45/63/103 47/62/104 48/61/105 53/67/106 54/68/107 46/64/108 
s 453
f 50/69/109 60/24/110 59/23/111 52/70/112 51/71/113 49/72/114 
s 454
f 52/70/115 58/17/116 57/16/117 54/73/118 53/74/119 51/71/120 
s 455
f 3/5/121 5/10/122 7/14/123 9/19/124 1/6/125 
s 456
f 11/22/126 13/26/127 15/30/128 17/2/129 2/1/130 
s 457
f 18/3/131 23/32/132 21/33/133 19/7/134 4/4/135 
s 458
f 16/29/136 25/28/137 27/75/138 29/37/139 24/31/140 
s 459
f 30/47/141 35/46/142 33/50/143 31/49/144 22/76/145 
s 460
f 28/42/146 37/41/147 39/60/148 41/55/149 36/45/150 
s 461
f 42/56/151 47/62/152 45/63/153 43/52/154 34/51/155 
s 462
f 40/59/156 49/58/157 51/77/158 53/67/159 48/61/160 
s 463
f 54/73/161 57/16/162 8/15/163 55/78/164 46/79/165 
s 464
f 52/70/166 59/23/167 12/21/168 10/18/169 58/17/170 
s 465
f 60/24/171 50/69/172 38/80/173 26/27/174 14/25/175 
s 466
f 6/9/176 20/8/177 32/36/178 44/81/179 56/11/180 
# 32 polygons

