# 3ds Max Wavefront OBJ Exporter v0.97b - (c)2007 guruware
# File Created: 23.04.2018 17:55:56

mtllib copaArbol4.mtl

#
# object Object002
#

v  14.6828 18.8067 -16.2801
v  16.6691 20.0772 -16.6558
v  13.7968 16.9275 -19.1292
v  15.3400 16.4164 -20.3054
v  12.3703 15.5170 -18.2394
v  12.1980 13.3343 -19.2067
v  12.1154 15.5534 -15.8034
v  11.1519 13.4206 -14.7810
v  13.7715 17.7399 -15.1531
v  14.7241 16.3800 -13.0483
v  18.0253 17.9029 -14.8249
v  17.0377 16.5246 -12.8605
v  20.1046 15.0965 -15.0817
v  20.2907 12.2249 -13.4172
v  20.3595 15.1360 -17.5177
v  21.3368 12.5119 -17.8429
v  18.0506 18.4816 -18.8010
v  17.6536 16.1677 -20.1175
v  14.7730 13.1994 -21.1227
v  12.9137 11.7984 -21.0072
v  16.7344 11.1086 -21.8217
v  16.9557 9.5426 -22.3088
v  18.5466 13.3501 -21.1567
v  19.7875 11.6145 -20.3757
v  21.5179 9.8679 -16.6641
v  21.8333 9.8042 -14.5756
v  20.6684 9.3844 -18.2824
v  20.2103 9.4625 -17.2652
v  19.8460 9.5359 -20.4405
v  18.5413 9.3854 -21.2292
v  14.8227 9.3758 -21.8111
v  12.9552 9.5671 -20.8817
v  15.2580 9.5983 -20.1135
v  14.0433 10.0767 -18.5995
v  17.5680 9.6437 -19.8863
v  18.2762 9.7010 -18.0374
v  20.1030 9.4674 -14.8160
v  20.7663 9.3669 -13.7546
v  18.1202 9.8185 -14.0730
v  16.9724 9.5801 -12.6275
v  16.5600 10.1400 -16.2408
v  14.6380 10.5397 -16.5856
v  12.2337 9.4217 -18.1281
v  11.5040 9.4625 -19.3594
v  12.1264 9.4184 -15.6790
v  11.6019 9.4728 -14.8316
v  13.8873 9.8560 -14.6351
v  14.6623 9.6046 -12.8547
v  17.7950 9.3621 -11.5251
v  19.0597 9.5008 -12.0133
v  15.5007 9.4798 -11.1483
v  15.5908 10.7194 -10.6335
v  14.0764 9.3505 -12.1069
v  12.1690 9.5650 -12.4545
v  11.2416 10.1984 -15.7970
v  10.9262 9.7592 -17.8855
v  12.4703 11.7860 -12.5493
v  14.1369 12.3220 -11.4087
v  17.9105 12.9248 -11.4427
v  19.3440 11.3931 -11.9179
# 60 vertices

vn 0.0034 0.9997 0.0243
vn 0.3238 0.7226 -0.6107
vn 0.2163 0.4237 -0.8796
vn -0.0964 0.6554 -0.7491
vn -0.5460 0.5788 -0.6057
vn -0.6185 0.7850 0.0345
vn -0.0964 0.6554 -0.7491
vn -0.1744 0.2406 -0.9548
vn -0.5744 0.1294 -0.8083
vn -0.8566 0.2403 -0.4567
vn -0.8649 0.4084 -0.2917
vn -0.5460 0.5788 -0.6057
vn -0.8566 0.2403 -0.4567
vn -0.8385 -0.5434 0.0405
vn -0.9679 -0.1417 0.2077
vn -0.9357 0.2968 0.1909
vn -0.8578 0.5095 0.0677
vn -0.8649 0.4084 -0.2917
vn -0.9357 0.2968 0.1909
vn -0.6791 0.2396 0.6938
vn -0.4049 0.2318 0.8845
vn -0.3909 0.5567 0.7330
vn -0.6137 0.6878 0.3877
vn -0.8578 0.5095 0.0677
vn -0.3909 0.5567 0.7330
vn 0.2224 0.5934 0.7736
vn 0.6180 0.6413 0.4548
vn 0.0034 0.9997 0.0243
vn -0.6185 0.7850 0.0345
vn -0.6137 0.6878 0.3877
vn 0.2224 0.5934 0.7736
vn 0.3536 0.3081 0.8832
vn 0.6300 0.0405 0.7755
vn 0.7543 0.3244 0.5708
vn 0.8606 0.3886 0.3291
vn 0.6180 0.6413 0.4548
vn 0.7543 0.3244 0.5708
vn 0.9388 -0.2835 0.1955
vn 0.8944 -0.3892 -0.2205
vn 0.9709 0.2013 -0.1297
vn 0.8812 0.4430 -0.1651
vn 0.8606 0.3886 0.3291
vn 0.9709 0.2013 -0.1297
vn 0.7310 0.1203 -0.6716
vn 0.4730 0.3035 -0.8272
vn 0.2163 0.4237 -0.8796
vn 0.3238 0.7226 -0.6107
vn 0.8812 0.4430 -0.1651
vn -0.1744 0.2406 -0.9548
vn -0.0213 0.2954 -0.9552
vn 0.1819 -0.4088 -0.8943
vn -0.3082 -0.3855 -0.8697
vn -0.5095 -0.5381 -0.6715
vn -0.5744 0.1294 -0.8083
vn -0.0213 0.2954 -0.9552
vn 0.4730 0.3035 -0.8272
vn 0.7310 0.1203 -0.6716
vn 0.6590 -0.5209 -0.5426
vn 0.2829 -0.8607 -0.4232
vn 0.1819 -0.4088 -0.8943
vn 0.9388 -0.2835 0.1955
vn 0.4035 -0.8621 0.3066
vn -0.1611 -0.9869 0.0001
vn -0.1495 -0.9888 0.0010
vn 0.4668 -0.8665 -0.1770
vn 0.8944 -0.3892 -0.2205
vn -0.1495 -0.9888 0.0010
vn -0.1572 -0.9834 0.0905
vn -0.0435 -0.9940 0.1008
vn 0.2829 -0.8607 -0.4232
vn 0.6590 -0.5209 -0.5426
vn 0.4668 -0.8665 -0.1770
vn -0.3082 -0.3855 -0.8697
vn -0.0619 -0.9777 0.2006
vn 0.2339 -0.9112 0.3392
vn 0.1690 -0.9840 -0.0574
vn -0.7886 -0.2824 -0.5462
vn -0.5095 -0.5381 -0.6715
vn -0.0619 -0.9777 0.2006
vn -0.0435 -0.9940 0.1008
vn -0.1572 -0.9834 0.0905
vn -0.2127 -0.9769 0.0192
vn 0.1552 -0.9877 -0.0197
vn 0.2339 -0.9112 0.3392
vn 0.4035 -0.8621 0.3066
vn 0.4536 -0.5718 0.6836
vn 0.2743 -0.4137 0.8681
vn -0.0010 -0.9837 -0.1801
vn -0.1747 -0.9620 -0.2097
vn -0.1611 -0.9869 0.0001
vn -0.0010 -0.9837 -0.1801
vn 0.0605 -0.9737 -0.2195
vn 0.3237 -0.9128 -0.2490
vn 0.1552 -0.9877 -0.0197
vn -0.2127 -0.9769 0.0192
vn -0.1747 -0.9620 -0.2097
vn 0.1690 -0.9840 -0.0574
vn 0.0687 -0.9968 0.0402
vn -0.6560 -0.7513 0.0717
vn -0.9679 -0.1417 0.2077
vn -0.8385 -0.5434 0.0405
vn -0.7886 -0.2824 -0.5462
vn 0.0687 -0.9968 0.0402
vn 0.3237 -0.9128 -0.2490
vn 0.0605 -0.9737 -0.2195
vn -0.0424 -0.9990 0.0105
vn -0.6199 -0.4928 0.6107
vn -0.6560 -0.7513 0.0717
vn 0.4536 -0.5718 0.6836
vn 0.6300 0.0405 0.7755
vn 0.3536 0.3081 0.8832
vn -0.0350 -0.1543 0.9874
vn -0.1667 -0.7099 0.6843
vn 0.2743 -0.4137 0.8681
vn -0.0350 -0.1543 0.9874
vn -0.4049 0.2318 0.8845
vn -0.6791 0.2396 0.6938
vn -0.6199 -0.4928 0.6107
vn -0.0424 -0.9990 0.0105
vn -0.1667 -0.7099 0.6843
vn -0.5460 0.5788 -0.6057
vn -0.8649 0.4084 -0.2917
vn -0.8578 0.5095 0.0677
vn -0.6137 0.6878 0.3877
vn -0.6185 0.7850 0.0345
vn 0.6180 0.6413 0.4548
vn 0.8606 0.3886 0.3291
vn 0.8812 0.4430 -0.1651
vn 0.3238 0.7226 -0.6107
vn 0.0034 0.9997 0.0243
vn 0.2163 0.4237 -0.8796
vn 0.4730 0.3035 -0.8272
vn -0.0213 0.2954 -0.9552
vn -0.1744 0.2406 -0.9548
vn -0.0964 0.6554 -0.7491
vn 0.9709 0.2013 -0.1297
vn 0.8944 -0.3892 -0.2205
vn 0.4668 -0.8665 -0.1770
vn 0.6590 -0.5209 -0.5426
vn 0.7310 0.1203 -0.6716
vn 0.2829 -0.8607 -0.4232
vn -0.0435 -0.9940 0.1008
vn -0.0619 -0.9777 0.2006
vn -0.3082 -0.3855 -0.8697
vn 0.1819 -0.4088 -0.8943
vn -0.1495 -0.9888 0.0010
vn -0.1611 -0.9869 0.0001
vn -0.1747 -0.9620 -0.2097
vn -0.2127 -0.9769 0.0192
vn -0.1572 -0.9834 0.0905
vn 0.1552 -0.9877 -0.0197
vn 0.3237 -0.9128 -0.2490
vn 0.0687 -0.9968 0.0402
vn 0.1690 -0.9840 -0.0574
vn 0.2339 -0.9112 0.3392
vn -0.0010 -0.9837 -0.1801
vn 0.2743 -0.4137 0.8681
vn -0.1667 -0.7099 0.6843
vn -0.0424 -0.9990 0.0105
vn 0.0605 -0.9737 -0.2195
vn -0.6199 -0.4928 0.6107
vn -0.6791 0.2396 0.6938
vn -0.9357 0.2968 0.1909
vn -0.9679 -0.1417 0.2077
vn -0.6560 -0.7513 0.0717
vn -0.0350 -0.1543 0.9874
vn 0.3536 0.3081 0.8832
vn 0.2224 0.5934 0.7736
vn -0.3909 0.5567 0.7330
vn -0.4049 0.2318 0.8845
vn 0.6300 0.0405 0.7755
vn 0.4536 -0.5718 0.6836
vn 0.4035 -0.8621 0.3066
vn 0.9388 -0.2835 0.1955
vn 0.7543 0.3244 0.5708
vn -0.8566 0.2403 -0.4567
vn -0.5744 0.1294 -0.8083
vn -0.5095 -0.5381 -0.6715
vn -0.7886 -0.2824 -0.5462
vn -0.8385 -0.5434 0.0405
# 180 vertex normals

vt 0.6595 0.4340 0.0000
vt 0.6865 0.4069 0.0000
vt 0.7213 0.3965 0.0000
vt 0.7280 0.4211 0.0000
vt 0.7217 0.4415 0.0000
vt 0.6827 0.4546 0.0000
vt 0.7730 0.4177 0.0000
vt 0.7961 0.4369 0.0000
vt 0.7729 0.4559 0.0000
vt 0.7405 0.4585 0.0000
vt 0.8176 0.4878 0.0000
vt 0.8010 0.5127 0.0000
vt 0.7554 0.5028 0.0000
vt 0.7310 0.4822 0.0000
vt 0.7549 0.5384 0.0000
vt 0.7309 0.5495 0.0000
vt 0.6929 0.5031 0.0000
vt 0.6951 0.4729 0.0000
vt 0.6685 0.5115 0.0000
vt 0.6453 0.4854 0.0000
vt 0.6853 0.5643 0.0000
vt 0.6797 0.5908 0.0000
vt 0.6549 0.5857 0.0000
vt 0.6283 0.5396 0.0000
vt 0.7019 0.2910 0.0000
vt 0.7437 0.2751 0.0000
vt 0.7588 0.2954 0.0000
vt 0.7370 0.3290 0.0000
vt 0.7061 0.3540 0.0000
vt 0.6835 0.3378 0.0000
vt 0.7696 0.3501 0.0000
vt 0.7570 0.3756 0.0000
vt 0.7963 0.3863 0.0000
vt 0.8174 0.3777 0.0000
vt 0.8264 0.4077 0.0000
vt 0.8259 0.4374 0.0000
vt 0.7953 0.3357 0.0000
vt 0.8071 0.3532 0.0000
vt 0.8542 0.4312 0.0000
vt 0.8531 0.4161 0.0000
vt 0.8664 0.4159 0.0000
vt 0.8875 0.4301 0.0000
vt 0.8939 0.4398 0.0000
vt 0.8742 0.4396 0.0000
vt 0.9055 0.4162 0.0000
vt 0.9259 0.4197 0.0000
vt 0.9322 0.4362 0.0000
vt 0.9176 0.4436 0.0000
vt 0.9591 0.4049 0.0000
vt 0.9415 0.3998 0.0000
vt 0.9346 0.3798 0.0000
vt 0.9424 0.3593 0.0000
vt 0.9575 0.3602 0.0000
vt 0.9614 0.3824 0.0000
vt 0.8997 0.3902 0.0000
vt 0.9138 0.3742 0.0000
vt 0.8479 0.3910 0.0000
vt 0.8504 0.3765 0.0000
vt 0.8651 0.3747 0.0000
vt 0.8717 0.3932 0.0000
vt 0.8801 0.3541 0.0000
vt 0.9007 0.3562 0.0000
vt 0.9210 0.3441 0.0000
vt 0.9156 0.3352 0.0000
vt 0.9296 0.3329 0.0000
vt 0.9486 0.3457 0.0000
vt 0.8764 0.3444 0.0000
vt 0.8908 0.3287 0.0000
vt 0.6957 0.6140 0.0000
vt 0.7279 0.5777 0.0000
vt 0.7400 0.5907 0.0000
vt 0.7125 0.6076 0.0000
vt 0.7800 0.5575 0.0000
vt 0.7622 0.5789 0.0000
vt 0.6496 0.3835 0.0000
vt 0.7792 0.3101 0.0000
vt 0.9508 0.4272 0.0000
vt 0.8601 0.3532 0.0000
vt 0.8011 0.5310 0.0000
vt 0.6685 0.6282 0.0000
vt 0.6511 0.6293 0.0000
vt 0.8253 0.4670 0.0000
# 82 texture coords

o Object002
g Object002
usemtl PropsGames_lambert10SG
s 489
f 2/1/1 17/2/2 18/3/3 4/4/4 3/5/5 1/6/6 
s 490
f 4/4/7 19/7/8 20/8/9 6/9/10 5/10/11 3/5/12 
s 491
f 6/9/13 56/11/14 55/12/15 8/13/16 7/14/17 5/10/18 
s 492
f 8/13/19 57/15/20 58/16/21 10/17/22 9/18/23 7/14/24 
s 493
f 10/17/25 12/19/26 11/20/27 2/1/28 1/6/29 9/18/30 
s 494
f 12/19/31 59/21/32 60/22/33 14/23/34 13/24/35 11/20/36 
s 495
f 14/25/37 26/26/38 25/27/39 16/28/40 15/29/41 13/30/42 
s 496
f 16/28/43 24/31/44 23/32/45 18/3/46 17/2/47 15/29/48 
s 497
f 19/7/49 21/33/50 22/34/51 31/35/52 32/36/53 20/8/54 
s 498
f 21/33/55 23/32/56 24/31/57 29/37/58 30/38/59 22/34/60 
s 499
f 26/39/61 38/40/62 37/41/63 28/42/64 27/43/65 25/44/66 
s 500
f 28/42/67 36/45/68 35/46/69 30/47/70 29/48/71 27/43/72 
s 501
f 31/49/73 33/50/74 34/51/75 43/52/76 44/53/77 32/54/78 
s 502
f 33/50/79 35/46/80 36/45/81 41/55/82 42/56/83 34/51/84 
s 503
f 38/40/85 50/57/86 49/58/87 40/59/88 39/60/89 37/41/90 
s 504
f 40/59/91 48/61/92 47/62/93 42/56/94 41/55/95 39/60/96 
s 505
f 43/52/97 45/63/98 46/64/99 55/65/100 56/66/101 44/53/102 
s 506
f 45/63/103 47/62/104 48/61/105 53/67/106 54/68/107 46/64/108 
s 507
f 50/69/109 60/22/110 59/21/111 52/70/112 51/71/113 49/72/114 
s 508
f 52/70/115 58/16/116 57/15/117 54/73/118 53/74/119 51/71/120 
s 509
f 3/5/121 5/10/122 7/14/123 9/18/124 1/6/125 
s 510
f 11/75/126 13/30/127 15/29/128 17/2/129 2/1/130 
s 511
f 18/3/131 23/32/132 21/33/133 19/7/134 4/4/135 
s 512
f 16/28/136 25/27/137 27/76/138 29/37/139 24/31/140 
s 513
f 30/47/141 35/46/142 33/50/143 31/49/144 22/77/145 
s 514
f 28/42/146 37/41/147 39/60/148 41/55/149 36/45/150 
s 515
f 42/56/151 47/62/152 45/63/153 43/52/154 34/51/155 
s 516
f 40/59/156 49/58/157 51/78/158 53/67/159 48/61/160 
s 517
f 54/73/161 57/15/162 8/13/163 55/12/164 46/79/165 
s 518
f 52/70/166 59/21/167 12/19/168 10/17/169 58/16/170 
s 519
f 60/22/171 50/69/172 38/80/173 26/81/174 14/23/175 
s 520
f 6/9/176 20/8/177 32/36/178 44/82/179 56/11/180 
# 32 polygons

