# 3ds Max Wavefront OBJ Exporter v0.97b - (c)2007 guruware
# File Created: 23.04.2018 17:54:20

mtllib copaArbol2.mtl

#
# object Object001
#

v  -0.3841 23.5500 -18.9181
v  -2.9059 21.2757 -21.0784
v  -5.7008 19.8044 -18.5840
v  -4.9064 21.1693 -14.8820
v  -1.6205 23.4842 -15.0885
v  2.3146 23.4842 -15.9330
v  5.3959 21.1693 -17.0929
v  4.6015 19.8044 -20.7948
v  1.0292 21.2757 -21.9228
v  -4.2874 17.5302 -21.5887
v  -1.2061 15.2153 -22.7486
v  2.0798 17.5302 -22.9551
v  6.4464 17.4237 -18.1251
v  5.0649 13.6782 -18.6355
v  2.3661 13.7439 -21.6206
v  -4.0010 13.7439 -20.2542
v  -2.1561 11.3633 -17.5846
v  1.7790 11.3633 -18.4290
v  5.8593 15.0431 -14.9336
v  3.0644 13.5717 -12.4392
v  0.5426 11.2975 -14.5995
v  -5.2374 13.6782 -16.4247
v  -4.4430 15.0431 -12.7227
v  -0.8707 13.5717 -11.5947
v  4.4459 17.3173 -11.9288
v  1.3647 19.6322 -10.7689
v  -1.9212 17.3173 -10.5624
v  -6.2879 17.4237 -15.3924
v  -2.2076 21.1035 -11.8970
v  4.1596 21.1035 -13.2633
# 30 vertices

vn -0.0712 0.9407 -0.3316
vn 0.1459 0.5915 -0.7930
vn -0.4584 0.5915 -0.6633
vn -0.4584 0.5915 -0.6633
vn -0.6705 0.0163 -0.7417
vn -0.8876 0.3656 -0.2803
vn -0.8876 0.3656 -0.2803
vn -0.9777 0.0000 0.2098
vn -0.7656 0.5752 0.2882
vn -0.7656 0.5752 0.2882
vn -0.3512 0.5651 0.7466
vn -0.2610 0.9306 0.2565
vn -0.2610 0.9306 0.2565
vn 0.3433 0.9306 0.1268
vn -0.0712 0.9407 -0.3316
vn 0.3433 0.9306 0.1268
vn 0.6266 0.5651 0.5368
vn 0.8164 0.5752 -0.0513
vn 0.8164 0.5752 -0.0513
vn 0.9777 0.0000 -0.2098
vn 0.6944 0.3656 -0.6198
vn 0.6944 0.3656 -0.6198
vn 0.3072 0.0163 -0.9515
vn 0.1459 0.5915 -0.7930
vn -0.1974 -0.3391 -0.9198
vn -0.6266 -0.5651 -0.5368
vn -0.6705 0.0163 -0.7417
vn 0.3072 0.0163 -0.9515
vn 0.3512 -0.5651 -0.7466
vn -0.1974 -0.3391 -0.9198
vn 0.9777 0.0000 -0.2098
vn 0.8876 -0.3656 0.2803
vn 0.7656 -0.5752 -0.2882
vn 0.7656 -0.5752 -0.2882
vn 0.2610 -0.9306 -0.2565
vn 0.3512 -0.5651 -0.7466
vn -0.3433 -0.9306 -0.1268
vn -0.8164 -0.5752 0.0513
vn -0.6266 -0.5651 -0.5368
vn 0.2610 -0.9306 -0.2565
vn 0.0712 -0.9407 0.3316
vn -0.3433 -0.9306 -0.1268
vn 0.8876 -0.3656 0.2803
vn 0.6705 -0.0163 0.7417
vn 0.4584 -0.5915 0.6633
vn 0.4584 -0.5915 0.6633
vn -0.1459 -0.5915 0.7930
vn 0.0712 -0.9407 0.3316
vn -0.6944 -0.3656 0.6198
vn -0.9777 0.0000 0.2098
vn -0.8164 -0.5752 0.0513
vn -0.1459 -0.5915 0.7930
vn -0.3072 -0.0163 0.9515
vn -0.6944 -0.3656 0.6198
vn 0.6705 -0.0163 0.7417
vn 0.6266 0.5651 0.5368
vn 0.1974 0.3391 0.9198
vn 0.1974 0.3391 0.9198
vn -0.3512 0.5651 0.7466
vn -0.3072 -0.0163 0.9515
vn -0.4584 0.5915 -0.6633
vn -0.8876 0.3656 -0.2803
vn -0.7656 0.5752 0.2882
vn -0.4584 0.5915 -0.6633
vn -0.7656 0.5752 0.2882
vn -0.2610 0.9306 0.2565
vn -0.4584 0.5915 -0.6633
vn -0.2610 0.9306 0.2565
vn -0.0712 0.9407 -0.3316
vn 0.3433 0.9306 0.1268
vn 0.8164 0.5752 -0.0513
vn 0.6944 0.3656 -0.6198
vn 0.3433 0.9306 0.1268
vn 0.6944 0.3656 -0.6198
vn 0.1459 0.5915 -0.7930
vn 0.3433 0.9306 0.1268
vn 0.1459 0.5915 -0.7930
vn -0.0712 0.9407 -0.3316
vn 0.1459 0.5915 -0.7930
vn 0.3072 0.0163 -0.9515
vn -0.1974 -0.3391 -0.9198
vn 0.1459 0.5915 -0.7930
vn -0.1974 -0.3391 -0.9198
vn -0.6705 0.0163 -0.7417
vn 0.1459 0.5915 -0.7930
vn -0.6705 0.0163 -0.7417
vn -0.4584 0.5915 -0.6633
vn 0.6944 0.3656 -0.6198
vn 0.9777 0.0000 -0.2098
vn 0.7656 -0.5752 -0.2882
vn 0.6944 0.3656 -0.6198
vn 0.7656 -0.5752 -0.2882
vn 0.3512 -0.5651 -0.7466
vn 0.6944 0.3656 -0.6198
vn 0.3512 -0.5651 -0.7466
vn 0.3072 0.0163 -0.9515
vn 0.3512 -0.5651 -0.7466
vn 0.2610 -0.9306 -0.2565
vn -0.3433 -0.9306 -0.1268
vn 0.3512 -0.5651 -0.7466
vn -0.3433 -0.9306 -0.1268
vn -0.6266 -0.5651 -0.5368
vn 0.3512 -0.5651 -0.7466
vn -0.6266 -0.5651 -0.5368
vn -0.1974 -0.3391 -0.9198
vn 0.7656 -0.5752 -0.2882
vn 0.8876 -0.3656 0.2803
vn 0.4584 -0.5915 0.6633
vn 0.7656 -0.5752 -0.2882
vn 0.4584 -0.5915 0.6633
vn 0.0712 -0.9407 0.3316
vn 0.7656 -0.5752 -0.2882
vn 0.0712 -0.9407 0.3316
vn 0.2610 -0.9306 -0.2565
vn 0.0712 -0.9407 0.3316
vn -0.1459 -0.5915 0.7930
vn -0.6944 -0.3656 0.6198
vn 0.0712 -0.9407 0.3316
vn -0.6944 -0.3656 0.6198
vn -0.8164 -0.5752 0.0513
vn 0.0712 -0.9407 0.3316
vn -0.8164 -0.5752 0.0513
vn -0.3433 -0.9306 -0.1268
vn 0.4584 -0.5915 0.6633
vn 0.6705 -0.0163 0.7417
vn 0.1974 0.3391 0.9198
vn 0.4584 -0.5915 0.6633
vn 0.1974 0.3391 0.9198
vn -0.3072 -0.0163 0.9515
vn 0.4584 -0.5915 0.6633
vn -0.3072 -0.0163 0.9515
vn -0.1459 -0.5915 0.7930
vn -0.3072 -0.0163 0.9515
vn -0.3512 0.5651 0.7466
vn -0.7656 0.5752 0.2882
vn -0.3072 -0.0163 0.9515
vn -0.7656 0.5752 0.2882
vn -0.9777 0.0000 0.2098
vn -0.3072 -0.0163 0.9515
vn -0.9777 0.0000 0.2098
vn -0.6944 -0.3656 0.6198
vn 0.1974 0.3391 0.9198
vn 0.6266 0.5651 0.5368
vn 0.3433 0.9306 0.1268
vn 0.1974 0.3391 0.9198
vn 0.3433 0.9306 0.1268
vn -0.2610 0.9306 0.2565
vn 0.1974 0.3391 0.9198
vn -0.2610 0.9306 0.2565
vn -0.3512 0.5651 0.7466
vn 0.6266 0.5651 0.5368
vn 0.6705 -0.0163 0.7417
vn 0.8876 -0.3656 0.2803
vn 0.6266 0.5651 0.5368
vn 0.8876 -0.3656 0.2803
vn 0.9777 0.0000 -0.2098
vn 0.6266 0.5651 0.5368
vn 0.9777 0.0000 -0.2098
vn 0.8164 0.5752 -0.0513
vn -0.8876 0.3656 -0.2803
vn -0.6705 0.0163 -0.7417
vn -0.6266 -0.5651 -0.5368
vn -0.8876 0.3656 -0.2803
vn -0.6266 -0.5651 -0.5368
vn -0.8164 -0.5752 0.0513
vn -0.8876 0.3656 -0.2803
vn -0.8164 -0.5752 0.0513
vn -0.9777 0.0000 0.2098
# 168 vertex normals

vt 0.1358 0.4039 0.0000
vt 0.1991 0.4053 0.0000
vt 0.1777 0.4195 0.0000
vt 0.1822 0.4552 0.0000
vt 0.1673 0.4489 0.0000
vt 0.1587 0.4721 0.0000
vt 0.1460 0.4507 0.0000
vt 0.1259 0.4587 0.0000
vt 0.1310 0.4313 0.0000
vt 0.1069 0.4278 0.0000
vt 0.1020 0.4570 0.0000
vt 0.0796 0.4451 0.0000
vt 0.0557 0.4646 0.0000
vt 0.0554 0.4334 0.0000
vt 0.0295 0.4251 0.0000
vt 0.0724 0.3959 0.0000
vt 0.2034 0.4675 0.0000
vt 0.1782 0.4902 0.0000
vt 0.2257 0.4471 0.0000
vt 0.2247 0.4942 0.0000
vt 0.0657 0.4908 0.0000
vt 0.0434 0.4921 0.0000
vt 0.0406 0.5197 0.0000
vt 0.0152 0.4745 0.0000
vt 0.1644 0.5227 0.0000
vt 0.1481 0.5004 0.0000
vt 0.2181 0.3970 0.0000
vt 0.2820 0.3748 0.0000
vt 0.2693 0.4413 0.0000
vt 0.0893 0.4847 0.0000
vt 0.0854 0.5147 0.0000
vt 0.1104 0.5098 0.0000
vt 0.0972 0.5376 0.0000
vt 0.1337 0.4923 0.0000
vt 0.1168 0.4845 0.0000
vt 0.1095 0.4741 0.0000
vt 0.2035 0.5260 0.0000
# 37 texture coords

o Object001
g Object001
usemtl PropsGames_blinn1SG
s 585
f 1/1/1 9/2/2 2/3/3 
s 586
f 2/3/4 10/4/5 3/5/6 
s 587
f 3/5/7 28/6/8 4/7/9 
s 588
f 4/7/10 29/8/11 5/9/12 
s 589
f 5/9/13 6/10/14 1/1/15 
s 590
f 6/10/16 30/11/17 7/12/18 
s 591
f 7/12/19 13/13/20 8/14/21 
s 592
f 8/14/22 12/15/23 9/16/24 
s 593
f 11/17/25 16/18/26 10/4/27 
s 594
f 12/19/28 15/20/29 11/17/30 
s 595
f 13/13/31 19/21/32 14/22/33 
s 596
f 14/22/34 18/23/35 15/24/36 
s 597
f 17/25/37 22/26/38 16/18/39 
s 598
f 18/27/40 21/28/41 17/29/42 
s 599
f 19/21/43 25/30/44 20/31/45 
s 600
f 20/31/46 24/32/47 21/33/48 
s 601
f 23/34/49 28/6/50 22/26/51 
s 602
f 24/32/52 27/35/53 23/34/54 
s 603
f 25/30/55 30/11/56 26/36/57 
s 604
f 26/36/58 29/8/59 27/35/60 
s 605
f 2/3/61 3/5/62 4/7/63 
f 2/3/64 4/7/65 5/9/66 
f 2/3/67 5/9/68 1/1/69 
s 606
f 6/10/70 7/12/71 8/14/72 
f 6/10/73 8/14/74 9/16/75 
f 6/10/76 9/16/77 1/1/78 
s 607
f 9/2/79 12/19/80 11/17/81 
f 9/2/82 11/17/83 10/4/84 
f 9/2/85 10/4/86 2/3/87 
s 608
f 8/14/88 13/13/89 14/22/90 
f 8/14/91 14/22/92 15/24/93 
f 8/14/94 15/24/95 12/15/96 
s 609
f 15/20/97 18/37/98 17/25/99 
f 15/20/100 17/25/101 16/18/102 
f 15/20/103 16/18/104 11/17/105 
s 610
f 14/22/106 19/21/107 20/31/108 
f 14/22/109 20/31/110 21/33/111 
f 14/22/112 21/33/113 18/23/114 
s 611
f 21/33/115 24/32/116 23/34/117 
f 21/33/118 23/34/119 22/26/120 
f 21/33/121 22/26/122 17/25/123 
s 612
f 20/31/124 25/30/125 26/36/126 
f 20/31/127 26/36/128 27/35/129 
f 20/31/130 27/35/131 24/32/132 
s 613
f 27/35/133 29/8/134 4/7/135 
f 27/35/136 4/7/137 28/6/138 
f 27/35/139 28/6/140 23/34/141 
s 614
f 26/36/142 30/11/143 6/10/144 
f 26/36/145 6/10/146 5/9/147 
f 26/36/148 5/9/149 29/8/150 
s 615
f 30/11/151 25/30/152 19/21/153 
f 30/11/154 19/21/155 13/13/156 
f 30/11/157 13/13/158 7/12/159 
s 616
f 3/5/160 10/4/161 16/18/162 
f 3/5/163 16/18/164 22/26/165 
f 3/5/166 22/26/167 28/6/168 
# 0 polygons - 56 triangles

