# 3ds Max Wavefront OBJ Exporter v0.97b - (c)2007 guruware
# File Created: 23.04.2018 17:49:41

mtllib piedra4.mtl

#
# object polySurface3
#

v  -2.8187 0.1432 -68.4382
v  -2.9793 0.0516 -66.0838
v  -4.7677 0.1027 -66.2929
v  -4.4080 0.3194 -68.3507
v  -2.4118 1.4127 -68.3301
v  -3.2716 1.1787 -65.6343
v  -4.7354 1.4289 -66.1247
v  -4.3975 1.8264 -68.9561
v  -2.6702 0.0490 -67.3954
v  -3.6483 0.3525 -68.2284
v  -2.5152 0.8355 -68.5609
v  -3.8702 0.0209 -65.9426
v  -2.5603 0.5946 -65.7630
v  -4.8102 0.0506 -67.5329
v  -5.3637 0.6458 -66.4344
v  -4.9013 1.0124 -68.6724
v  -2.7402 1.6093 -67.1767
v  -3.6103 1.7046 -69.0231
v  -4.0604 1.2883 -65.4436
v  -4.8927 1.8569 -67.3422
v  -3.7314 -0.0112 -67.3949
v  -3.6695 1.9859 -67.5619
v  -2.5404 0.9558 -67.0365
v  -3.4555 0.6029 -65.7799
v  -5.3645 0.7959 -67.4795
v  -3.9154 0.8322 -69.0578
v  -2.7067 0.0329 -66.7144
v  -4.0371 0.3971 -68.1786
v  -2.3298 1.0850 -68.4983
v  -4.2535 0.0941 -66.0431
v  -2.7793 0.8029 -65.7155
v  -4.5780 0.1593 -68.0152
v  -4.9972 1.0768 -66.0182
v  -4.6901 1.5291 -68.9423
v  -2.9071 1.5720 -66.2644
v  -3.8906 1.6997 -69.2627
v  -4.3259 1.3599 -65.8649
v  -5.0716 1.8568 -68.1535
v  -2.6736 0.0334 -67.9393
v  -3.2466 0.1945 -68.4400
v  -2.6343 0.4390 -68.6445
v  -3.4720 -0.0121 -65.9664
v  -2.7010 0.2989 -65.8308
v  -4.8713 0.0012 -66.8598
v  -5.2869 0.2872 -66.5229
v  -4.7789 0.5240 -68.5582
v  -2.4836 1.5746 -67.8675
v  -2.9451 1.5949 -68.6671
v  -3.7809 1.2288 -65.3669
v  -4.8920 1.6566 -66.6350
v  -4.1918 0.0513 -67.4094
v  -3.2352 -0.0556 -67.4028
v  -3.5428 0.1792 -67.9274
v  -3.8219 -0.0650 -66.6397
v  -3.9136 1.7759 -66.5951
v  -3.6526 1.9596 -68.3822
v  -3.1041 1.8692 -67.5671
v  -4.3189 1.9647 -67.3333
v  -2.4481 0.7696 -66.1437
v  -2.4485 0.9050 -67.9783
v  -2.4467 0.4613 -67.2891
v  -2.6647 1.3812 -67.0101
v  -4.7592 0.5628 -65.9262
v  -3.0486 0.5654 -65.6904
v  -3.8507 0.2804 -65.6517
v  -3.7825 0.7887 -65.5504
v  -5.4755 0.6873 -68.2165
v  -5.3621 0.7377 -66.8796
v  -5.2640 0.1235 -67.6924
v  -5.1986 1.5401 -67.3274
v  -4.4911 1.0539 -68.9472
v  -3.1593 0.8633 -68.9287
v  -3.5624 1.3169 -69.2951
v  -3.8961 0.5258 -68.7475
v  -4.3465 -0.0026 -66.6801
v  -4.3935 1.7301 -66.5494
v  -2.5997 1.2380 -66.1760
v  -4.6601 0.9130 -65.8123
v  -5.4350 1.3978 -68.1637
v  -4.4666 0.6506 -68.6687
v  -4.0753 0.1801 -68.0555
v  -3.1675 0.0058 -68.0166
v  -3.3321 -0.1118 -66.6768
v  -3.3728 1.6652 -66.3162
v  -2.9140 1.8322 -68.0239
v  -4.2598 2.0248 -68.3042
v  -2.3679 0.3218 -66.4151
v  -2.3918 0.3502 -68.1552
v  -2.2921 1.1854 -67.9830
v  -4.4223 0.3347 -65.8452
v  -3.2213 0.2755 -65.7422
v  -3.1914 0.8364 -65.7306
v  -5.0620 0.2818 -68.3223
v  -5.2660 0.2495 -66.8428
v  -5.1499 1.3172 -66.5408
v  -3.9788 1.4819 -69.2048
v  -2.9136 1.2573 -68.9188
v  -3.2029 0.5018 -68.6249
# 98 vertices

vn -0.0898 -0.9952 0.0384
vn -0.2540 -0.8698 0.4230
vn -0.3370 -0.8726 0.3534
vn -0.2262 -0.9707 0.0810
vn -0.1359 0.9266 0.3507
vn -0.4535 0.8102 0.3713
vn -0.4162 0.6715 0.6131
vn -0.3478 0.6094 0.7125
vn 0.7990 0.4925 0.3450
vn 0.4915 0.7750 0.3973
vn 0.3680 0.4391 0.8196
vn 0.4272 0.2157 0.8780
vn -0.4592 -0.0849 0.8843
vn -0.3478 0.6094 0.7125
vn -0.4162 0.6715 0.6131
vn -0.6962 0.3382 0.6332
vn -0.8832 0.3828 -0.2710
vn -0.4696 0.8659 -0.1723
vn -0.4358 0.6309 -0.6419
vn -0.5685 0.1487 -0.8091
vn -0.1612 -0.7100 -0.6855
vn 0.0660 -0.8110 -0.5814
vn 0.1542 -0.7644 -0.6260
vn -0.1460 -0.5898 -0.7942
vn 0.0537 -0.8952 -0.4424
vn -0.0236 -0.9873 -0.1572
vn -0.0970 -0.9873 -0.1259
vn 0.0413 -0.9122 -0.4077
vn -0.1561 -0.9599 -0.2330
vn -0.0068 -0.9944 -0.1052
vn -0.1261 -0.9759 -0.1781
vn -0.1907 -0.9002 -0.3915
vn 0.0581 -0.9976 0.0382
vn 0.0968 -0.8999 0.4252
vn -0.1289 -0.8949 0.4273
vn -0.1168 -0.9929 0.0205
vn 0.1803 0.9236 0.3383
vn -0.0036 0.9465 0.3228
vn -0.1909 0.4685 0.8626
vn 0.1932 0.3653 0.9106
vn 0.3855 0.9137 -0.1283
vn 0.1709 0.9715 -0.1645
vn 0.0951 0.9886 0.1169
vn 0.2837 0.9507 0.1250
vn -0.0388 0.9907 -0.1302
vn -0.4696 0.8659 -0.1723
vn -0.4889 0.8549 0.1735
vn -0.0839 0.9856 0.1467
vn 0.9010 -0.4123 0.1349
vn 0.9591 0.1771 0.2208
vn 0.5483 -0.0278 0.8358
vn 0.5013 -0.5998 0.6236
vn 0.9376 -0.3184 -0.1397
vn 0.9923 -0.1235 0.0103
vn 0.9879 0.1440 0.0573
vn 0.9743 -0.2251 0.0038
vn 0.9910 0.0513 0.1240
vn 0.7488 0.6625 0.0165
vn 0.6491 0.7392 0.1797
vn 0.9344 0.3212 0.1543
vn -0.4106 -0.3939 0.8224
vn -0.4239 -0.2165 0.8794
vn -0.8714 -0.1225 0.4751
vn -0.6847 -0.5959 0.4197
vn 0.1135 -0.4385 0.8915
vn 0.0828 -0.1101 0.9905
vn -0.0650 -0.1086 0.9920
vn -0.1159 -0.2713 0.9555
vn 0.1263 -0.2187 0.9676
vn 0.1932 0.3653 0.9106
vn -0.1909 0.4685 0.8626
vn -0.1305 -0.3401 0.9313
vn -0.4272 -0.7432 -0.5150
vn -0.8912 -0.1703 -0.4203
vn -0.4949 -0.2241 -0.8396
vn -0.1460 -0.5898 -0.7942
vn -0.7870 -0.6149 0.0501
vn -0.9954 0.0541 0.0792
vn -0.9967 -0.0583 0.0560
vn -0.6820 -0.7262 -0.0864
vn -0.8379 0.4779 0.2639
vn -0.4535 0.8102 0.3713
vn -0.4889 0.8549 0.1735
vn -0.8874 0.4313 0.1627
vn -0.2248 0.0178 -0.9742
vn -0.3472 -0.3703 -0.8616
vn -0.4949 -0.2241 -0.8396
vn -0.5685 0.1487 -0.8091
vn 0.5180 0.1096 -0.8483
vn 0.2987 -0.4244 -0.8548
vn -0.0420 -0.5168 -0.8551
vn 0.2134 0.0562 -0.9753
vn 0.0297 -0.6148 -0.7881
vn -0.1914 -0.8313 -0.5218
vn -0.2148 -0.8647 -0.4540
vn -0.1458 -0.8003 -0.5816
vn -0.0236 -0.9873 -0.1572
vn -0.0898 -0.9952 0.0384
vn -0.2262 -0.9707 0.0810
vn -0.0970 -0.9873 -0.1259
vn -0.1261 -0.9759 -0.1781
vn -0.1168 -0.9929 0.0205
vn -0.0898 -0.9952 0.0384
vn -0.0236 -0.9873 -0.1572
vn -0.1168 -0.9929 0.0205
vn -0.1289 -0.8949 0.4273
vn -0.2540 -0.8698 0.4230
vn -0.0898 -0.9952 0.0384
vn -0.0036 0.9465 0.3228
vn -0.1359 0.9266 0.3507
vn -0.3478 0.6094 0.7125
vn -0.1909 0.4685 0.8626
vn 0.0951 0.9886 0.1169
vn -0.0839 0.9856 0.1467
vn -0.1359 0.9266 0.3507
vn -0.0036 0.9465 0.3228
vn -0.0839 0.9856 0.1467
vn -0.4889 0.8549 0.1735
vn -0.4535 0.8102 0.3713
vn -0.1359 0.9266 0.3507
vn 0.9591 0.1771 0.2208
vn 0.7990 0.4925 0.3450
vn 0.4272 0.2157 0.8780
vn 0.5483 -0.0278 0.8358
vn 0.9879 0.1440 0.0573
vn 0.9344 0.3212 0.1543
vn 0.7990 0.4925 0.3450
vn 0.9591 0.1771 0.2208
vn 0.9344 0.3212 0.1543
vn 0.6491 0.7392 0.1797
vn 0.4915 0.7750 0.3973
vn 0.7990 0.4925 0.3450
vn -0.4239 -0.2165 0.8794
vn -0.4592 -0.0849 0.8843
vn -0.6962 0.3382 0.6332
vn -0.8714 -0.1225 0.4751
vn -0.0650 -0.1086 0.9920
vn -0.1305 -0.3401 0.9313
vn -0.4592 -0.0849 0.8843
vn -0.4239 -0.2165 0.8794
vn -0.1305 -0.3401 0.9313
vn -0.1909 0.4685 0.8626
vn -0.3478 0.6094 0.7125
vn -0.4592 -0.0849 0.8843
vn -0.8912 -0.1703 -0.4203
vn -0.8832 0.3828 -0.2710
vn -0.5685 0.1487 -0.8091
vn -0.4949 -0.2241 -0.8396
vn -0.9967 -0.0583 0.0560
vn -0.8874 0.4313 0.1627
vn -0.8832 0.3828 -0.2710
vn -0.8912 -0.1703 -0.4203
vn -0.8874 0.4313 0.1627
vn -0.4889 0.8549 0.1735
vn -0.4696 0.8659 -0.1723
vn -0.8832 0.3828 -0.2710
vn -0.3472 -0.3703 -0.8616
vn -0.1612 -0.7100 -0.6855
vn -0.1460 -0.5898 -0.7942
vn -0.4949 -0.2241 -0.8396
vn -0.0420 -0.5168 -0.8551
vn -0.1458 -0.8003 -0.5816
vn -0.1612 -0.7100 -0.6855
vn -0.3472 -0.3703 -0.8616
vn -0.1458 -0.8003 -0.5816
vn -0.2148 -0.8647 -0.4540
vn 0.0660 -0.8110 -0.5814
vn -0.1612 -0.7100 -0.6855
vn 0.0660 -0.8110 -0.5814
vn 0.0537 -0.8952 -0.4424
vn 0.0413 -0.9122 -0.4077
vn 0.1542 -0.7644 -0.6260
vn -0.2148 -0.8647 -0.4540
vn -0.1907 -0.9002 -0.3915
vn 0.0537 -0.8952 -0.4424
vn 0.0660 -0.8110 -0.5814
vn -0.1907 -0.9002 -0.3915
vn -0.1261 -0.9759 -0.1781
vn -0.0236 -0.9873 -0.1572
vn 0.0537 -0.8952 -0.4424
vn -0.1914 -0.8313 -0.5218
vn -0.1561 -0.9599 -0.2330
vn -0.1907 -0.9002 -0.3915
vn -0.2148 -0.8647 -0.4540
vn 0.1916 -0.8033 -0.5639
vn 0.4271 -0.8870 -0.1756
vn -0.1561 -0.9599 -0.2330
vn -0.1914 -0.8313 -0.5218
vn 0.4271 -0.8870 -0.1756
vn 0.5305 -0.8475 -0.0174
vn -0.0068 -0.9944 -0.1052
vn -0.1561 -0.9599 -0.2330
vn -0.0068 -0.9944 -0.1052
vn 0.0581 -0.9976 0.0382
vn -0.1168 -0.9929 0.0205
vn -0.1261 -0.9759 -0.1781
vn 0.5305 -0.8475 -0.0174
vn 0.4502 -0.8898 0.0744
vn 0.0581 -0.9976 0.0382
vn -0.0068 -0.9944 -0.1052
vn 0.4502 -0.8898 0.0744
vn 0.3093 -0.8825 0.3542
vn 0.0968 -0.8999 0.4252
vn 0.0581 -0.9976 0.0382
vn 0.4915 0.7750 0.3973
vn 0.1803 0.9236 0.3383
vn 0.1932 0.3653 0.9106
vn 0.3680 0.4391 0.8196
vn 0.6491 0.7392 0.1797
vn 0.2837 0.9507 0.1250
vn 0.1803 0.9236 0.3383
vn 0.4915 0.7750 0.3973
vn 0.2837 0.9507 0.1250
vn 0.0951 0.9886 0.1169
vn -0.0036 0.9465 0.3228
vn 0.1803 0.9236 0.3383
vn 0.7488 0.6625 0.0165
vn 0.3855 0.9137 -0.1283
vn 0.2837 0.9507 0.1250
vn 0.6491 0.7392 0.1797
vn 0.7189 0.6019 -0.3477
vn 0.4875 0.7135 -0.5032
vn 0.3855 0.9137 -0.1283
vn 0.7488 0.6625 0.0165
vn 0.4875 0.7135 -0.5032
vn 0.3155 0.7265 -0.6105
vn 0.1709 0.9715 -0.1645
vn 0.3855 0.9137 -0.1283
vn 0.1709 0.9715 -0.1645
vn -0.0388 0.9907 -0.1302
vn -0.0839 0.9856 0.1467
vn 0.0951 0.9886 0.1169
vn 0.3155 0.7265 -0.6105
vn -0.0393 0.7037 -0.7095
vn -0.0388 0.9907 -0.1302
vn 0.1709 0.9715 -0.1645
vn -0.0393 0.7037 -0.7095
vn -0.4358 0.6309 -0.6419
vn -0.4696 0.8659 -0.1723
vn -0.0388 0.9907 -0.1302
vn 0.4502 -0.8898 0.0744
vn 0.9010 -0.4123 0.1349
vn 0.5013 -0.5998 0.6236
vn 0.3093 -0.8825 0.3542
vn 0.5305 -0.8475 -0.0174
vn 0.9743 -0.2251 0.0038
vn 0.9010 -0.4123 0.1349
vn 0.4502 -0.8898 0.0744
vn 0.9743 -0.2251 0.0038
vn 0.9879 0.1440 0.0573
vn 0.9591 0.1771 0.2208
vn 0.9010 -0.4123 0.1349
vn 0.4271 -0.8870 -0.1756
vn 0.9376 -0.3184 -0.1397
vn 0.9743 -0.2251 0.0038
vn 0.5305 -0.8475 -0.0174
vn 0.1916 -0.8033 -0.5639
vn 0.5143 -0.4602 -0.7237
vn 0.9376 -0.3184 -0.1397
vn 0.4271 -0.8870 -0.1756
vn 0.5143 -0.4602 -0.7237
vn 0.7412 -0.3174 -0.5915
vn 0.9923 -0.1235 0.0103
vn 0.9376 -0.3184 -0.1397
vn 0.9923 -0.1235 0.0103
vn 0.9910 0.0513 0.1240
vn 0.9344 0.3212 0.1543
vn 0.9879 0.1440 0.0573
vn 0.7412 -0.3174 -0.5915
vn 0.8800 0.0307 -0.4740
vn 0.9910 0.0513 0.1240
vn 0.9923 -0.1235 0.0103
vn 0.8800 0.0307 -0.4740
vn 0.7189 0.6019 -0.3477
vn 0.7488 0.6625 0.0165
vn 0.9910 0.0513 0.1240
vn -0.2540 -0.8698 0.4230
vn -0.4106 -0.3939 0.8224
vn -0.6847 -0.5959 0.4197
vn -0.3370 -0.8726 0.3534
vn -0.1289 -0.8949 0.4273
vn -0.1159 -0.2713 0.9555
vn -0.4106 -0.3939 0.8224
vn -0.2540 -0.8698 0.4230
vn -0.1159 -0.2713 0.9555
vn -0.0650 -0.1086 0.9920
vn -0.4239 -0.2165 0.8794
vn -0.4106 -0.3939 0.8224
vn 0.0968 -0.8999 0.4252
vn 0.1135 -0.4385 0.8915
vn -0.1159 -0.2713 0.9555
vn -0.1289 -0.8949 0.4273
vn 0.3093 -0.8825 0.3542
vn 0.5013 -0.5998 0.6236
vn 0.1135 -0.4385 0.8915
vn 0.0968 -0.8999 0.4252
vn 0.5013 -0.5998 0.6236
vn 0.5483 -0.0278 0.8358
vn 0.0828 -0.1101 0.9905
vn 0.1135 -0.4385 0.8915
vn 0.0828 -0.1101 0.9905
vn 0.1263 -0.2187 0.9676
vn -0.1305 -0.3401 0.9313
vn -0.0650 -0.1086 0.9920
vn 0.5483 -0.0278 0.8358
vn 0.4272 0.2157 0.8780
vn 0.1263 -0.2187 0.9676
vn 0.0828 -0.1101 0.9905
vn 0.4272 0.2157 0.8780
vn 0.3680 0.4391 0.8196
vn 0.1932 0.3653 0.9106
vn 0.1263 -0.2187 0.9676
vn 0.0413 -0.9122 -0.4077
vn -0.4272 -0.7432 -0.5150
vn -0.1460 -0.5898 -0.7942
vn 0.1542 -0.7644 -0.6260
vn -0.0970 -0.9873 -0.1259
vn -0.6820 -0.7262 -0.0864
vn -0.4272 -0.7432 -0.5150
vn 0.0413 -0.9122 -0.4077
vn -0.6820 -0.7262 -0.0864
vn -0.9967 -0.0583 0.0560
vn -0.8912 -0.1703 -0.4203
vn -0.4272 -0.7432 -0.5150
vn -0.2262 -0.9707 0.0810
vn -0.7870 -0.6149 0.0501
vn -0.6820 -0.7262 -0.0864
vn -0.0970 -0.9873 -0.1259
vn -0.3370 -0.8726 0.3534
vn -0.6847 -0.5959 0.4197
vn -0.7870 -0.6149 0.0501
vn -0.2262 -0.9707 0.0810
vn -0.6847 -0.5959 0.4197
vn -0.8714 -0.1225 0.4751
vn -0.9954 0.0541 0.0792
vn -0.7870 -0.6149 0.0501
vn -0.9954 0.0541 0.0792
vn -0.8379 0.4779 0.2639
vn -0.8874 0.4313 0.1627
vn -0.9967 -0.0583 0.0560
vn -0.8714 -0.1225 0.4751
vn -0.6962 0.3382 0.6332
vn -0.8379 0.4779 0.2639
vn -0.9954 0.0541 0.0792
vn -0.6962 0.3382 0.6332
vn -0.4162 0.6715 0.6131
vn -0.4535 0.8102 0.3713
vn -0.8379 0.4779 0.2639
vn -0.0393 0.7037 -0.7095
vn -0.2248 0.0178 -0.9742
vn -0.5685 0.1487 -0.8091
vn -0.4358 0.6309 -0.6419
vn 0.3155 0.7265 -0.6105
vn 0.2134 0.0562 -0.9753
vn -0.2248 0.0178 -0.9742
vn -0.0393 0.7037 -0.7095
vn 0.2134 0.0562 -0.9753
vn -0.0420 -0.5168 -0.8551
vn -0.3472 -0.3703 -0.8616
vn -0.2248 0.0178 -0.9742
vn 0.4875 0.7135 -0.5032
vn 0.5180 0.1096 -0.8483
vn 0.2134 0.0562 -0.9753
vn 0.3155 0.7265 -0.6105
vn 0.7189 0.6019 -0.3477
vn 0.8800 0.0307 -0.4740
vn 0.5180 0.1096 -0.8483
vn 0.4875 0.7135 -0.5032
vn 0.8800 0.0307 -0.4740
vn 0.7412 -0.3174 -0.5915
vn 0.2987 -0.4244 -0.8548
vn 0.5180 0.1096 -0.8483
vn 0.2987 -0.4244 -0.8548
vn 0.0297 -0.6148 -0.7881
vn -0.1458 -0.8003 -0.5816
vn -0.0420 -0.5168 -0.8551
vn 0.7412 -0.3174 -0.5915
vn 0.5143 -0.4602 -0.7237
vn 0.0297 -0.6148 -0.7881
vn 0.2987 -0.4244 -0.8548
vn 0.5143 -0.4602 -0.7237
vn 0.1916 -0.8033 -0.5639
vn -0.1914 -0.8313 -0.5218
vn 0.0297 -0.6148 -0.7881
# 384 vertex normals

vt 0.0690 0.0588 0.0000
vt 0.0851 0.0484 0.0000
vt 0.0849 0.0651 0.0000
vt 0.0709 0.0749 0.0000
vt 0.8572 0.8209 0.0000
vt 0.8646 0.8272 0.0000
vt 0.8547 0.8323 0.0000
vt 0.8460 0.8301 0.0000
vt 0.8227 0.8056 0.0000
vt 0.8311 0.8068 0.0000
vt 0.8263 0.8219 0.0000
vt 0.8160 0.8172 0.0000
vt 0.8464 0.8415 0.0000
vt 0.8549 0.8406 0.0000
vt 0.8963 0.8195 0.0000
vt 0.8899 0.8093 0.0000
vt 0.8911 0.7860 0.0000
vt 0.9006 0.7879 0.0000
vt 0.8945 0.7535 0.0000
vt 0.8785 0.7383 0.0000
vt 0.8900 0.7406 0.0000
vt 0.9020 0.7508 0.0000
vt 0.0287 0.0694 0.0000
vt 0.0476 0.0640 0.0000
vt 0.0523 0.0819 0.0000
vt 0.0363 0.0821 0.0000
vt 0.0184 0.0434 0.0000
vt 0.0358 0.0381 0.0000
vt 0.0422 0.0514 0.0000
vt 0.0249 0.0539 0.0000
vt 0.0564 0.0318 0.0000
vt 0.0770 0.0266 0.0000
vt 0.0827 0.0369 0.0000
vt 0.0634 0.0443 0.0000
vt 0.8391 0.8109 0.0000
vt 0.8513 0.8138 0.0000
vt 0.8375 0.8303 0.0000
vt 0.8327 0.8283 0.0000
vt 0.8542 0.7841 0.0000
vt 0.8707 0.7874 0.0000
vt 0.8608 0.7985 0.0000
vt 0.8512 0.7918 0.0000
vt 0.8804 0.7957 0.0000
vt 0.8752 0.8179 0.0000
vt 0.8676 0.8095 0.0000
vt 0.8057 0.7990 0.0000
vt 0.8138 0.8052 0.0000
vt 0.8116 0.8145 0.0000
vt 0.8059 0.8168 0.0000
vt 0.8340 0.7587 0.0000
vt 0.8354 0.7698 0.0000
vt 0.8235 0.7866 0.0000
vt 0.8166 0.7764 0.0000
vt 0.8397 0.7739 0.0000
vt 0.8446 0.7806 0.0000
vt 0.8385 0.7918 0.0000
vt 0.8319 0.7918 0.0000
vt 0.8360 0.8508 0.0000
vt 0.8462 0.8494 0.0000
vt 0.8653 0.8492 0.0000
vt 0.8659 0.8564 0.0000
vt 0.8089 0.8308 0.0000
vt 0.8131 0.8247 0.0000
vt 0.8182 0.8333 0.0000
vt 0.8214 0.8444 0.0000
vt 0.8192 0.8250 0.0000
vt 0.8281 0.8343 0.0000
vt 0.9089 0.8399 0.0000
vt 0.9019 0.8319 0.0000
vt 0.9107 0.8120 0.0000
vt 0.9167 0.8314 0.0000
vt 0.8738 0.8570 0.0000
vt 0.8746 0.8457 0.0000
vt 0.8869 0.8396 0.0000
vt 0.8952 0.8510 0.0000
vt 0.8658 0.8354 0.0000
vt 0.8795 0.8258 0.0000
vt 0.8855 0.7735 0.0000
vt 0.8963 0.7685 0.0000
vt 0.9064 0.7668 0.0000
vt 0.8617 0.7665 0.0000
vt 0.8642 0.7584 0.0000
vt 0.8824 0.7594 0.0000
vt 0.8767 0.7681 0.0000
vt 0.8599 0.7502 0.0000
vt 0.8543 0.7446 0.0000
vt 0.8666 0.7394 0.0000
vt 0.8788 0.7504 0.0000
vt 0.8783 0.7327 0.0000
vt 0.8915 0.7309 0.0000
vt 0.8590 0.7329 0.0000
vt 0.8443 0.7387 0.0000
vt 0.8440 0.7497 0.0000
vt 0.8273 0.7523 0.0000
vt 0.0146 0.0292 0.0000
vt 0.0291 0.0226 0.0000
vt 0.0476 0.0153 0.0000
vt 0.0679 0.0146 0.0000
vt 0.8485 0.7734 0.0000
vt 0.8613 0.7742 0.0000
vt 0.8765 0.7765 0.0000
vt 0.8834 0.7772 0.0000
vt 0.7981 0.7918 0.0000
vt 0.7977 0.8210 0.0000
vt 0.8115 0.7680 0.0000
vt 0.8473 0.7556 0.0000
vt 0.8473 0.7625 0.0000
vt 0.8470 0.7676 0.0000
vt 0.8315 0.8569 0.0000
vt 0.8509 0.8597 0.0000
vt 0.8187 0.8512 0.0000
vt 0.8066 0.8417 0.0000
vt 0.9117 0.8541 0.0000
vt 0.9208 0.8453 0.0000
vt 0.8948 0.8618 0.0000
vt 0.8714 0.8663 0.0000
# 116 texture coords

o polySurface3
g polySurface3
usemtl prop_3_lambert3SG
s 151
f 75/1/1 30/2/2 3/3/3 44/4/4 
f 76/5/5 50/6/6 7/7/7 37/8/8 
f 77/9/9 35/10/10 6/11/11 31/12/12 
f 78/13/13 37/8/14 7/7/15 33/14/16 
f 79/15/17 38/16/18 8/17/19 34/18/20 
f 80/19/21 28/20/22 4/21/23 46/22/24 
f 81/23/25 51/24/26 14/25/27 32/26/28 
f 82/27/29 52/28/30 21/29/31 53/30/32 
f 83/31/33 42/32/34 12/33/35 54/34/36 
f 84/35/37 55/36/38 19/37/39 49/38/40 
f 85/39/41 56/40/42 22/41/43 57/42/44 
f 86/43/45 38/16/46 20/44/47 58/45/48 
f 87/46/49 59/47/50 13/48/51 43/49/52 
f 88/50/53 60/51/54 23/52/55 61/53/56 
f 89/54/57 47/55/58 17/56/59 62/57/60 
f 90/58/61 63/59/62 15/60/63 45/61/64 
f 91/62/65 64/63/66 24/64/67 65/65/68 
f 92/66/69 49/38/70 19/37/71 66/67/72 
f 93/68/73 67/69/74 16/70/75 46/71/76 
f 94/72/77 68/73/78 25/74/79 69/75/80 
f 95/76/81 50/6/82 20/44/83 70/77/84 
f 96/78/85 71/79/86 16/80/87 34/18/88 
f 97/81/89 72/82/90 26/83/91 73/84/92 
f 98/85/93 40/86/94 10/87/95 74/88/96 
f 51/24/97 75/1/98 44/4/99 14/25/100 
f 21/29/101 54/34/102 75/1/103 51/24/104 
f 54/34/105 12/33/106 30/2/107 75/1/108 
f 55/36/109 76/5/110 37/8/111 19/37/112 
f 22/41/113 58/45/114 76/5/115 55/36/116 
f 58/45/117 20/44/118 50/6/119 76/5/120 
f 59/47/121 77/9/122 31/12/123 13/48/124 
f 23/52/125 62/57/126 77/9/127 59/47/128 
f 62/57/129 17/56/130 35/10/131 77/9/132 
f 63/59/133 78/13/134 33/14/135 15/60/136 
f 24/64/137 66/67/138 78/13/139 63/59/140 
f 66/67/141 19/37/142 37/8/143 78/13/144 
f 67/69/145 79/15/146 34/18/147 16/70/148 
f 25/74/149 70/77/150 79/15/151 67/69/152 
f 70/77/153 20/44/154 38/16/155 79/15/156 
f 71/79/157 80/19/158 46/22/159 16/80/160 
f 26/83/161 74/88/162 80/19/163 71/79/164 
f 74/88/165 10/87/166 28/20/167 80/19/168 
f 28/20/169 81/89/170 32/90/171 4/21/172 
f 10/87/173 53/91/174 81/89/175 28/20/176 
f 53/30/177 21/29/178 51/24/179 81/23/180 
f 40/86/181 82/92/182 53/91/183 10/87/184 
f 1/93/185 39/94/186 82/92/187 40/86/188 
f 39/95/189 9/96/190 52/28/191 82/27/192 
f 52/28/193 83/31/194 54/34/195 21/29/196 
f 9/96/197 27/97/198 83/31/199 52/28/200 
f 27/97/201 2/98/202 42/32/203 83/31/204 
f 35/10/205 84/35/206 49/38/207 6/11/208 
f 17/56/209 57/42/210 84/35/211 35/10/212 
f 57/42/213 22/41/214 55/36/215 84/35/216 
f 47/55/217 85/39/218 57/42/219 17/56/220 
f 5/99/221 48/100/222 85/39/223 47/55/224 
f 48/100/225 18/101/226 56/40/227 85/39/228 
f 56/40/229 86/43/230 58/45/231 22/41/232 
f 18/101/233 36/102/234 86/43/235 56/40/236 
f 36/102/237 8/17/238 38/16/239 86/43/240 
f 27/103/241 87/46/242 43/49/243 2/104/244 
f 9/105/245 61/53/246 87/46/247 27/103/248 
f 61/53/249 23/52/250 59/47/251 87/46/252 
f 39/94/253 88/50/254 61/53/255 9/105/256 
f 1/93/257 41/106/258 88/50/259 39/94/260 
f 41/106/261 11/107/262 60/51/263 88/50/264 
f 60/51/265 89/54/266 62/57/267 23/52/268 
f 11/107/269 29/108/270 89/54/271 60/51/272 
f 29/108/273 5/99/274 47/55/275 89/54/276 
f 30/109/277 90/58/278 45/61/279 3/110/280 
f 12/111/281 65/65/282 90/58/283 30/109/284 
f 65/65/285 24/64/286 63/59/287 90/58/288 
f 42/112/289 91/62/290 65/65/291 12/111/292 
f 2/104/293 43/49/294 91/62/295 42/112/296 
f 43/49/297 13/48/298 64/63/299 91/62/300 
f 64/63/301 92/66/302 66/67/303 24/64/304 
f 13/48/305 31/12/306 92/66/307 64/63/308 
f 31/12/309 6/11/310 49/38/311 92/66/312 
f 32/113/313 93/68/314 46/71/315 4/114/316 
f 14/115/317 69/75/318 93/68/319 32/113/320 
f 69/75/321 25/74/322 67/69/323 93/68/324 
f 44/116/325 94/72/326 69/75/327 14/115/328 
f 3/110/329 45/61/330 94/72/331 44/116/332 
f 45/61/333 15/60/334 68/73/335 94/72/336 
f 68/73/337 95/76/338 70/77/339 25/74/340 
f 15/60/341 33/14/342 95/76/343 68/73/344 
f 33/14/345 7/7/346 50/6/347 95/76/348 
f 36/102/349 96/78/350 34/18/351 8/17/352 
f 18/101/353 73/84/354 96/78/355 36/102/356 
f 73/84/357 26/83/358 71/79/359 96/78/360 
f 48/100/361 97/81/362 73/84/363 18/101/364 
f 5/99/365 29/108/366 97/81/367 48/100/368 
f 29/108/369 11/107/370 72/82/371 97/81/372 
f 72/82/373 98/85/374 74/88/375 26/83/376 
f 11/107/377 41/106/378 98/85/379 72/82/380 
f 41/106/381 1/93/382 40/86/383 98/85/384 
# 96 polygons

