# 3ds Max Wavefront OBJ Exporter v0.97b - (c)2007 guruware
# File Created: 23.04.2018 17:48:51

mtllib Piedra2.mtl

#
# object polySurface5
#

v  3.3027 1.6666 -69.1359
v  3.2632 0.9407 -68.8058
v  3.0853 1.2045 -68.9304
v  3.4608 0.8952 -68.8306
v  2.3540 1.7711 -68.8436
v  2.9272 1.8067 -69.0839
v  3.4513 2.0027 -69.0997
v  3.1841 2.3646 -68.7234
v  3.5794 0.6490 -68.5837
v  2.5517 1.2767 -68.7021
v  3.7553 1.8217 -68.6327
v  3.3422 0.3174 -68.2925
v  2.7493 0.6214 -68.4520
v  3.2236 0.5602 -68.4087
v  2.0971 1.6145 -68.6739
v  2.2552 1.2088 -68.5501
v  1.8419 1.9783 -68.0424
v  3.8758 2.4513 -68.2579
v  3.1248 0.1621 -68.1766
v  2.6900 0.3572 -68.3283
v  2.5714 0.3023 -68.1492
v  2.2699 0.4492 -68.0290
v  2.7296 2.4005 -68.3475
v  2.0653 0.8793 -67.6718
v  3.9534 0.7010 -67.8750
v  4.1538 2.0554 -67.8808
v  2.9272 2.7322 -68.0746
v  2.4133 0.1984 -67.6478
v  3.2434 0.0903 -67.7993
v  1.7490 1.3315 -67.3586
v  2.0237 2.2359 -67.8079
v  3.8166 0.0036 -67.2782
v  4.1130 0.4818 -67.5301
v  4.1210 2.4801 -67.9012
v  2.2552 0.0977 -67.4212
v  2.0181 0.3065 -67.3876
v  4.1623 0.8449 -67.4889
v  2.6307 2.8707 -67.6762
v  3.2632 2.7389 -67.8541
v  3.5596 -0.1543 -67.3517
v  2.8086 -0.1960 -67.0819
v  2.5984 0.0069 -67.2585
v  2.0405 0.2427 -67.5074
v  2.1564 2.5950 -67.4969
v  4.0142 2.3909 -67.4529
v  3.5992 2.8899 -67.1644
v  2.4726 0.5358 -67.0095
v  4.1950 0.4797 -67.0774
v  3.9640 1.8825 -67.4319
v  2.0262 1.8807 -67.2172
v  2.2206 2.4727 -67.0844
v  3.8561 0.8265 -66.7796
v  1.9983 0.6279 -67.1851
v  1.9588 0.8945 -66.7976
v  3.9565 1.0772 -66.8876
v  3.0260 2.9707 -67.2478
v  3.2829 2.9666 -67.1275
v  2.6900 0.2887 -66.6405
v  3.4015 1.1511 -66.4510
v  3.0260 1.1808 -66.1177
v  2.0082 1.6999 -66.3450
v  2.0318 1.3135 -66.3518
v  3.8826 1.9667 -66.9496
v  2.2355 2.2506 -66.4707
v  2.1959 0.8455 -66.4005
v  3.9217 1.5900 -66.7540
v  2.1257 2.2931 -66.6468
v  3.5794 2.7451 -66.9550
v  2.5912 2.4255 -66.5481
v  3.1644 2.4696 -66.3530
v  3.0853 2.7930 -66.9415
v  3.6387 1.8495 -66.4691
v  3.3422 2.5684 -66.4501
v  2.4331 0.7249 -66.1202
v  2.9865 1.7891 -66.0522
v  2.0971 1.6631 -66.1720
v  2.8284 1.9814 -66.2302
v  2.3343 1.4050 -66.0440
v  2.5319 1.1293 -65.9066
# 79 vertices

vn 0.0215 -0.2479 -0.9685
vn -0.2308 -0.5805 -0.7809
vn -0.2772 -0.4129 -0.8676
vn -0.2308 -0.5805 -0.7809
vn 0.0215 -0.2479 -0.9685
vn 0.4278 -0.3842 -0.8182
vn -0.5090 0.2387 -0.8270
vn -0.2792 0.1659 -0.9458
vn -0.2772 -0.4129 -0.8676
vn -0.2792 0.1659 -0.9458
vn 0.4511 0.2757 -0.8488
vn 0.0215 -0.2479 -0.9685
vn -0.2792 0.1659 -0.9458
vn 0.0215 -0.2479 -0.9685
vn -0.2772 -0.4129 -0.8676
vn -0.2792 0.1659 -0.9458
vn -0.5090 0.2387 -0.8270
vn -0.1691 0.7560 -0.6323
vn 0.4278 -0.3842 -0.8182
vn 0.5501 -0.6173 -0.5625
vn -0.2308 -0.5805 -0.7809
vn 0.4511 0.2757 -0.8488
vn 0.4278 -0.3842 -0.8182
vn 0.0215 -0.2479 -0.9685
vn -0.3740 -0.4448 -0.8138
vn -0.5090 0.2387 -0.8270
vn -0.2772 -0.4129 -0.8676
vn 0.4278 -0.3842 -0.8182
vn 0.8614 -0.0501 -0.5055
vn 0.5501 -0.6173 -0.5625
vn -0.1691 0.7560 -0.6323
vn 0.4511 0.2757 -0.8488
vn -0.2792 0.1659 -0.9458
vn 0.5501 -0.6173 -0.5625
vn 0.1030 -0.7596 -0.6422
vn -0.2308 -0.5805 -0.7809
vn -0.3561 -0.4534 -0.8171
vn -0.3740 -0.4448 -0.8138
vn -0.2308 -0.5805 -0.7809
vn -0.3561 -0.4534 -0.8171
vn -0.2308 -0.5805 -0.7809
vn -0.1309 -0.5633 -0.8159
vn -0.2308 -0.5805 -0.7809
vn -0.3740 -0.4448 -0.8138
vn -0.2772 -0.4129 -0.8676
vn -0.6704 -0.2008 -0.7143
vn -0.3740 -0.4448 -0.8138
vn -0.7409 -0.4011 -0.5388
vn 0.8614 -0.0501 -0.5055
vn 0.4278 -0.3842 -0.8182
vn 0.4511 0.2757 -0.8488
vn -0.6704 -0.2008 -0.7143
vn -0.5090 0.2387 -0.8270
vn -0.3740 -0.4448 -0.8138
vn -0.5090 0.2387 -0.8270
vn -0.6704 -0.2008 -0.7143
vn -0.8746 0.3387 -0.3470
vn 0.5364 0.6782 -0.5022
vn 0.4511 0.2757 -0.8488
vn -0.1691 0.7560 -0.6323
vn -0.1309 -0.5633 -0.8159
vn -0.0472 -0.8490 -0.5263
vn -0.2778 -0.5452 -0.7909
vn -0.2778 -0.5452 -0.7909
vn -0.3561 -0.4534 -0.8171
vn -0.1309 -0.5633 -0.8159
vn -0.1309 -0.5633 -0.8159
vn -0.2308 -0.5805 -0.7809
vn 0.1030 -0.7596 -0.6422
vn -0.4895 -0.6325 -0.6003
vn -0.3740 -0.4448 -0.8138
vn -0.3561 -0.4534 -0.8171
vn -0.4895 -0.6325 -0.6003
vn -0.7772 -0.4207 -0.4679
vn -0.7409 -0.4011 -0.5388
vn -0.3740 -0.4448 -0.8138
vn -0.4895 -0.6325 -0.6003
vn -0.7409 -0.4011 -0.5388
vn -0.4713 0.7051 -0.5299
vn -0.1691 0.7560 -0.6323
vn -0.5090 0.2387 -0.8270
vn -0.4895 -0.6325 -0.6003
vn -0.2778 -0.5452 -0.7909
vn -0.0472 -0.8490 -0.5263
vn -0.0472 -0.8490 -0.5263
vn -0.1309 -0.5633 -0.8159
vn 0.1030 -0.7596 -0.6422
vn -0.2778 -0.5452 -0.7909
vn -0.4895 -0.6325 -0.6003
vn -0.3561 -0.4534 -0.8171
vn -0.7772 -0.4207 -0.4679
vn -0.8931 -0.2284 -0.3875
vn -0.7409 -0.4011 -0.5388
vn -0.8746 0.3387 -0.3470
vn -0.6704 -0.2008 -0.7143
vn -0.7409 -0.4011 -0.5388
vn 0.7793 -0.3779 -0.4999
vn 0.8614 -0.0501 -0.5055
vn 0.9901 0.0088 -0.1402
vn -0.8746 0.3387 -0.3470
vn -0.4713 0.7051 -0.5299
vn -0.5090 0.2387 -0.8270
vn -0.4713 0.7051 -0.5299
vn -0.0668 0.8890 -0.4530
vn -0.1691 0.7560 -0.6323
vn -0.4895 -0.6325 -0.6003
vn -0.0472 -0.8490 -0.5263
vn -0.2879 -0.8773 -0.3840
vn 0.1030 -0.7596 -0.6422
vn 0.2090 -0.8770 -0.4326
vn -0.0472 -0.8490 -0.5263
vn -0.7772 -0.4207 -0.4679
vn -0.4895 -0.6325 -0.6003
vn -0.2879 -0.8773 -0.3840
vn 0.1030 -0.7596 -0.6422
vn 0.5501 -0.6173 -0.5625
vn 0.2090 -0.8770 -0.4326
vn 0.7793 -0.3779 -0.4999
vn 0.2090 -0.8770 -0.4326
vn 0.5501 -0.6173 -0.5625
vn 0.8614 -0.0501 -0.5055
vn 0.7793 -0.3779 -0.4999
vn 0.5501 -0.6173 -0.5625
vn -0.8931 -0.2284 -0.3875
vn -0.9995 -0.0326 0.0048
vn -0.7409 -0.4011 -0.5388
vn -0.4713 0.7051 -0.5299
vn -0.8746 0.3387 -0.3470
vn -0.8473 0.5222 -0.0968
vn 0.4511 0.2757 -0.8488
vn 0.5364 0.6782 -0.5022
vn 0.8614 -0.0501 -0.5055
vn -0.0668 0.8890 -0.4530
vn 0.5364 0.6782 -0.5022
vn -0.1691 0.7560 -0.6323
vn 0.5990 -0.7961 -0.0860
vn 0.7793 -0.3779 -0.4999
vn 0.8483 -0.3720 -0.3768
vn -0.7409 -0.4011 -0.5388
vn -0.9995 -0.0326 0.0048
vn -0.8746 0.3387 -0.3470
vn 0.5364 0.6782 -0.5022
vn 0.9901 0.0088 -0.1402
vn 0.8614 -0.0501 -0.5055
vn 0.5364 0.6782 -0.5022
vn 0.8804 0.4647 -0.0947
vn 0.9901 0.0088 -0.1402
vn -0.4320 -0.8973 0.0909
vn -0.2879 -0.8773 -0.3840
vn 0.2090 -0.8770 -0.4326
vn -0.2879 -0.8773 -0.3840
vn -0.0472 -0.8490 -0.5263
vn 0.2090 -0.8770 -0.4326
vn 0.5990 -0.7961 -0.0860
vn 0.2090 -0.8770 -0.4326
vn 0.7793 -0.3779 -0.4999
vn -0.8931 -0.2284 -0.3875
vn -0.7772 -0.4207 -0.4679
vn -0.9076 -0.3864 0.1638
vn 0.9980 0.0553 -0.0311
vn 0.8483 -0.3720 -0.3768
vn 0.7793 -0.3779 -0.4999
vn 0.9901 0.0088 -0.1402
vn 0.9980 0.0553 -0.0311
vn 0.7793 -0.3779 -0.4999
vn -0.9995 -0.0326 0.0048
vn -0.8473 0.5222 -0.0968
vn -0.8746 0.3387 -0.3470
vn -0.4713 0.7051 -0.5299
vn -0.8473 0.5222 -0.0968
vn -0.3712 0.9219 -0.1112
vn -0.4713 0.7051 -0.5299
vn -0.3712 0.9219 -0.1112
vn -0.0668 0.8890 -0.4530
vn 0.1704 0.9382 -0.3011
vn 0.5364 0.6782 -0.5022
vn -0.0668 0.8890 -0.4530
vn 0.2993 -0.9323 0.2029
vn -0.2281 -0.8683 0.4404
vn 0.2090 -0.8770 -0.4326
vn 0.2090 -0.8770 -0.4326
vn -0.5424 -0.8298 0.1309
vn -0.4320 -0.8973 0.0909
vn -0.4320 -0.8973 0.0909
vn -0.6666 -0.6694 -0.3280
vn -0.2879 -0.8773 -0.3840
vn -0.6666 -0.6694 -0.3280
vn -0.7772 -0.4207 -0.4679
vn -0.2879 -0.8773 -0.3840
vn -0.6666 -0.6694 -0.3280
vn -0.9076 -0.3864 0.1638
vn -0.7772 -0.4207 -0.4679
vn -0.8473 0.5222 -0.0968
vn -0.7488 0.6628 0.0053
vn -0.3712 0.9219 -0.1112
vn 0.9901 0.0088 -0.1402
vn 0.8804 0.4647 -0.0947
vn 0.9181 0.2066 0.3381
vn -0.3712 0.9219 -0.1112
vn 0.1704 0.9382 -0.3011
vn -0.0668 0.8890 -0.4530
vn 0.1704 0.9382 -0.3011
vn 0.4994 0.8638 0.0671
vn 0.5364 0.6782 -0.5022
vn -0.2281 -0.8683 0.4404
vn -0.5424 -0.8298 0.1309
vn 0.2090 -0.8770 -0.4326
vn 0.2090 -0.8770 -0.4326
vn 0.5990 -0.7961 -0.0860
vn 0.2993 -0.9323 0.2029
vn -0.6666 -0.6694 -0.3280
vn -0.4320 -0.8973 0.0909
vn -0.9076 -0.3864 0.1638
vn -0.6036 -0.6243 0.4959
vn -0.9076 -0.3864 0.1638
vn -0.4320 -0.8973 0.0909
vn -0.4320 -0.8973 0.0909
vn -0.5424 -0.8298 0.1309
vn -0.6036 -0.6243 0.4959
vn 0.8483 -0.3720 -0.3768
vn 0.9071 -0.2153 0.3618
vn 0.5990 -0.7961 -0.0860
vn 0.9980 0.0553 -0.0311
vn 0.9071 -0.2153 0.3618
vn 0.8483 -0.3720 -0.3768
vn -0.9076 -0.3864 0.1638
vn -0.9995 -0.0326 0.0048
vn -0.8931 -0.2284 -0.3875
vn 0.9673 0.0617 0.2459
vn 0.9980 0.0553 -0.0311
vn 0.9901 0.0088 -0.1402
vn -0.9995 -0.0326 0.0048
vn -0.9405 0.3286 0.0866
vn -0.8473 0.5222 -0.0968
vn 0.9181 0.2066 0.3381
vn 0.9673 0.0617 0.2459
vn 0.9901 0.0088 -0.1402
vn -0.9405 0.3286 0.0866
vn -0.7195 0.6509 0.2423
vn -0.8473 0.5222 -0.0968
vn -0.7488 0.6628 0.0053
vn -0.7195 0.6509 0.2423
vn -0.3712 0.9219 -0.1112
vn 0.5364 0.6782 -0.5022
vn 0.4994 0.8638 0.0671
vn 0.8804 0.4647 -0.0947
vn 0.2993 -0.9323 0.2029
vn 0.5990 -0.7961 -0.0860
vn 0.4435 -0.3377 0.8302
vn -0.6036 -0.6243 0.4959
vn -0.7171 -0.5138 0.4710
vn -0.9076 -0.3864 0.1638
vn -0.9076 -0.3864 0.1638
vn -0.7171 -0.5138 0.4710
vn -0.9995 -0.0326 0.0048
vn -0.9995 -0.0326 0.0048
vn -0.7171 -0.5138 0.4710
vn -0.8337 -0.4466 0.3249
vn 0.9980 0.0553 -0.0311
vn 0.9183 0.0990 0.3833
vn 0.9071 -0.2153 0.3618
vn 0.9980 0.0553 -0.0311
vn 0.9673 0.0617 0.2459
vn 0.9183 0.0990 0.3833
vn -0.8473 0.5222 -0.0968
vn -0.7195 0.6509 0.2423
vn -0.7488 0.6628 0.0053
vn -0.1564 0.9743 0.1621
vn 0.1704 0.9382 -0.3011
vn -0.3712 0.9219 -0.1112
vn 0.4994 0.8638 0.0671
vn 0.1704 0.9382 -0.3011
vn 0.0706 0.9554 0.2866
vn 0.4435 -0.3377 0.8302
vn -0.2281 -0.8683 0.4404
vn 0.2993 -0.9323 0.2029
vn -0.2281 -0.8683 0.4404
vn -0.6036 -0.6243 0.4959
vn -0.5424 -0.8298 0.1309
vn -0.1993 -0.7913 0.5780
vn 0.5194 -0.3543 0.7776
vn 0.5042 -0.3400 0.7939
vn -0.2281 -0.8683 0.4404
vn 0.4435 -0.3377 0.8302
vn 0.5194 -0.3543 0.7776
vn 0.4435 -0.3377 0.8302
vn 0.5990 -0.7961 -0.0860
vn 0.9071 -0.2153 0.3618
vn -0.8337 -0.4466 0.3249
vn -0.7171 -0.5138 0.4710
vn -0.6036 -0.6243 0.4959
vn -0.9536 0.1421 0.2653
vn -0.8337 -0.4466 0.3249
vn -0.8242 -0.2086 0.5265
vn -0.8337 -0.4466 0.3249
vn -0.9536 0.1421 0.2653
vn -0.9995 -0.0326 0.0048
vn -0.9405 0.3286 0.0866
vn -0.9995 -0.0326 0.0048
vn -0.9536 0.1421 0.2653
vn 0.9673 0.0617 0.2459
vn 0.9181 0.2066 0.3381
vn 0.9042 0.2186 0.3669
vn -0.3712 0.9219 -0.1112
vn -0.7195 0.6509 0.2423
vn -0.2909 0.7057 0.6461
vn 0.0706 0.9554 0.2866
vn 0.1704 0.9382 -0.3011
vn -0.1564 0.9743 0.1621
vn 0.9181 0.2066 0.3381
vn 0.8804 0.4647 -0.0947
vn 0.4994 0.8638 0.0671
vn 0.9071 -0.2153 0.3618
vn 0.9183 0.0990 0.3833
vn 0.4435 -0.3377 0.8302
vn -0.6036 -0.6243 0.4959
vn -0.7401 -0.6020 0.2998
vn -0.8337 -0.4466 0.3249
vn 0.9183 0.0990 0.3833
vn 0.9673 0.0617 0.2459
vn 0.8555 0.0368 0.5165
vn 0.8555 0.0368 0.5165
vn 0.9673 0.0617 0.2459
vn 0.9042 0.2186 0.3669
vn -0.8044 0.5150 0.2963
vn -0.7195 0.6509 0.2423
vn -0.9405 0.3286 0.0866
vn 0.9042 0.2186 0.3669
vn 0.9181 0.2066 0.3381
vn 0.5586 0.6499 0.5154
vn -0.8044 0.5150 0.2963
vn -0.2909 0.7057 0.6461
vn -0.7195 0.6509 0.2423
vn -0.3017 0.7563 0.5805
vn -0.3712 0.9219 -0.1112
vn -0.2909 0.7057 0.6461
vn -0.0627 0.6753 0.7349
vn 0.0706 0.9554 0.2866
vn -0.2330 0.8301 0.5065
vn 0.9181 0.2066 0.3381
vn 0.4994 0.8638 0.0671
vn 0.5586 0.6499 0.5154
vn -0.2330 0.8301 0.5065
vn 0.0706 0.9554 0.2866
vn -0.1564 0.9743 0.1621
vn 0.4994 0.8638 0.0671
vn 0.0706 0.9554 0.2866
vn 0.5586 0.6499 0.5154
vn -0.1993 -0.7913 0.5780
vn -0.6036 -0.6243 0.4959
vn -0.2281 -0.8683 0.4404
vn 0.5194 -0.3543 0.7776
vn -0.1993 -0.7913 0.5780
vn -0.2281 -0.8683 0.4404
vn -0.1993 -0.7913 0.5780
vn -0.7401 -0.6020 0.2998
vn -0.6036 -0.6243 0.4959
vn -0.7401 -0.6020 0.2998
vn -0.8242 -0.2086 0.5265
vn -0.8337 -0.4466 0.3249
vn 0.5194 -0.3543 0.7776
vn 0.4435 -0.3377 0.8302
vn 0.8555 0.0368 0.5165
vn 0.8555 0.0368 0.5165
vn 0.4435 -0.3377 0.8302
vn 0.9183 0.0990 0.3833
vn -0.8044 0.5150 0.2963
vn -0.9405 0.3286 0.0866
vn -0.9536 0.1421 0.2653
vn 0.0706 0.9554 0.2866
vn -0.0627 0.6753 0.7349
vn 0.5586 0.6499 0.5154
vn 0.6738 0.1204 0.7290
vn 0.5194 -0.3543 0.7776
vn 0.8555 0.0368 0.5165
vn 0.5194 -0.3543 0.7776
vn 0.6738 0.1204 0.7290
vn 0.5042 -0.3400 0.7939
vn 0.9042 0.2186 0.3669
vn 0.6738 0.1204 0.7290
vn 0.8555 0.0368 0.5165
vn -0.1564 0.9743 0.1621
vn -0.3712 0.9219 -0.1112
vn -0.3017 0.7563 0.5805
vn -0.3017 0.7563 0.5805
vn -0.2330 0.8301 0.5065
vn -0.1564 0.9743 0.1621
vn -0.0627 0.6753 0.7349
vn -0.2330 0.8301 0.5065
vn -0.3017 0.7563 0.5805
vn 0.6738 0.1204 0.7290
vn 0.9042 0.2186 0.3669
vn 0.5586 0.6499 0.5154
vn 0.5586 0.6499 0.5154
vn -0.0627 0.6753 0.7349
vn 0.3605 0.6264 0.6911
vn -0.1993 -0.7913 0.5780
vn -0.4180 -0.5091 0.7524
vn -0.7401 -0.6020 0.2998
vn -0.1993 -0.7913 0.5780
vn 0.5042 -0.3400 0.7939
vn -0.4180 -0.5091 0.7524
vn -0.7401 -0.6020 0.2998
vn -0.4180 -0.5091 0.7524
vn -0.8242 -0.2086 0.5265
vn 0.1142 0.2617 0.9584
vn 0.5042 -0.3400 0.7939
vn 0.6738 0.1204 0.7290
vn -0.8044 0.5150 0.2963
vn -0.9536 0.1421 0.2653
vn -0.6819 0.2232 0.6965
vn -0.6819 0.2232 0.6965
vn -0.2909 0.7057 0.6461
vn -0.8044 0.5150 0.2963
vn -0.0627 0.6753 0.7349
vn -0.3017 0.7563 0.5805
vn -0.2472 0.4781 0.8428
vn 0.1142 0.2617 0.9584
vn -0.0627 0.6753 0.7349
vn -0.2472 0.4781 0.8428
vn -0.0627 0.6753 0.7349
vn 0.6738 0.1204 0.7290
vn 0.3605 0.6264 0.6911
vn 0.1142 0.2617 0.9584
vn 0.6738 0.1204 0.7290
vn -0.0627 0.6753 0.7349
vn 0.6738 0.1204 0.7290
vn 0.5586 0.6499 0.5154
vn 0.3605 0.6264 0.6911
vn -0.9536 0.1421 0.2653
vn -0.8242 -0.2086 0.5265
vn -0.6819 0.2232 0.6965
vn -0.4232 0.1767 0.8887
vn -0.6819 0.2232 0.6965
vn -0.8242 -0.2086 0.5265
vn -0.2472 0.4781 0.8428
vn -0.3017 0.7563 0.5805
vn -0.2909 0.7057 0.6461
vn -0.4180 -0.5091 0.7524
vn 0.5042 -0.3400 0.7939
vn -0.0360 -0.1281 0.9911
vn -0.8242 -0.2086 0.5265
vn -0.4180 -0.5091 0.7524
vn -0.4232 0.1767 0.8887
vn -0.4180 -0.5091 0.7524
vn -0.0360 -0.1281 0.9911
vn -0.4232 0.1767 0.8887
vn -0.0360 -0.1281 0.9911
vn 0.5042 -0.3400 0.7939
vn 0.1142 0.2617 0.9584
vn -0.4232 0.1767 0.8887
vn -0.2909 0.7057 0.6461
vn -0.6819 0.2232 0.6965
vn -0.2472 0.4781 0.8428
vn -0.2909 0.7057 0.6461
vn -0.4232 0.1767 0.8887
vn -0.2472 0.4781 0.8428
vn -0.4232 0.1767 0.8887
vn 0.1142 0.2617 0.9584
vn -0.0360 -0.1281 0.9911
vn 0.1142 0.2617 0.9584
vn -0.4232 0.1767 0.8887
# 462 vertex normals

vt 0.0795 0.3658 0.0000
vt 0.0729 0.4019 0.0000
vt 0.0659 0.3882 0.0000
vt 0.0820 0.4030 0.0000
vt 0.0300 0.3614 0.0000
vt 0.0610 0.3590 0.0000
vt 0.0899 0.3521 0.0000
vt 0.3762 0.8889 0.0000
vt 0.3456 0.8818 0.0000
vt 0.3901 0.8620 0.0000
vt 0.0880 0.4187 0.0000
vt 0.0371 0.3874 0.0000
vt 0.1118 0.3733 0.0000
vt 0.4047 0.8834 0.0000
vt 0.0725 0.4366 0.0000
vt 0.0440 0.4180 0.0000
vt 0.0674 0.4256 0.0000
vt 0.0156 0.3682 0.0000
vt 0.0212 0.3896 0.0000
vt 0.3298 0.8796 0.0000
vt 0.3168 0.8479 0.0000
vt 0.4242 0.8402 0.0000
vt 0.0595 0.4431 0.0000
vt 0.0398 0.4287 0.0000
vt 0.0313 0.4338 0.0000
vt 0.0146 0.4281 0.0000
vt 0.3642 0.8490 0.0000
vt 0.2478 0.8520 0.0000
vt 0.2660 0.8333 0.0000
vt 0.2807 0.8747 0.0000
vt 0.3026 0.8789 0.0000
vt 0.1261 0.4289 0.0000
vt 0.1486 0.3803 0.0000
vt 0.3753 0.8331 0.0000
vt 0.0654 0.4822 0.0000
vt 0.0822 0.4586 0.0000
vt 0.0798 0.5031 0.0000
vt 0.0862 0.4437 0.0000
vt 0.0998 0.4651 0.0000
vt 0.0581 0.4979 0.0000
vt 0.2891 0.8168 0.0000
vt 0.3259 0.8331 0.0000
vt 0.1381 0.3543 0.0000
vt 0.1364 0.4633 0.0000
vt 0.1417 0.4396 0.0000
vt 0.1513 0.3647 0.0000
vt 0.0841 0.5168 0.0000
vt 0.2462 0.8191 0.0000
vt 0.1492 0.4295 0.0000
vt 0.3602 0.8183 0.0000
vt 0.3921 0.8221 0.0000
vt 0.1258 0.4689 0.0000
vt 0.1133 0.5021 0.0000
vt 0.1010 0.5074 0.0000
vt 0.0715 0.5215 0.0000
vt 0.2428 0.8249 0.0000
vt 0.3360 0.8169 0.0000
vt 0.1702 0.3762 0.0000
vt 0.4058 0.7919 0.0000
vt 0.0748 0.5273 0.0000
vt 0.0793 0.5324 0.0000
vt 0.1099 0.5309 0.0000
vt 0.1621 0.4492 0.0000
vt 0.1678 0.3975 0.0000
vt 0.3092 0.8063 0.0000
vt 0.3318 0.7978 0.0000
vt 0.1925 0.3575 0.0000
vt 0.1746 0.4735 0.0000
vt 0.0895 0.5470 0.0000
vt 0.2584 0.8074 0.0000
vt 0.2712 0.7886 0.0000
vt 0.1810 0.4309 0.0000
vt 0.3773 0.7980 0.0000
vt 0.3895 0.7918 0.0000
vt 0.1315 0.5227 0.0000
vt 0.1781 0.5051 0.0000
vt 0.1768 0.5305 0.0000
vt 0.1065 0.5627 0.0000
vt 0.3048 0.7684 0.0000
vt 0.2902 0.7680 0.0000
vt 0.1893 0.3993 0.0000
vt 0.3277 0.7703 0.0000
vt 0.1838 0.4674 0.0000
vt 0.1307 0.5592 0.0000
vt 0.1933 0.4139 0.0000
vt 0.3254 0.7800 0.0000
vt 0.2010 0.3677 0.0000
vt 0.3480 0.7680 0.0000
vt 0.3771 0.7560 0.0000
vt 0.3768 0.7822 0.0000
vt 0.4031 0.7795 0.0000
vt 0.2695 0.7655 0.0000
vt 0.2016 0.4792 0.0000
vt 0.2064 0.5007 0.0000
vt 0.2131 0.4051 0.0000
vt 0.3874 0.7593 0.0000
vt 0.1495 0.5519 0.0000
vt 0.2654 0.7472 0.0000
vt 0.1990 0.5370 0.0000
vt 0.3053 0.7591 0.0000
vt 0.2252 0.5295 0.0000
vt 0.2254 0.5605 0.0000
vt 0.2061 0.5462 0.0000
vt 0.2307 0.5203 0.0000
vt 0.2249 0.3763 0.0000
vt 0.2927 0.7465 0.0000
vt 0.2197 0.5783 0.0000
vt 0.1585 0.5599 0.0000
vt 0.1771 0.5570 0.0000
vt 0.1855 0.5691 0.0000
vt 0.1965 0.5825 0.0000
# 111 texture coords

o polySurface5
g polySurface5
usemtl prop_3_lambert3SG
s 1
f 1/1/1 2/2/2 3/3/3 
f 2/2/4 1/1/5 4/4/6 
f 5/5/7 6/6/8 3/3/9 
f 6/6/10 7/7/11 1/1/12 
f 6/6/13 1/1/14 3/3/15 
f 6/8/16 5/9/17 8/10/18 
f 4/4/19 9/11/20 2/2/21 
f 7/7/22 4/4/23 1/1/24 
f 10/12/25 5/5/26 3/3/27 
f 4/4/28 11/13/29 9/11/30 
f 8/10/31 7/14/32 6/8/33 
f 9/11/34 12/15/35 2/2/36 
f 13/16/37 10/12/38 2/2/39 
f 13/16/40 2/2/41 14/17/42 
f 2/2/43 10/12/44 3/3/45 
f 15/18/46 10/12/47 16/19/48 
f 11/13/49 4/4/50 7/7/51 
f 15/18/52 5/5/53 10/12/54 
f 5/9/55 15/20/56 17/21/57 
f 18/22/58 7/14/59 8/10/60 
f 14/17/61 19/23/62 20/24/63 
f 20/24/64 13/16/65 14/17/66 
f 14/17/67 2/2/68 12/15/69 
f 21/25/70 10/12/71 13/16/72 
f 21/25/73 22/26/74 16/19/75 
f 10/12/76 21/25/77 16/19/78 
f 23/27/79 8/10/80 5/9/81 
f 21/25/82 20/24/83 19/23/84 
f 19/23/85 14/17/86 12/15/87 
f 20/24/88 21/25/89 13/16/90 
f 22/28/91 24/29/92 16/30/93 
f 17/21/94 15/31/95 16/30/96 
f 25/32/97 11/13/98 26/33/99 
f 17/21/100 23/27/101 5/9/102 
f 23/27/103 27/34/104 8/10/105 
f 21/35/106 19/36/107 28/37/108 
f 12/38/109 29/39/110 19/36/111 
f 22/40/112 21/35/113 28/37/114 
f 12/38/115 9/11/116 29/39/117 
f 25/32/118 29/39/119 9/11/120 
f 11/13/121 25/32/122 9/11/123 
f 24/29/124 30/41/125 16/30/126 
f 23/27/127 17/21/128 31/42/129 
f 7/7/130 18/43/131 11/13/132 
f 27/34/133 18/22/134 8/10/135 
f 32/44/136 25/32/137 33/45/138 
f 16/30/139 30/41/140 17/21/141 
f 18/43/142 26/33/143 11/13/144 
f 18/43/145 34/46/146 26/33/147 
f 35/47/148 28/37/149 29/39/150 
f 28/37/151 19/36/152 29/39/153 
f 32/44/154 29/39/155 25/32/156 
f 24/29/157 22/28/158 36/48/159 
f 37/49/160 33/45/161 25/32/162 
f 26/33/163 37/49/164 25/32/165 
f 30/41/166 31/42/167 17/21/168 
f 23/27/169 31/42/170 38/50/171 
f 23/27/172 38/50/173 27/34/174 
f 39/51/175 18/22/176 27/34/177 
f 40/52/178 41/53/179 29/39/180 
f 29/39/181 42/54/182 35/47/183 
f 35/47/184 43/55/185 28/37/186 
f 43/55/187 22/40/188 28/37/189 
f 43/56/190 36/48/191 22/28/192 
f 31/42/193 44/57/194 38/50/195 
f 26/33/196 34/46/197 45/58/198 
f 38/50/199 39/51/200 27/34/201 
f 39/51/202 46/59/203 18/22/204 
f 41/53/205 42/54/206 29/39/207 
f 29/39/208 32/44/209 40/52/210 
f 43/60/211 35/47/212 36/61/213 
f 47/62/214 36/61/215 35/47/216 
f 35/47/217 42/54/218 47/62/219 
f 33/45/220 48/63/221 32/44/222 
f 37/49/223 48/63/224 33/45/225 
f 36/48/226 30/41/227 24/29/228 
f 49/64/229 37/49/230 26/33/231 
f 30/41/232 50/65/233 31/42/234 
f 45/58/235 49/64/236 26/33/237 
f 50/65/238 51/66/239 31/42/240 
f 44/57/241 51/66/242 38/50/243 
f 18/43/244 46/67/245 34/46/246 
f 40/52/247 32/44/248 52/68/249 
f 47/62/250 53/69/251 36/61/252 
f 36/48/253 53/70/254 30/41/255 
f 30/41/256 53/70/257 54/71/258 
f 37/49/259 55/72/260 48/63/261 
f 37/49/262 49/64/263 55/72/264 
f 31/42/265 51/66/266 44/57/267 
f 56/73/268 39/51/269 38/50/270 
f 46/59/271 39/51/272 57/74/273 
f 52/68/274 41/53/275 40/52/276 
f 41/53/277 47/62/278 42/54/279 
f 58/75/280 59/76/281 60/77/282 
f 41/53/283 52/68/284 59/76/285 
f 52/68/286 32/44/287 48/63/288 
f 54/78/289 53/69/290 47/62/291 
f 61/79/292 54/71/293 62/80/294 
f 54/71/295 61/79/296 30/41/297 
f 50/65/298 30/41/299 61/79/300 
f 49/64/301 45/58/302 63/81/303 
f 38/50/304 51/66/305 64/82/306 
f 57/74/307 39/51/308 56/73/309 
f 45/58/310 34/46/311 46/67/312 
f 48/63/313 55/83/314 52/68/315 
f 47/62/316 65/84/317 54/78/318 
f 55/72/319 49/64/320 66/85/321 
f 66/85/322 49/64/323 63/81/324 
f 67/86/325 51/66/326 50/65/327 
f 63/81/328 45/58/329 68/87/330 
f 67/86/331 64/82/332 51/66/333 
f 69/88/334 38/50/335 64/82/336 
f 70/89/337 57/74/338 71/90/339 
f 45/58/340 46/67/341 68/87/342 
f 71/90/343 57/74/344 56/73/345 
f 46/59/346 57/74/347 68/91/348 
f 58/75/349 47/62/350 41/53/351 
f 59/76/352 58/75/353 41/53/354 
f 58/75/355 65/84/356 47/62/357 
f 65/92/358 62/80/359 54/71/360 
f 59/76/361 52/68/362 66/93/363 
f 66/93/364 52/68/365 55/83/366 
f 67/86/367 50/65/368 61/79/369 
f 57/74/370 70/89/371 68/91/372 
f 72/94/373 59/76/374 66/93/375 
f 59/76/376 72/94/377 60/77/378 
f 63/81/379 72/95/380 66/85/381 
f 56/73/382 38/50/383 69/88/384 
f 69/88/385 71/90/386 56/73/387 
f 70/89/388 71/90/389 69/88/390 
f 72/95/391 63/81/392 68/87/393 
f 68/91/394 70/89/395 73/96/396 
f 58/75/397 74/97/398 65/84/399 
f 58/75/400 60/77/401 74/97/402 
f 65/92/403 74/98/404 62/80/405 
f 75/99/406 60/77/407 72/94/408 
f 67/86/409 61/79/410 76/100/411 
f 76/100/412 64/82/413 67/86/414 
f 70/101/415 69/102/416 77/103/417 
f 75/99/418 70/101/419 77/103/420 
f 70/101/421 72/94/422 73/104/423 
f 75/99/424 72/94/425 70/101/426 
f 72/95/427 68/87/428 73/105/429 
f 61/79/430 62/80/431 76/100/432 
f 78/106/433 76/100/434 62/80/435 
f 77/103/436 69/102/437 64/107/438 
f 74/108/439 60/77/440 79/109/441 
f 62/80/442 74/98/443 78/106/444 
f 74/108/445 79/109/446 78/110/447 
f 79/109/448 60/77/449 75/99/450 
f 78/110/451 64/107/452 76/111/453 
f 77/103/454 64/107/455 78/110/456 
f 77/103/457 78/110/458 75/99/459 
f 79/109/460 75/99/461 78/110/462 
# 0 polygons - 154 triangles

