# 3ds Max Wavefront OBJ Exporter v0.97b - (c)2007 guruware
# File Created: 23.04.2018 17:48:11

mtllib pilarMitad.mtl

#
# object polySurface9
#

v  11.8126 0.2033 -50.1872
v  14.4792 0.2033 -50.1872
v  11.8126 0.6747 -50.1872
v  14.4792 0.6747 -50.1872
v  11.8126 0.6747 -52.8538
v  14.4792 0.6747 -52.8538
v  11.8126 0.2033 -52.8538
v  14.4792 0.2033 -52.8538
v  12.1569 1.0425 -50.5314
v  14.1350 1.0425 -50.5314
v  14.1350 1.0425 -52.5095
v  12.1569 1.0425 -52.5095
v  12.4308 1.4978 -50.8054
v  13.8610 1.4978 -50.8054
v  13.8610 1.4978 -52.2356
v  12.4308 1.4978 -52.2356
v  12.4308 3.1666 -50.8054
v  13.8610 3.1666 -50.8054
v  13.8610 3.1666 -52.2356
v  12.4308 3.1666 -52.2356
v  12.3493 4.5454 -50.7239
v  13.9425 4.5454 -50.7239
v  13.9425 4.5454 -52.3171
v  12.3493 4.5454 -52.3171
v  12.3910 4.9782 -50.7655
v  12.3847 4.9130 -52.2817
v  13.8612 5.3907 -50.8052
v  13.1234 5.4193 -50.8079
v  13.5663 5.0914 -50.7764
v  13.9425 4.5454 -51.6856
v  12.9072 4.5454 -52.3171
v  12.3666 4.7245 -52.2998
v  12.3880 4.9478 -51.4714
v  12.4241 5.3223 -50.7986
v  13.8638 5.3642 -51.7788
v  13.1278 4.8478 -52.2880
v  12.4144 5.2219 -51.7549
v  12.5766 4.9792 -50.9541
v  12.6016 5.2397 -50.9791
v  13.1310 5.3131 -50.9862
v  13.4662 5.0649 -50.9623
v  13.6894 5.2914 -50.9841
v  12.5581 4.7872 -52.1154
v  12.5718 4.9298 -52.1017
v  13.7510 4.6516 -51.6505
v  13.6914 5.2714 -51.7211
v  13.7510 4.6516 -52.1285
v  13.1343 4.8805 -52.1065
v  12.9673 4.6516 -52.1285
v  12.5943 5.1636 -51.7030
v  12.5744 4.9562 -51.4884
v  12.8049 4.9805 -51.1861
v  12.8201 5.1380 -51.2012
v  13.1403 5.1825 -51.2055
v  13.3431 5.0323 -51.1910
v  13.4781 5.1693 -51.2042
v  12.7937 4.8643 -51.8886
v  12.8020 4.9506 -51.8803
v  13.5154 4.7823 -51.6074
v  13.4793 5.1572 -51.6500
v  13.5154 4.7823 -51.8965
v  13.1423 4.9207 -51.8832
v  13.0413 4.7823 -51.8965
v  12.8156 5.0920 -51.6391
v  12.8036 4.9666 -51.5093
v  13.0137 4.9816 -51.3982
v  13.0198 5.0451 -51.4043
v  13.1488 5.0630 -51.4060
v  13.2305 5.0025 -51.4002
v  13.2849 5.0577 -51.4055
v  13.0092 4.9348 -51.6812
v  13.0125 4.9696 -51.6779
v  13.2999 4.9017 -51.5679
v  13.2854 5.0528 -51.5851
v  13.2999 4.9017 -51.6844
v  13.1496 4.9575 -51.6791
v  13.1089 4.9017 -51.6844
v  13.0180 5.0265 -51.5807
v  13.0131 4.9760 -51.5284
v  13.1515 4.9828 -51.5425
# 80 vertices

vn 0.0000 0.0000 1.0000
vn 0.0000 0.0000 1.0000
vn 0.0000 0.0000 1.0000
vn 0.0000 0.0000 1.0000
vn 0.0000 0.0000 -1.0000
vn 0.0000 0.0000 -1.0000
vn 0.0000 0.0000 -1.0000
vn 0.0000 0.0000 -1.0000
vn 0.0000 -1.0000 0.0000
vn 0.0000 -1.0000 0.0000
vn 0.0000 -1.0000 0.0000
vn 0.0000 -1.0000 0.0000
vn 1.0000 0.0000 0.0000
vn 1.0000 0.0000 0.0000
vn 1.0000 0.0000 0.0000
vn 1.0000 0.0000 0.0000
vn -1.0000 0.0000 0.0000
vn -1.0000 0.0000 0.0000
vn -1.0000 0.0000 0.0000
vn -1.0000 0.0000 0.0000
vn 0.0000 0.6833 0.7302
vn 0.0000 0.6833 0.7302
vn 0.0000 0.6833 0.7302
vn 0.0000 0.6833 0.7302
vn 0.7302 0.6833 0.0000
vn 0.7302 0.6833 0.0000
vn 0.7302 0.6833 0.0000
vn 0.7302 0.6833 0.0000
vn 0.0000 0.6833 -0.7302
vn 0.0000 0.6833 -0.7302
vn 0.0000 0.6833 -0.7302
vn 0.0000 0.6833 -0.7302
vn -0.7302 0.6833 0.0000
vn -0.7302 0.6833 0.0000
vn -0.7302 0.6833 0.0000
vn -0.7302 0.6833 0.0000
vn 0.0000 0.5156 0.8568
vn 0.0000 0.5156 0.8568
vn 0.0000 0.5156 0.8568
vn 0.0000 0.5156 0.8568
vn 0.8568 0.5156 0.0000
vn 0.8568 0.5156 0.0000
vn 0.8568 0.5156 0.0000
vn 0.8568 0.5156 0.0000
vn 0.0000 0.5156 -0.8568
vn 0.0000 0.5156 -0.8568
vn 0.0000 0.5156 -0.8568
vn 0.0000 0.5156 -0.8568
vn -0.8568 0.5156 0.0000
vn -0.8568 0.5156 0.0000
vn -0.8568 0.5156 0.0000
vn -0.8568 0.5156 0.0000
vn 0.0000 0.0000 1.0000
vn 0.0000 0.0000 1.0000
vn 0.0000 0.0000 1.0000
vn 0.0000 0.0000 1.0000
vn 1.0000 0.0000 0.0000
vn 1.0000 0.0000 0.0000
vn 1.0000 0.0000 0.0000
vn 1.0000 0.0000 0.0000
vn 0.0000 0.0000 -1.0000
vn 0.0000 0.0000 -1.0000
vn 0.0000 0.0000 -1.0000
vn 0.0000 0.0000 -1.0000
vn -1.0000 0.0000 0.0000
vn -1.0000 0.0000 0.0000
vn -1.0000 0.0000 0.0000
vn -1.0000 0.0000 0.0000
vn 0.0000 -0.0590 0.9983
vn 0.0000 -0.0590 0.9983
vn 0.0000 -0.0590 0.9983
vn 0.0000 -0.0590 0.9983
vn 0.9983 -0.0590 0.0000
vn 0.9983 -0.0590 0.0000
vn 0.9983 -0.0590 0.0000
vn 0.9983 -0.0590 0.0000
vn 0.9983 -0.0590 0.0000
vn 0.0000 -0.0590 -0.9983
vn 0.0000 -0.0590 -0.9983
vn 0.0000 -0.0590 -0.9983
vn 0.0000 -0.0590 -0.9983
vn 0.0000 -0.0590 -0.9983
vn -0.9983 -0.0590 0.0000
vn -0.9983 -0.0590 0.0000
vn -0.9983 -0.0590 0.0000
vn -0.9983 -0.0590 0.0000
vn -0.9954 0.0958 -0.0000
vn -0.9954 0.0958 -0.0000
vn -0.9954 0.0958 -0.0000
vn -0.9954 0.0958 -0.0000
vn -0.9954 0.0958 -0.0000
vn -0.9954 0.0958 -0.0000
vn -0.9954 0.0958 -0.0000
vn -0.9954 0.0958 -0.0000
vn -0.9954 0.0958 -0.0000
vn -0.9954 0.0958 -0.0000
vn -0.9954 0.0958 -0.0000
vn -0.9954 0.0958 -0.0000
vn 0.0000 0.0958 0.9954
vn 0.0000 0.0958 0.9954
vn 0.0000 0.0958 0.9954
vn 0.0000 0.0958 0.9954
vn 0.0000 0.0958 0.9954
vn 0.0000 0.0958 0.9954
vn 0.9954 0.0958 0.0000
vn 0.9954 0.0958 0.0000
vn 0.9954 0.0958 0.0000
vn 0.9954 0.0958 0.0000
vn 0.9954 0.0958 0.0000
vn 0.9954 0.0958 0.0000
vn 0.0000 0.0957 -0.9954
vn 0.0000 0.0957 -0.9954
vn 0.0000 0.0957 -0.9954
vn 0.0000 0.0957 -0.9954
vn 0.0000 0.0957 -0.9954
vn 0.0000 0.0957 -0.9954
vn 0.7127 -0.0011 0.7015
vn 0.7127 -0.0011 0.7015
vn 0.7127 -0.0011 0.7015
vn 0.7127 -0.0011 0.7015
vn 0.7127 -0.0011 0.7015
vn 0.7127 -0.0011 0.7015
vn 0.7127 -0.0011 0.7015
vn 0.7127 -0.0011 0.7015
vn 0.7127 -0.0011 0.7015
vn 0.7127 -0.0011 0.7015
vn 0.7127 -0.0011 0.7015
vn 0.7127 -0.0011 0.7015
vn -0.4764 0.7463 -0.4649
vn -0.4764 0.7463 -0.4649
vn -0.4764 0.7463 -0.4649
vn -0.4764 0.7463 -0.4649
vn -0.4764 0.7463 -0.4649
vn -0.4764 0.7463 -0.4649
vn -0.4764 0.7463 -0.4649
vn -0.4764 0.7463 -0.4649
vn -0.4764 0.7463 -0.4649
vn -0.4764 0.7463 -0.4649
vn -0.4764 0.7463 -0.4649
vn -0.4764 0.7463 -0.4649
vn 0.5625 0.7205 -0.4055
vn 0.5625 0.7205 -0.4055
vn 0.5625 0.7205 -0.4055
vn 0.5625 0.7205 -0.4055
vn 0.5625 0.7205 -0.4055
vn 0.5625 0.7205 -0.4055
vn 0.5625 0.7205 -0.4055
vn 0.5625 0.7205 -0.4055
vn 0.5625 0.7205 -0.4055
vn 0.5625 0.7205 -0.4055
vn 0.5625 0.7205 -0.4055
vn 0.5625 0.7205 -0.4055
vn -0.6740 0.6898 0.2645
vn -0.6740 0.6898 0.2645
vn -0.6740 0.6898 0.2645
vn -0.6740 0.6898 0.2645
vn 0.6931 0.0027 -0.7209
vn 0.6931 0.0027 -0.7209
vn 0.6931 0.0027 -0.7209
vn 0.6931 0.0027 -0.7209
vn 0.6931 0.0027 -0.7209
vn 0.6931 0.0027 -0.7209
vn 0.6931 0.0027 -0.7209
vn 0.6931 0.0027 -0.7209
vn 0.6931 0.0027 -0.7209
vn 0.6931 0.0027 -0.7209
vn 0.6931 0.0027 -0.7209
vn 0.6931 0.0027 -0.7209
vn 0.2722 0.7065 -0.6532
vn 0.2722 0.7065 -0.6532
vn 0.2722 0.7065 -0.6532
vn 0.2722 0.7065 -0.6532
vn 0.2722 0.7065 -0.6532
vn 0.2722 0.7065 -0.6532
vn 0.2722 0.7065 -0.6532
vn 0.2722 0.7065 -0.6532
vn 0.2722 0.7065 -0.6532
vn 0.2722 0.7065 -0.6532
vn 0.2722 0.7065 -0.6532
vn 0.2722 0.7065 -0.6532
vn 0.2495 0.1332 0.9592
vn 0.2495 0.1332 0.9592
vn 0.2495 0.1332 0.9592
vn 0.2495 0.1332 0.9592
vn 0.2495 0.1332 0.9592
vn 0.2495 0.1332 0.9592
vn 0.2495 0.1332 0.9592
vn 0.2495 0.1332 0.9592
vn 0.2495 0.1332 0.9592
vn 0.2495 0.1332 0.9592
vn 0.2495 0.1332 0.9592
vn 0.2495 0.1332 0.9592
vn -0.4906 0.4452 -0.7491
vn -0.4906 0.4452 -0.7491
vn -0.4906 0.4452 -0.7491
vn -0.4906 0.4452 -0.7491
vn -0.4906 0.4452 -0.7491
vn -0.4906 0.4452 -0.7491
vn -0.4906 0.4452 -0.7491
vn -0.4906 0.4452 -0.7491
vn -0.4906 0.4452 -0.7491
vn -0.4906 0.4452 -0.7491
vn -0.4906 0.4452 -0.7491
vn -0.4906 0.4452 -0.7491
vn 0.3368 0.9245 -0.1787
vn 0.3368 0.9245 -0.1787
vn 0.3368 0.9245 -0.1787
vn 0.3368 0.9245 -0.1787
vn 0.3368 0.9245 -0.1787
vn 0.3368 0.9245 -0.1787
vn 0.3368 0.9245 -0.1787
vn 0.3368 0.9245 -0.1787
vn 0.3368 0.9245 -0.1787
vn 0.3368 0.9245 -0.1787
vn 0.3368 0.9245 -0.1787
vn 0.3368 0.9245 -0.1787
vn -0.8019 0.5924 -0.0780
vn -0.8019 0.5924 -0.0780
vn -0.8019 0.5924 -0.0780
vn -0.8019 0.5924 -0.0780
vn -0.8019 0.5924 -0.0780
vn -0.8019 0.5924 -0.0780
vn -0.8019 0.5924 -0.0780
vn -0.8019 0.5924 -0.0780
vn -0.8019 0.5924 -0.0780
vn -0.8019 0.5924 -0.0780
vn -0.8019 0.5924 -0.0780
vn -0.8019 0.5924 -0.0780
vn 0.2504 0.8072 -0.5345
vn 0.2504 0.8072 -0.5345
vn 0.2504 0.8072 -0.5345
vn 0.2504 0.8072 -0.5345
vn 0.2504 0.8072 -0.5345
vn 0.2504 0.8072 -0.5345
vn 0.2504 0.8072 -0.5345
vn 0.2504 0.8072 -0.5345
vn 0.2504 0.8072 -0.5345
vn 0.2504 0.8072 -0.5345
vn 0.2504 0.8072 -0.5345
vn 0.2504 0.8072 -0.5345
vn 0.3925 0.7836 -0.4816
vn 0.3925 0.7836 -0.4816
vn 0.3925 0.7836 -0.4816
vn 0.3925 0.7836 -0.4816
vn 0.3925 0.7836 -0.4816
vn 0.3925 0.7836 -0.4816
vn 0.3925 0.7836 -0.4816
vn 0.3925 0.7836 -0.4816
vn 0.3925 0.7836 -0.4816
vn 0.3925 0.7836 -0.4816
vn 0.3925 0.7836 -0.4816
vn 0.3925 0.7836 -0.4816
vn 0.0312 0.7173 0.6961
vn 0.0312 0.7173 0.6961
vn 0.0312 0.7173 0.6961
vn 0.0312 0.7173 0.6961
vn 0.0312 0.7173 0.6961
vn 0.0312 0.7173 0.6961
vn 0.0312 0.7173 0.6961
vn 0.0312 0.7173 0.6961
vn 0.0312 0.7173 0.6961
vn 0.0312 0.7173 0.6961
vn 0.0312 0.7173 0.6961
vn 0.0312 0.7173 0.6961
vn -0.0832 0.8726 -0.4813
vn -0.0832 0.8726 -0.4813
vn -0.0832 0.8726 -0.4813
vn -0.0832 0.8726 -0.4813
vn -0.0832 0.8726 -0.4813
vn -0.0832 0.8726 -0.4813
vn -0.0832 0.8726 -0.4813
vn -0.0832 0.8726 -0.4813
vn -0.0832 0.8726 -0.4813
vn -0.0832 0.8726 -0.4813
vn -0.0832 0.8726 -0.4813
vn -0.0832 0.8726 -0.4813
vn -0.6740 0.6898 0.2645
vn -0.6740 0.6898 0.2645
vn -0.6740 0.6898 0.2645
vn -0.6740 0.6898 0.2645
vn -0.6740 0.6898 0.2645
vn -0.6740 0.6898 0.2645
vn -0.6740 0.6898 0.2645
vn -0.6740 0.6898 0.2645
vn 0.7234 -0.0032 0.6904
vn 0.7234 -0.0032 0.6904
vn 0.7234 -0.0032 0.6904
vn -0.4794 0.7526 -0.4515
vn -0.4794 0.7526 -0.4515
vn -0.4794 0.7526 -0.4515
vn 0.5613 0.7183 -0.4111
vn 0.5613 0.7183 -0.4111
vn 0.5613 0.7183 -0.4111
vn -0.6708 0.6879 0.2772
vn -0.6708 0.6879 0.2772
vn -0.6708 0.6879 0.2772
vn 0.6977 0.0018 -0.7164
vn 0.6977 0.0018 -0.7164
vn 0.6977 0.0018 -0.7164
vn 0.2738 0.7063 -0.6528
vn 0.2738 0.7063 -0.6528
vn 0.2738 0.7063 -0.6528
vn 0.2367 0.1323 0.9625
vn 0.2367 0.1323 0.9625
vn 0.2367 0.1323 0.9625
vn -0.4758 0.4507 -0.7553
vn -0.4758 0.4507 -0.7553
vn -0.4758 0.4507 -0.7553
vn 0.3371 0.9250 -0.1755
vn 0.3371 0.9250 -0.1755
vn 0.3371 0.9250 -0.1755
vn -0.7994 0.5926 -0.0987
vn -0.7994 0.5926 -0.0987
vn -0.7994 0.5926 -0.0987
vn 0.2502 0.8066 -0.5356
vn 0.2502 0.8066 -0.5356
vn 0.2502 0.8066 -0.5356
vn 0.3944 0.7828 -0.4812
vn 0.3944 0.7828 -0.4812
vn 0.3944 0.7828 -0.4812
vn 0.0362 0.7169 0.6962
vn 0.0362 0.7169 0.6962
vn 0.0362 0.7169 0.6962
vn -0.0918 0.8722 -0.4805
vn -0.0918 0.8722 -0.4805
vn -0.0918 0.8722 -0.4805
# 326 vertex normals

vt 0.6936 0.1507 0.0000
vt 0.7093 0.2256 0.0000
vt 0.6976 0.2220 0.0000
vt 0.6808 0.1534 0.0000
vt 0.5866 0.2409 0.0000
vt 0.6478 0.2660 0.0000
vt 0.6504 0.2783 0.0000
vt 0.5769 0.2490 0.0000
vt 0.3428 0.9748 0.0000
vt 0.2635 0.9854 0.0000
vt 0.2530 0.9061 0.0000
vt 0.3322 0.8955 0.0000
vt 0.5662 0.1728 0.0000
vt 0.5798 0.1709 0.0000
vt 0.6824 0.2172 0.0000
vt 0.6689 0.1663 0.0000
vt 0.6452 0.2499 0.0000
vt 0.5993 0.2312 0.0000
vt 0.5953 0.1795 0.0000
vt 0.6710 0.2136 0.0000
vt 0.6619 0.1785 0.0000
vt 0.6434 0.2381 0.0000
vt 0.6090 0.2246 0.0000
vt 0.6057 0.1885 0.0000
vt 0.5297 0.7015 0.0000
vt 0.5283 0.6508 0.0000
vt 0.6527 0.6447 0.0000
vt 0.6529 0.6962 0.0000
vt 0.5255 0.6012 0.0000
vt 0.6487 0.5918 0.0000
vt 0.5212 0.5517 0.0000
vt 0.6440 0.5389 0.0000
vt 0.5151 0.5022 0.0000
vt 0.6359 0.4872 0.0000
vt 0.6675 0.6452 0.0000
vt 0.6686 0.7029 0.0000
vt 0.6634 0.5912 0.0000
vt 0.6651 0.6126 0.0000
vt 0.6589 0.5370 0.0000
vt 0.6605 0.5559 0.0000
vt 0.6511 0.4777 0.0000
vt 0.6688 0.4795 0.0000
vt 0.6707 0.5060 0.0000
vt 0.6729 0.5364 0.0000
vt 0.6657 0.5367 0.0000
vt 0.7007 0.6406 0.0000
vt 0.6894 0.6542 0.0000
vt 0.7035 0.6684 0.0000
vt 0.6867 0.6988 0.0000
vt 0.6962 0.6040 0.0000
vt 0.6728 0.5633 0.0000
vt 0.6826 0.5172 0.0000
vt 0.6829 0.4809 0.0000
vt 0.7037 0.8192 0.0000
vt 0.7037 0.8185 0.0000
vt 0.7004 0.8324 0.0000
vt 0.7003 0.8334 0.0000
vt 0.7246 0.8527 0.0000
vt 0.7160 0.8585 0.0000
vt 0.7377 0.8727 0.0000
vt 0.7260 0.8734 0.0000
vt 0.7469 0.8881 0.0000
vt 0.7326 0.8850 0.0000
vt 0.6343 0.8616 0.0000
vt 0.6344 0.8619 0.0000
vt 0.6479 0.8652 0.0000
vt 0.6476 0.8650 0.0000
vt 0.7055 0.9134 0.0000
vt 0.7019 0.9046 0.0000
vt 0.7003 0.9175 0.0000
vt 0.6977 0.9070 0.0000
vt 0.6780 0.9308 0.0000
vt 0.6809 0.9179 0.0000
vt 0.6557 0.8956 0.0000
vt 0.6640 0.8908 0.0000
vt 0.6495 0.8857 0.0000
vt 0.6591 0.8834 0.0000
vt 0.6582 0.8476 0.0000
vt 0.6661 0.8546 0.0000
vt 0.6714 0.8387 0.0000
vt 0.6759 0.8477 0.0000
vt 0.6964 0.8495 0.0000
vt 0.6963 0.8504 0.0000
vt 0.7055 0.8655 0.0000
vt 0.7118 0.8744 0.0000
vt 0.7155 0.8813 0.0000
vt 0.6646 0.8694 0.0000
vt 0.6642 0.8692 0.0000
vt 0.6974 0.8935 0.0000
vt 0.6947 0.8944 0.0000
vt 0.6845 0.9017 0.0000
vt 0.6743 0.8849 0.0000
vt 0.6711 0.8804 0.0000
vt 0.6758 0.8631 0.0000
vt 0.6816 0.8588 0.0000
vt 0.6927 0.8652 0.0000
vt 0.6926 0.8657 0.0000
vt 0.6963 0.8717 0.0000
vt 0.6989 0.8752 0.0000
vt 0.7003 0.8780 0.0000
vt 0.6799 0.8732 0.0000
vt 0.6797 0.8731 0.0000
vt 0.6932 0.8830 0.0000
vt 0.6920 0.8832 0.0000
vt 0.6879 0.8863 0.0000
vt 0.6838 0.8795 0.0000
vt 0.6824 0.8777 0.0000
vt 0.6844 0.8707 0.0000
vt 0.6867 0.8689 0.0000
vt 0.6901 0.8757 0.0000
# 110 texture coords

o polySurface9
g polySurface9
usemtl prop_3_lambert3SG
s 39
f 1/1/1 2/2/2 4/3/3 3/4/4 
s 40
f 5/5/5 6/6/6 8/7/7 7/8/8 
s 41
f 7/9/9 8/10/10 2/11/11 1/12/12 
s 42
f 2/2/13 8/7/14 6/6/15 4/3/16 
s 43
f 7/8/17 1/13/18 3/14/19 5/5/20 
s 44
f 3/4/21 4/3/22 10/15/23 9/16/24 
s 45
f 4/3/25 6/6/26 11/17/27 10/15/28 
s 46
f 6/6/29 5/5/30 12/18/31 11/17/32 
s 47
f 5/5/33 3/14/34 9/19/35 12/18/36 
s 48
f 9/16/37 10/15/38 14/20/39 13/21/40 
s 49
f 10/15/41 11/17/42 15/22/43 14/20/44 
s 50
f 11/17/45 12/18/46 16/23/47 15/22/48 
s 51
f 12/18/49 9/19/50 13/24/51 16/23/52 
s 52
f 13/25/53 14/26/54 18/27/55 17/28/56 
s 53
f 14/26/57 15/29/58 19/30/59 18/27/60 
s 54
f 15/29/61 16/31/62 20/32/63 19/30/64 
s 55
f 16/31/65 13/33/66 17/34/67 20/32/68 
s 56
f 17/28/69 18/27/70 22/35/71 21/36/72 
s 57
f 18/27/73 19/30/74 23/37/75 30/38/76 22/35/77 
s 58
f 19/30/78 20/32/79 24/39/80 31/40/81 23/37/82 
s 59
f 20/32/83 17/34/84 21/41/85 24/39/86 
s 60
f 24/39/87 21/41/88 25/42/89 33/43/90 26/44/91 32/45/92 
f 26/44/93 33/43/94 37/52/95 
f 34/53/96 33/43/97 25/42/98 
s 61
f 21/36/99 22/35/100 27/46/101 29/47/102 28/48/103 25/49/104 
s 62
f 22/35/105 30/38/106 27/46/107 
s 63
f 23/37/108 35/50/109 30/38/110 
s 64
f 23/37/111 31/40/112 36/51/113 
s 65
f 32/45/114 31/40/115 24/39/116 
s 66
f 34/54/117 25/55/118 38/56/119 39/57/120 
f 39/57/121 38/56/122 52/82/123 53/83/124 
f 53/83/125 52/82/126 66/96/127 67/97/128 
s 67
f 25/55/129 28/58/130 40/59/131 38/56/132 
f 38/56/133 40/59/134 54/84/135 52/82/136 
f 52/82/137 54/84/138 68/98/139 66/96/140 
s 68
f 28/58/141 29/60/142 41/61/143 40/59/144 
f 40/59/145 41/61/146 55/85/147 54/84/148 
f 54/84/149 55/85/150 69/99/151 68/98/152 
s 69
f 29/60/153 27/62/154 42/63/155 41/61/156 
s 70
f 32/64/157 26/65/158 44/66/159 43/67/160 
f 43/67/161 44/66/162 58/87/163 57/88/164 
f 57/88/165 58/87/166 72/101/167 71/102/168 
s 71
f 27/62/169 30/68/170 45/69/171 42/63/172 
f 42/63/173 45/69/174 59/89/175 56/86/176 
f 56/86/177 59/89/178 73/103/179 70/100/180 
s 72
f 30/68/181 35/70/182 46/71/183 45/69/184 
f 45/69/185 46/71/186 60/90/187 59/89/188 
f 59/89/189 60/90/190 74/104/191 73/103/192 
s 73
f 35/70/193 23/72/194 47/73/195 46/71/196 
f 46/71/197 47/73/198 61/91/199 60/90/200 
f 60/90/201 61/91/202 75/105/203 74/104/204 
s 74
f 23/72/205 36/74/206 48/75/207 47/73/208 
f 47/73/209 48/75/210 62/92/211 61/91/212 
f 61/91/213 62/92/214 76/106/215 75/105/216 
s 75
f 36/74/217 31/76/218 49/77/219 48/75/220 
f 48/75/221 49/77/222 63/93/223 62/92/224 
f 62/92/225 63/93/226 77/107/227 76/106/228 
s 76
f 31/76/229 32/64/230 43/67/231 49/77/232 
f 49/77/233 43/67/234 57/88/235 63/93/236 
f 63/93/237 57/88/238 71/102/239 77/107/240 
s 77
f 26/65/241 37/78/242 50/79/243 44/66/244 
f 44/66/245 50/79/246 64/94/247 58/87/248 
f 58/87/249 64/94/250 78/108/251 72/101/252 
s 78
f 37/78/253 33/80/254 51/81/255 50/79/256 
f 50/79/257 51/81/258 65/95/259 64/94/260 
f 64/94/261 65/95/262 79/109/263 78/108/264 
s 79
f 33/80/265 34/54/266 39/57/267 51/81/268 
f 51/81/269 39/57/270 53/83/271 65/95/272 
f 65/95/273 53/83/274 67/97/275 79/109/276 
s 80
f 41/61/277 42/63/278 56/86/279 55/85/280 
f 55/85/281 56/86/282 70/100/283 69/99/284 
s 81
f 67/97/285 66/96/286 80/110/287 
s 82
f 66/96/288 68/98/289 80/110/290 
s 83
f 68/98/291 69/99/292 80/110/293 
s 84
f 69/99/294 70/100/295 80/110/296 
s 85
f 71/102/297 72/101/298 80/110/299 
s 86
f 70/100/300 73/103/301 80/110/302 
s 87
f 73/103/303 74/104/304 80/110/305 
s 88
f 74/104/306 75/105/307 80/110/308 
s 89
f 75/105/309 76/106/310 80/110/311 
s 90
f 76/106/312 77/107/313 80/110/314 
s 91
f 77/107/315 71/102/316 80/110/317 
s 92
f 72/101/318 78/108/319 80/110/320 
s 93
f 78/108/321 79/109/322 80/110/323 
s 94
f 79/109/324 67/97/325 80/110/326 
# 65 polygons - 20 triangles

