# Wavefront Obj file
# 
# verts: 32 uv-s: 42
mtllib la_puerta.mtl

g pCube1
#pivot 0.000000 0.000000 0.000000

v -0.832625 0.000000 2.965365
v 1.359268 0.000000 2.965365
v -0.832625 20.361679 2.965365
v 1.359268 20.361679 2.965365
v -0.832625 20.361679 -8.032179
v 1.359268 20.361679 -8.032179
v -0.832625 0.000000 -8.032179
v 1.359268 0.000000 -8.032179
v 0.949950 1.530522 -7.205530
v 0.949950 1.530522 2.138715
v 0.949950 18.831160 -7.205530
v 0.949950 18.831160 2.138715
v -0.423307 1.530522 -7.205530
v -0.423307 1.530522 2.138715
v -0.423307 18.831160 2.138715
v -0.423307 18.831160 -7.205530
v 1.319686 2.044244 -6.928063
v 1.319686 2.044244 1.861248
v 1.319686 18.317436 -6.928063
v 1.319686 18.317436 1.861248
v -0.793043 2.044244 -6.928063
v -0.793043 2.044244 1.861248
v -0.793043 18.317436 1.861248
v -0.793043 18.317436 -6.928063
v 0.792816 6.102444 -4.736192
v 0.792816 6.102444 -0.330623
v 0.792816 14.259237 -4.736192
v 0.792816 14.259237 -0.330623
v -0.266173 6.102444 -4.736192
v -0.266173 6.102444 -0.330623
v -0.266173 14.259237 -0.330623
v -0.266173 14.259237 -4.736192
# 32 positions

vt 0.502109 0.907498
vt 0.502968 0.937391
vt 0.225274 0.945367
vt 0.224416 0.915474
vt 0.023243 0.951169
vt 0.022384 0.921276
vt 0.981834 0.893720
vt 0.982693 0.923613
vt 0.705000 0.931589
vt 0.704141 0.901696
vt 0.679493 0.262918
vt 0.678871 0.522456
vt 0.321038 0.522082
vt 0.321660 0.262544
vt 0.680259 0.522640
vt 0.679639 0.261991
vt 0.320273 0.262360
vt 0.320893 0.523009
vt 0.953932 0.058355
vt 0.953869 0.726741
vt 0.884371 0.675036
vt 0.884564 0.110153
vt 0.046600 0.726645
vt 0.115968 0.674847
vt 0.046663 0.058259
vt 0.116161 0.109964
vt 0.955870 0.728084
vt 0.955818 0.056834
vt 0.886021 0.108760
vt 0.886206 0.676063
vt 0.044662 0.056916
vt 0.114326 0.108937
vt 0.044714 0.728166
vt 0.114510 0.676240
vt 0.858063 0.653389
vt 0.858504 0.131947
vt 0.142028 0.653053
vt 0.142468 0.131611
vt 0.859601 0.130500
vt 0.860034 0.654175
vt 0.140497 0.130825
vt 0.140931 0.654501
# 42 texture coordinates

vn 0.000000 0.000000 1.000000
vn 0.000000 0.000000 1.000000
vn 0.000000 0.000000 1.000000
vn 0.000000 0.000000 1.000000
vn 0.000000 1.000000 0.000000
vn 0.000000 1.000000 0.000000
vn 0.000000 1.000000 0.000000
vn 0.000000 1.000000 0.000000
vn 0.000000 0.000000 -1.000000
vn 0.000000 0.000000 -1.000000
vn 0.000000 0.000000 -1.000000
vn 0.000000 0.000000 -1.000000
vn 0.000000 -1.000000 0.000000
vn 0.000000 -1.000000 0.000000
vn 0.000000 -1.000000 0.000000
vn 0.000000 -1.000000 0.000000
vn 1.000000 0.000000 0.000000
vn 1.000000 0.000000 0.000000
vn 1.000000 0.000000 0.000000
vn 1.000000 0.000000 0.000000
vn -1.000000 0.000000 0.000000
vn -1.000000 0.000000 0.000000
vn -1.000000 0.000000 0.000000
vn -1.000000 0.000000 0.000000
vn 0.966050 0.258357 0.000000
vn 0.966050 0.258357 0.000000
vn 0.966050 0.258357 0.000000
vn 0.966050 0.258357 0.000000
vn 0.896158 0.000000 0.443736
vn 0.896158 0.000000 0.443736
vn 0.896158 0.000000 0.443736
vn 0.896158 0.000000 0.443736
vn 0.966049 -0.258358 0.000000
vn 0.966049 -0.258358 0.000000
vn 0.966049 -0.258358 0.000000
vn 0.966049 -0.258358 0.000000
vn 0.896158 0.000000 -0.443735
vn 0.896158 0.000000 -0.443735
vn 0.896158 0.000000 -0.443735
vn 0.896158 0.000000 -0.443735
vn -0.966050 0.258357 0.000000
vn -0.966050 0.258357 0.000000
vn -0.966050 0.258357 0.000000
vn -0.966050 0.258357 0.000000
vn -0.896158 0.000000 -0.443735
vn -0.896158 0.000000 -0.443735
vn -0.896158 0.000000 -0.443735
vn -0.896158 0.000000 -0.443735
vn -0.966049 -0.258358 0.000000
vn -0.966049 -0.258358 0.000000
vn -0.966049 -0.258358 0.000000
vn -0.966049 -0.258358 0.000000
vn -0.896158 0.000000 0.443736
vn -0.896158 0.000000 0.443736
vn -0.896158 0.000000 0.443736
vn -0.896158 0.000000 0.443736
vn 0.811642 -0.584155 0.000000
vn 0.811642 -0.584155 0.000000
vn 0.811642 -0.584155 0.000000
vn 0.811642 -0.584155 0.000000
vn 0.600228 0.000000 -0.799829
vn 0.600228 0.000000 -0.799829
vn 0.600228 0.000000 -0.799829
vn 0.600228 0.000000 -0.799829
vn 0.811643 0.584154 0.000000
vn 0.811643 0.584154 0.000000
vn 0.811643 0.584154 0.000000
vn 0.811643 0.584154 0.000000
vn 0.600228 0.000000 0.799829
vn 0.600228 0.000000 0.799829
vn 0.600228 0.000000 0.799829
vn 0.600228 0.000000 0.799829
vn -0.811642 -0.584155 0.000000
vn -0.811642 -0.584155 0.000000
vn -0.811642 -0.584155 0.000000
vn -0.811642 -0.584155 0.000000
vn -0.600228 0.000000 0.799829
vn -0.600228 0.000000 0.799829
vn -0.600228 0.000000 0.799829
vn -0.600228 0.000000 0.799829
vn -0.811643 0.584154 0.000000
vn -0.811643 0.584154 0.000000
vn -0.811643 0.584154 0.000000
vn -0.811643 0.584154 0.000000
vn -0.600228 0.000000 -0.799829
vn -0.600228 0.000000 -0.799829
vn -0.600228 0.000000 -0.799829
vn -0.600228 0.000000 -0.799829
vn 0.991677 0.128748 0.000000
vn 0.991677 0.128748 0.000000
vn 0.991677 0.128748 0.000000
vn 0.991677 0.128748 0.000000
vn 0.972305 0.000000 0.233717
vn 0.972305 0.000000 0.233717
vn 0.972305 0.000000 0.233717
vn 0.972305 0.000000 0.233717
vn 0.991677 -0.128748 0.000000
vn 0.991677 -0.128748 0.000000
vn 0.991677 -0.128748 0.000000
vn 0.991677 -0.128748 0.000000
vn 0.972305 0.000000 -0.233717
vn 0.972305 0.000000 -0.233717
vn 0.972305 0.000000 -0.233717
vn 0.972305 0.000000 -0.233717
vn -0.991677 0.128748 0.000000
vn -0.991677 0.128748 0.000000
vn -0.991677 0.128748 0.000000
vn -0.991677 0.128748 0.000000
vn -0.972305 0.000000 -0.233717
vn -0.972305 0.000000 -0.233717
vn -0.972305 0.000000 -0.233717
vn -0.972305 0.000000 -0.233717
vn -0.991677 -0.128748 0.000000
vn -0.991677 -0.128748 0.000000
vn -0.991677 -0.128748 0.000000
vn -0.991677 -0.128748 0.000000
vn -0.972305 0.000000 0.233717
vn -0.972305 0.000000 0.233717
vn -0.972305 0.000000 0.233717
vn -0.972305 0.000000 0.233717
# 120 normals

usemtl initialShadingGroup
s 1
f 1/1/1 2/2/2 4/3/3 3/4/4
s 2
f 3/4/5 4/3/6 6/5/7 5/6/8
s 3
f 5/7/9 6/8/10 8/9/11 7/10/12
s 4
f 7/10/13 8/9/14 2/2/15 1/1/16
s 5
f 26/11/17 25/12/18 27/13/19 28/14/20
s 6
f 29/15/21 30/16/22 31/17/23 32/18/24
s 7
f 2/19/25 8/20/26 9/21/27 10/22/28
s 8
f 8/20/29 6/23/30 11/24/31 9/21/32
s 9
f 6/23/33 4/25/34 12/26/35 11/24/36
s 10
f 4/25/37 2/19/38 10/22/39 12/26/40
s 11
f 7/27/41 1/28/42 14/29/43 13/30/44
s 12
f 1/28/45 3/31/46 15/32/47 14/29/48
s 13
f 3/31/49 5/33/50 16/34/51 15/32/52
s 14
f 5/33/53 7/27/54 13/30/55 16/34/56
s 15
f 10/22/57 9/21/58 17/35/59 18/36/60
s 16
f 9/21/61 11/24/62 19/37/63 17/35/64
s 17
f 11/24/65 12/26/66 20/38/67 19/37/68
s 18
f 12/26/69 10/22/70 18/36/71 20/38/72
s 19
f 13/30/73 14/29/74 22/39/75 21/40/76
s 20
f 14/29/77 15/32/78 23/41/79 22/39/80
s 21
f 15/32/81 16/34/82 24/42/83 23/41/84
s 22
f 16/34/85 13/30/86 21/40/87 24/42/88
s 23
f 18/36/89 17/35/90 25/12/91 26/11/92
s 24
f 17/35/93 19/37/94 27/13/95 25/12/96
s 25
f 19/37/97 20/38/98 28/14/99 27/13/100
s 26
f 20/38/101 18/36/102 26/11/103 28/14/104
s 27
f 21/40/105 22/39/106 30/16/107 29/15/108
s 28
f 22/39/109 23/41/110 31/17/111 30/16/112
s 29
f 23/41/113 24/42/114 32/18/115 31/17/116
s 30
f 24/42/117 21/40/118 29/15/119 32/18/120

# 30 faces
