# Wavefront Obj file
# 
# verts: 40 uv-s: 76
mtllib boton.mtl

g pCube1
#pivot 0.000000 0.000000 0.000000

v -9.835373 0.039643 9.872502
v 10.157890 0.039643 9.872502
v -9.835373 3.311325 9.872502
v 10.157890 3.311325 9.872502
v -9.835373 3.311325 -10.120761
v 10.157890 3.311325 -10.120761
v -9.835373 0.039643 -10.120761
v 10.157890 0.039643 -10.120761
v -7.457295 3.311325 7.494422
v 7.779811 3.311325 7.494422
v 7.779811 3.311325 -7.742682
v -7.457295 3.311325 -7.742682
v -7.457296 2.555746 7.494425
v 7.779812 2.555746 7.494425
v 7.779812 2.555746 -7.742684
v -7.457296 2.555746 -7.742684
v -5.059124 2.555746 5.096252
v 5.381640 2.555746 5.096252
v 5.381640 2.555746 -5.344511
v -5.059124 2.555746 -5.344511
v -5.059129 3.763675 5.096257
v 5.381645 3.763675 5.096257
v 5.381645 3.763675 -5.344517
v -5.059129 3.763675 -5.344517
v -3.192704 3.999048 3.229832
v 3.515220 3.999048 3.229832
v 3.515220 3.999048 -3.478091
v -3.192704 3.999048 -3.478091
v -3.192704 2.628956 3.229832
v 3.515220 2.628956 3.229832
v 3.515220 2.628956 -3.478091
v -3.192704 2.628956 -3.478091
v -2.118810 2.628956 2.155939
v 2.441327 2.628956 2.155939
v 2.441327 2.628956 -2.404198
v -2.118810 2.628956 -2.404198
v -2.118810 3.819230 2.155939
v 2.441327 3.819230 2.155939
v 2.441327 3.819230 -2.404198
v -2.118810 3.819230 -2.404198
# 40 positions

vt 0.767221 0.493877
vt 0.762776 0.335166
vt 0.921487 0.330720
vt 0.925932 0.489431
vt 0.741418 0.125804
vt 0.785462 0.167750
vt 0.715384 0.176475
vt 0.707677 0.142555
vt 0.930378 0.648142
vt 0.934823 0.806853
vt 0.776112 0.811299
vt 0.771667 0.652588
vt 0.810528 0.031282
vt 0.949456 0.031282
vt 0.949456 0.170210
vt 0.810528 0.170210
vt 0.780558 0.970010
vt 0.939269 0.965564
vt 0.028818 0.301339
vt 0.094537 0.019077
vt 0.120877 0.061379
vt 0.072084 0.291276
vt 0.586499 0.166401
vt 0.496004 0.448757
vt 0.465196 0.414312
vt 0.540602 0.191510
vt 0.217890 0.509552
vt 0.232491 0.466653
vt 0.190153 0.076197
vt 0.139702 0.273780
vt 0.418522 0.366908
vt 0.478328 0.171581
vt 0.249927 0.402897
vt 0.037545 0.553964
vt 0.448551 0.557140
vt 0.383363 0.621328
vt 0.101733 0.619152
vt 0.445375 0.968146
vt 0.381187 0.902958
vt 0.034369 0.964970
vt 0.099557 0.900782
vt 0.348766 0.304071
vt 0.271628 0.360934
vt 0.234477 0.304848
vt 0.301865 0.260604
vt 0.405189 0.030736
vt 0.421751 0.123235
vt 0.360619 0.125095
vt 0.343635 0.042228
vt 0.403033 0.221044
vt 0.343830 0.198475
vt 0.238607 0.279528
vt 0.288327 0.244120
vt 0.338543 0.124868
vt 0.327912 0.064435
vt 0.324257 0.188759
vt 0.188416 0.230196
vt 0.230867 0.196742
vt 0.269001 0.115512
vt 0.264561 0.064173
vt 0.258556 0.160318
vt 0.582094 0.455810
vt 0.663849 0.285762
vt 0.688236 0.322579
vt 0.621286 0.468039
vt 0.625196 0.940741
vt 0.497320 0.749211
vt 0.548538 0.747631
vt 0.642293 0.888629
vt 0.545289 0.583868
vt 0.582453 0.599870
vt 0.673267 0.060645
vt 0.751578 0.034762
vt 0.705725 0.261008
vt 0.652184 0.219087
vt 0.626677 0.135326
# 76 texture coordinates

vn 0.000000 0.000000 1.000000
vn 0.000000 0.000000 1.000000
vn 0.000000 0.000000 1.000000
vn 0.000000 0.000000 1.000000
vn 0.000000 1.000000 0.000000
vn 0.000000 1.000000 0.000000
vn 0.000000 1.000000 0.000000
vn 0.000000 1.000000 0.000000
vn 0.000000 0.000000 -1.000000
vn 0.000000 0.000000 -1.000000
vn 0.000000 0.000000 -1.000000
vn 0.000000 0.000000 -1.000000
vn 0.000000 -1.000000 0.000000
vn 0.000000 -1.000000 0.000000
vn 0.000000 -1.000000 0.000000
vn 0.000000 -1.000000 0.000000
vn 1.000000 0.000000 0.000000
vn 1.000000 0.000000 0.000000
vn 1.000000 0.000000 0.000000
vn 1.000000 0.000000 0.000000
vn -1.000000 0.000000 0.000000
vn -1.000000 0.000000 0.000000
vn -1.000000 0.000000 0.000000
vn -1.000000 0.000000 0.000000
vn 0.000000 1.000000 0.000000
vn 0.000000 1.000000 0.000000
vn 0.000000 1.000000 0.000000
vn 0.000000 1.000000 0.000000
vn 0.000000 1.000000 0.000000
vn 0.000000 1.000000 0.000000
vn 0.000000 1.000000 0.000000
vn 0.000000 1.000000 0.000000
vn 0.000000 -0.000003 -1.000000
vn 0.000000 -0.000003 -1.000000
vn 0.000000 -0.000003 -1.000000
vn 0.000000 -0.000003 -1.000000
vn -1.000000 -0.000001 0.000000
vn -1.000000 -0.000001 0.000000
vn -1.000000 -0.000001 0.000000
vn -1.000000 -0.000001 0.000000
vn 0.000000 -0.000003 1.000000
vn 0.000000 -0.000003 1.000000
vn 0.000000 -0.000003 1.000000
vn 0.000000 -0.000003 1.000000
vn 1.000000 -0.000001 0.000000
vn 1.000000 -0.000001 0.000000
vn 1.000000 -0.000001 0.000000
vn 1.000000 -0.000001 0.000000
vn 0.000000 1.000000 0.000000
vn 0.000000 1.000000 0.000000
vn 0.000000 1.000000 0.000000
vn 0.000000 1.000000 0.000000
vn 0.000000 1.000000 0.000000
vn 0.000000 1.000000 0.000000
vn 0.000000 1.000000 0.000000
vn 0.000000 1.000000 0.000000
vn 0.000000 -0.000004 1.000000
vn 0.000000 -0.000004 1.000000
vn 0.000000 -0.000004 1.000000
vn 0.000000 -0.000004 1.000000
vn 1.000000 -0.000004 0.000000
vn 1.000000 -0.000004 0.000000
vn 1.000000 -0.000004 0.000000
vn 1.000000 -0.000004 0.000000
vn 0.000000 -0.000005 -1.000000
vn 0.000000 -0.000005 -1.000000
vn 0.000000 -0.000005 -1.000000
vn 0.000000 -0.000005 -1.000000
vn -1.000000 -0.000004 0.000000
vn -1.000000 -0.000004 0.000000
vn -1.000000 -0.000004 0.000000
vn -1.000000 -0.000004 0.000000
vn 0.000000 0.992142 0.125118
vn 0.000000 0.992142 0.125118
vn 0.000000 0.992142 0.125118
vn 0.000000 0.992142 0.125118
vn 0.125118 0.992142 0.000000
vn 0.125118 0.992142 0.000000
vn 0.125118 0.992142 0.000000
vn 0.125118 0.992142 0.000000
vn 0.000000 0.992142 -0.125118
vn 0.000000 0.992142 -0.125118
vn 0.000000 0.992142 -0.125118
vn 0.000000 0.992142 -0.125118
vn -0.125118 0.992142 0.000000
vn -0.125118 0.992142 0.000000
vn -0.125118 0.992142 0.000000
vn -0.125118 0.992142 0.000000
vn 0.000000 0.000000 -1.000000
vn 0.000000 0.000000 -1.000000
vn 0.000000 0.000000 -1.000000
vn 0.000000 0.000000 -1.000000
vn -1.000000 0.000000 0.000000
vn -1.000000 0.000000 0.000000
vn -1.000000 0.000000 0.000000
vn -1.000000 0.000000 0.000000
vn 0.000000 0.000000 1.000000
vn 0.000000 0.000000 1.000000
vn 0.000000 0.000000 1.000000
vn 0.000000 0.000000 1.000000
vn 1.000000 0.000000 0.000000
vn 1.000000 0.000000 0.000000
vn 1.000000 0.000000 0.000000
vn 1.000000 0.000000 0.000000
vn 0.000000 1.000000 0.000000
vn 0.000000 1.000000 0.000000
vn 0.000000 1.000000 0.000000
vn 0.000000 1.000000 0.000000
vn 0.000000 1.000000 0.000000
vn 0.000000 1.000000 0.000000
vn 0.000000 1.000000 0.000000
vn 0.000000 1.000000 0.000000
vn 0.000000 0.000000 1.000000
vn 0.000000 0.000000 1.000000
vn 0.000000 0.000000 1.000000
vn 0.000000 0.000000 1.000000
vn 1.000000 0.000000 0.000000
vn 1.000000 0.000000 0.000000
vn 1.000000 0.000000 0.000000
vn 1.000000 0.000000 0.000000
vn 0.000000 0.000000 -1.000000
vn 0.000000 0.000000 -1.000000
vn 0.000000 0.000000 -1.000000
vn 0.000000 0.000000 -1.000000
vn -1.000000 0.000000 0.000000
vn -1.000000 0.000000 0.000000
vn -1.000000 0.000000 0.000000
vn -1.000000 0.000000 0.000000
# 128 normals

usemtl initialShadingGroup
s 1
f 1/1/1 2/2/2 4/3/3 3/4/4
s 2
f 37/5/5 38/6/6 39/7/7 40/8/8
s 3
f 5/9/9 6/10/10 8/11/11 7/12/12
s 4
f 7/13/13 8/14/14 2/15/15 1/16/16
s 5
f 2/17/17 8/11/18 6/10/19 4/18/20
s 6
f 7/12/21 1/1/22 3/4/23 5/9/24
s 7
f 3/19/25 4/20/26 10/21/27 9/22/28
f 4/23/26 6/24/29 11/25/30 10/26/27
f 6/24/29 5/27/31 12/28/32 11/25/30
f 5/27/31 3/19/25 9/22/28 12/28/32
s 8
f 9/22/33 10/21/34 14/29/35 13/30/36
s 9
f 10/26/37 11/25/38 15/31/39 14/32/40
s 10
f 11/25/41 12/28/42 16/33/43 15/31/44
s 11
f 12/28/45 9/22/46 13/30/47 16/33/48
s 12
f 13/34/49 14/35/50 18/36/51 17/37/52
f 14/35/50 15/38/53 19/39/54 18/36/51
f 15/38/53 16/40/55 20/41/56 19/39/54
f 16/40/55 13/34/49 17/37/52 20/41/56
s 13
f 17/42/57 18/43/58 22/44/59 21/45/60
s 14
f 18/46/61 19/47/62 23/48/63 22/49/64
s 15
f 19/47/65 20/50/66 24/51/67 23/48/68
s 16
f 20/50/69 17/42/70 21/45/71 24/51/72
s 17
f 21/45/73 22/44/74 26/52/75 25/53/76
s 18
f 22/49/77 23/48/78 27/54/79 26/55/80
s 19
f 23/48/81 24/51/82 28/56/83 27/54/84
s 20
f 24/51/85 21/45/86 25/53/87 28/56/88
s 21
f 25/53/89 26/52/90 30/57/91 29/58/92
s 22
f 26/55/93 27/54/94 31/59/95 30/60/96
s 23
f 27/54/97 28/56/98 32/61/99 31/59/100
s 24
f 28/56/101 25/53/102 29/58/103 32/61/104
s 25
f 29/62/105 30/63/106 34/64/107 33/65/108
f 30/66/106 31/67/109 35/68/110 34/69/107
f 31/67/109 32/70/111 36/71/112 35/68/110
f 32/70/111 29/62/105 33/65/108 36/71/112
s 26
f 33/72/113 34/73/114 38/6/115 37/5/116
s 27
f 34/74/117 35/75/118 39/7/119 38/6/120
s 28
f 35/75/121 36/76/122 40/8/123 39/7/124
s 29
f 36/76/125 33/72/126 37/5/127 40/8/128

# 38 faces
