# Wavefront Obj file
# 
# verts: 108 uv-s: 108
mtllib nivel1.mtl

g pPlane2
#pivot 0.000000 0.000000 0.000000

v -45.513969 30.400362 -94.056190
v -33.516411 30.400362 -94.056190
v -45.513969 30.400362 -117.974609
v -33.516411 30.400362 -117.974609
v -26.554770 28.246296 -178.000000
v -48.554768 28.246296 -178.000000
v -28.554770 28.401112 -179.000000
v -46.554768 28.401112 -179.000000
v -26.554770 28.246296 -163.000000
v -48.554768 28.246296 -163.000000
v -26.554770 28.246296 -178.000000
v -48.554768 28.246296 -178.000000
v -32.554768 28.401112 -157.000000
v -42.554768 28.401112 -157.000000
v -26.554770 28.246296 -163.000000
v -48.554768 28.246296 -163.000000
v -44.554768 28.401112 -146.000000
v -54.554768 28.401112 -146.000000
v -32.554768 28.401112 -157.000000
v -42.554768 28.401112 -157.000000
v -44.554768 28.401112 -131.000000
v -54.554768 28.401112 -131.000000
v -44.554768 28.401112 -146.000000
v -54.554768 28.401112 -146.000000
v -34.784317 28.094612 -118.000099
v -44.325226 28.094612 -118.000099
v -44.554768 28.401112 -131.000000
v -54.554768 28.401112 -131.000000
v -35.554768 26.401112 -78.000000
v -41.554768 26.401112 -78.000000
v -35.554768 26.401112 -94.657860
v -41.554768 26.401112 -94.657860
v -47.554768 28.401112 -55.000000
v -53.554768 28.401112 -55.000000
v -47.554768 29.401112 -59.000000
v -53.554768 29.401112 -59.000000
v -47.554768 27.401112 -52.000000
v -53.554768 27.401112 -52.000000
v -47.554768 28.401112 -55.000000
v -53.554768 28.401112 -55.000000
v -47.554768 30.401112 -47.000000
v -53.554768 30.401112 -47.000000
v -47.554768 27.401112 -52.000000
v -53.554768 27.401112 -52.000000
v -47.554768 30.401112 -42.000000
v -53.554768 30.401112 -42.000000
v -47.554768 30.401112 -47.000000
v -53.554768 30.401112 -47.000000
v -46.554768 30.401112 -30.000000
v -54.554768 30.401112 -30.000000
v -47.554768 30.401112 -42.000000
v -53.554768 30.401112 -42.000000
v -43.554768 30.401112 -18.000000
v -57.554768 30.401112 -18.000000
v -43.554768 30.401112 -30.000000
v -57.554768 30.401112 -30.000000
v -55.523369 28.571712 -69.968605
v -50.554768 28.571712 -65.000000
v -57.581436 28.571712 -65.000000
v -50.554768 28.571712 -72.026672
v -50.554768 28.571712 -65.000000
v -55.523369 28.571712 -69.968605
v -45.586163 28.571712 -69.968605
v -50.554768 28.571712 -65.000000
v -50.554768 28.571712 -72.026672
v -43.528095 28.571712 -65.000000
v -50.554768 28.571712 -65.000000
v -45.586163 28.571712 -69.968605
v -45.586163 28.571712 -60.031395
v -50.554768 28.571712 -65.000000
v -43.528095 28.571712 -65.000000
v -50.554768 28.571712 -57.973324
v -50.554768 28.571712 -65.000000
v -45.586163 28.571712 -60.031395
v -55.523376 28.571712 -60.031395
v -50.554768 28.571712 -65.000000
v -50.554768 28.571712 -57.973324
v -57.581436 28.571712 -65.000000
v -50.554768 28.571712 -65.000000
v -55.523376 28.571712 -60.031395
v -55.554768 33.401112 -83.000000
v -55.554768 33.401112 -87.000000
v -41.859604 33.401115 -83.000000
v -41.859604 33.401115 -87.000000
v -55.554768 33.401112 -80.000000
v -64.554764 33.401112 -80.000000
v -55.554768 33.401112 -90.000000
v -64.554764 33.401112 -90.000000
v -55.523369 28.571712 -69.968605
v -64.491768 28.401112 -70.000000
v -55.554768 28.401112 -80.000000
v -64.554764 28.401112 -80.000000
v -45.586163 28.571712 -69.968605
v -50.554768 28.571712 -72.026672
v -37.050732 28.401112 -80.421135
v -38.744274 28.401112 -80.877518
v -43.528095 28.571712 -65.000000
v -45.586163 28.571712 -69.968605
v -36.373318 28.401112 -79.280205
v -37.050732 28.401112 -80.421135
v -55.523369 28.571712 -69.968605
v -57.581436 28.571712 -65.000000
v -64.491768 28.401112 -70.000000
v -64.617767 28.401112 -65.000000
v -57.581436 28.571712 -65.000000
v -55.523376 28.571712 -60.031395
v -64.617767 28.401112 -65.000000
v -64.491768 28.401112 -60.000000
# 108 positions

vt 0.001992 0.001990
vt 0.205688 0.001990
vt 0.205688 0.408080
vt 0.001992 0.408080
vt 0.229652 0.035947
vt 0.229652 0.341553
vt 0.212674 0.375509
vt 0.212674 0.001990
vt 0.490733 0.001990
vt 0.490733 0.375509
vt 0.236061 0.375509
vt 0.236061 0.001990
vt 0.599089 0.001990
vt 0.599089 0.375509
vt 0.497221 0.273640
vt 0.497221 0.103859
vt 0.793122 0.001990
vt 0.793122 0.171771
vt 0.606362 0.375509
vt 0.606362 0.205727
vt 0.500602 0.634172
vt 0.330821 0.634172
vt 0.330821 0.379500
vt 0.500602 0.379500
vt 0.998008 0.545384
vt 0.998008 0.715166
vt 0.777294 0.541487
vt 0.777294 0.379500
vt 0.771159 0.662320
vt 0.669290 0.662320
vt 0.669290 0.379500
vt 0.771159 0.379500
vt 0.364557 0.861486
vt 0.364557 0.963355
vt 0.296645 0.963355
vt 0.296645 0.861486
vt 0.290509 0.861486
vt 0.290509 0.963355
vt 0.239575 0.963355
vt 0.239575 0.861486
vt 0.233439 0.887022
vt 0.233439 0.988891
vt 0.148549 0.988891
vt 0.148549 0.887022
vt 0.142413 0.887022
vt 0.142413 0.988891
vt 0.057522 0.988891
vt 0.057522 0.887022
vt 0.313980 0.857495
vt 0.212111 0.857495
vt 0.195133 0.653757
vt 0.330958 0.653757
vt 0.324686 0.412072
vt 0.324686 0.649765
vt 0.120948 0.649765
vt 0.120948 0.412072
vt 0.840236 0.838457
vt 0.840236 0.719157
vt 0.924594 0.803515
vt 0.913650 0.926806
vt 0.998008 0.842449
vt 0.998008 0.961748
vt 0.823157 0.996855
vt 0.823157 0.877555
vt 0.907515 0.961913
vt 0.817022 0.912497
vt 0.732664 0.996855
vt 0.732664 0.877555
vt 0.726529 0.824710
vt 0.726529 0.944009
vt 0.642171 0.859652
vt 0.636036 0.854029
vt 0.551678 0.938387
vt 0.551678 0.819087
vt 0.545543 0.819087
vt 0.545543 0.938387
vt 0.461185 0.854029
vt 0.370692 0.896827
vt 0.455050 0.812470
vt 0.455050 0.931769
vt 0.046900 0.412072
vt 0.114813 0.412072
vt 0.114813 0.644590
vt 0.046900 0.644590
vt 0.650024 0.815096
vt 0.497221 0.815096
vt 0.497221 0.645314
vt 0.650024 0.645314
vt 0.490210 0.808478
vt 0.337407 0.808478
vt 0.338476 0.638697
vt 0.490743 0.638164
vt 0.179457 0.653757
vt 0.187205 0.682510
vt 0.036934 0.883030
vt 0.001992 0.798673
vt 0.663154 0.621952
vt 0.651653 0.641323
vt 0.506738 0.463858
vt 0.541680 0.379500
vt 0.741926 0.818578
vt 0.657035 0.820718
vt 0.657035 0.701254
vt 0.741392 0.666311
vt 0.833526 0.873563
vt 0.748636 0.871424
vt 0.749169 0.719157
vt 0.833526 0.754099
# 108 texture coordinates

vn 0.000000 1.000000 0.000000
vn 0.000000 1.000000 0.000000
vn 0.000000 1.000000 0.000000
vn 0.000000 1.000000 0.000000
vn 0.000000 0.988227 0.152993
vn 0.000000 0.988227 0.152993
vn 0.000000 0.988227 0.152993
vn 0.000000 0.988227 0.152993
vn 0.000000 1.000000 0.000000
vn 0.000000 1.000000 0.000000
vn 0.000000 1.000000 0.000000
vn 0.000000 1.000000 0.000000
vn 0.000000 0.999667 -0.025794
vn 0.000000 0.999667 -0.025794
vn 0.000000 0.999667 -0.025794
vn 0.000000 0.999667 -0.025794
vn 0.000000 1.000000 0.000000
vn 0.000000 1.000000 0.000000
vn 0.000000 1.000000 0.000000
vn 0.000000 1.000000 0.000000
vn 0.000000 1.000000 0.000000
vn 0.000000 1.000000 0.000000
vn 0.000000 1.000000 0.000000
vn 0.000000 1.000000 0.000000
vn 0.000000 0.999722 0.023571
vn 0.000000 0.999722 0.023571
vn 0.000000 0.999722 0.023571
vn 0.000000 0.999722 0.023571
vn 0.000000 1.000000 0.000000
vn 0.000000 1.000000 0.000000
vn 0.000000 1.000000 0.000000
vn 0.000000 1.000000 0.000000
vn 0.000000 0.970143 0.242536
vn 0.000000 0.970143 0.242536
vn 0.000000 0.970143 0.242536
vn 0.000000 0.970143 0.242536
vn 0.000000 0.948683 0.316228
vn 0.000000 0.948683 0.316228
vn 0.000000 0.948683 0.316228
vn 0.000000 0.948683 0.316228
vn 0.000000 0.857493 -0.514496
vn 0.000000 0.857493 -0.514496
vn 0.000000 0.857493 -0.514496
vn 0.000000 0.857493 -0.514496
vn 0.000000 1.000000 0.000000
vn 0.000000 1.000000 0.000000
vn 0.000000 1.000000 0.000000
vn 0.000000 1.000000 0.000000
vn 0.000000 1.000000 0.000000
vn 0.000000 1.000000 0.000000
vn 0.000000 1.000000 0.000000
vn 0.000000 1.000000 0.000000
vn 0.000000 1.000000 0.000000
vn 0.000000 1.000000 0.000000
vn 0.000000 1.000000 0.000000
vn 0.000000 1.000000 0.000000
vn 0.000000 1.000000 0.000000
vn 0.000000 1.000000 0.000000
vn 0.000000 1.000000 0.000000
vn 0.000000 1.000000 0.000000
vn 0.000000 1.000000 0.000000
vn 0.000000 1.000000 0.000000
vn 0.000000 1.000000 0.000000
vn 0.000000 1.000000 0.000000
vn 0.000000 1.000000 0.000000
vn 0.000000 1.000000 0.000000
vn 0.000000 1.000000 0.000000
vn 0.000000 1.000000 0.000000
vn 0.000000 1.000000 0.000000
vn 0.000000 1.000000 0.000000
vn 0.000000 1.000000 0.000000
vn 0.000000 1.000000 0.000000
vn 0.000000 1.000000 0.000000
vn 0.000000 1.000000 0.000000
vn 0.000000 1.000000 0.000000
vn 0.000000 1.000000 0.000000
vn 0.000000 1.000000 0.000000
vn 0.000000 1.000000 0.000000
vn 0.000000 1.000000 0.000000
vn 0.000000 1.000000 0.000000
vn -0.000000 1.000000 0.000000
vn -0.000000 1.000000 0.000000
vn -0.000000 1.000000 0.000000
vn -0.000000 1.000000 0.000000
vn 0.000000 1.000000 0.000000
vn 0.000000 1.000000 0.000000
vn 0.000000 1.000000 0.000000
vn 0.000000 1.000000 0.000000
vn -0.009479 0.999919 -0.008471
vn -0.009479 0.999919 -0.008471
vn -0.009479 0.999919 -0.008471
vn -0.009479 0.999919 -0.008471
vn 0.004772 0.999909 -0.012644
vn 0.004772 0.999909 -0.012644
vn 0.004772 0.999909 -0.012644
vn 0.004772 0.999909 -0.012644
vn 0.012747 0.999902 -0.005707
vn 0.012747 0.999902 -0.005707
vn 0.012747 0.999902 -0.005707
vn 0.012747 0.999902 -0.005707
vn -0.021305 0.999762 -0.004668
vn -0.021305 0.999762 -0.004668
vn -0.021305 0.999762 -0.004668
vn -0.021305 0.999762 -0.004668
vn -0.021305 0.999762 0.004668
vn -0.021305 0.999762 0.004668
vn -0.021305 0.999762 0.004668
vn -0.021305 0.999762 0.004668
# 108 normals

usemtl initialShadingGroup
f 1/1/1 2/2/2 4/3/3 3/4/4
f 7/5/5 8/6/6 6/7/7 5/8/8
f 11/9/9 12/10/10 10/11/11 9/12/12
f 15/13/13 16/14/14 14/15/15 13/16/16
f 19/17/17 20/18/18 18/19/19 17/20/20
f 23/21/21 24/22/22 22/23/23 21/24/24
f 27/25/25 28/26/26 26/27/27 25/28/28
f 31/29/29 32/30/30 30/31/31 29/32/32
f 35/33/33 36/34/34 34/35/35 33/36/36
f 39/37/37 40/38/38 38/39/39 37/40/40
f 43/41/41 44/42/42 42/43/43 41/44/44
f 47/45/45 48/46/46 46/47/47 45/48/48
f 51/49/49 52/50/50 50/51/51 49/52/52
f 55/53/53 56/54/54 54/55/55 53/56/56
f 59/57/57 58/58/58 57/59/59
f 62/60/60 61/61/61 60/62/62
f 65/63/63 64/64/64 63/65/65
f 68/66/66 67/67/67 66/68/68
f 71/69/69 70/70/70 69/71/71
f 74/72/72 73/73/73 72/74/74
f 77/75/75 76/76/76 75/77/77
f 80/78/78 79/79/79 78/80/80
f 83/81/81 84/82/82 82/83/83 81/84/84
f 87/85/85 88/86/86 86/87/87 85/88/88
f 91/89/89 92/90/90 90/91/91 89/92/92
f 95/93/93 96/94/94 94/95/95 93/96/96
f 99/97/97 100/98/98 98/99/99 97/100/100
f 103/101/101 104/102/102 102/103/103 101/104/104
f 107/105/105 108/106/106 106/107/107 105/108/108

# 29 faces
